<svg xmlns="http://www.w3.org/2000/svg" width="169" height="87" viewBox="0 0 169 87" fill="none"><path d="M7.32651 62.5795C5.98665 62.5795 5.30246 61.8125 5.30246 60.2784V53.9432L6.49979 54.0284C9.35057 54.142 10.776 55.5341 10.776 58.233C10.776 61.3295 9.69266 62.5795 7.52607 62.5795H7.32651ZM6.27172 45.1932C8.69489 45.1932 9.94923 46.2159 9.94923 49.2557C9.94923 51.6705 8.75191 52.9773 6.38576 53.1761L5.30246 53.2614V45.1932H6.27172ZM0 44.3125V44.6818C0.798219 45.1648 1.19733 46.1591 1.19733 47.6648V59.9091C1.19733 61.5852 0.798219 62.6364 0 63.0909V63.4602H7.55457C12.7145 63.4602 15.2802 61.6989 15.2802 58.1761C15.2802 56.7841 14.7385 55.7045 13.6267 54.9375C12.5149 54.1705 11.1751 53.7443 9.55012 53.6307C10.947 53.4886 12.0873 53.0057 13.0281 52.2386C13.9688 51.4716 14.4535 50.392 14.4535 49.0568C14.4535 46.1023 11.9733 44.3125 7.89667 44.3125H0Z" fill="white"></path><path d="M38.9575 62.892C35.4796 62.9205 33.5125 58.6875 33.598 53.8011C33.598 49.0568 35.3085 44.8807 38.9575 44.8807C40.668 44.8807 41.9793 45.733 42.9201 47.4659C43.8609 49.1705 44.3455 51.2727 44.3455 53.8011C44.3455 58.7443 42.6635 62.892 38.9575 62.892ZM38.9575 63.7727C41.9508 63.7727 44.3455 62.8636 46.1415 61.0455C47.966 59.1989 48.8782 56.7841 48.8782 53.8011C48.8782 50.9318 47.966 48.6023 46.17 46.7557C44.374 44.9091 41.9508 44 38.9575 44C36.0212 44 33.6265 44.9375 31.802 46.7841C30.0061 48.6307 29.0938 50.9886 29.0938 53.8011C29.0938 56.9261 29.9775 59.3693 31.7165 61.1307C33.4555 62.892 35.8787 63.7727 38.9575 63.7727Z" fill="white"></path><path d="M70.9206 62.608C69.5237 62.608 68.7825 61.8977 68.7825 60.0795V45.1932H70.2364C72.4885 45.1932 74.199 46.017 75.3393 47.6364C76.5081 49.2557 77.0783 51.358 77.0783 54C77.0783 56.5284 76.5366 58.6023 75.4818 60.2216C74.427 61.8125 72.9731 62.608 71.0916 62.608H70.9206ZM63.48 44.3125V44.6818C64.2783 45.1648 64.6774 46.2159 64.6774 47.8636V59.9091C64.6774 61.5568 64.2783 62.608 63.48 63.0909V63.4602H70.4074C74.0279 63.4602 76.7932 62.5795 78.6747 60.8466C80.5562 59.0852 81.497 56.7557 81.497 53.8295C81.497 47.8068 77.791 44.3125 70.5215 44.3125H63.48Z" fill="white"></path><path d="M105.333 62.892C101.855 62.9205 99.8879 58.6875 99.9734 53.8011C99.9734 49.0568 101.684 44.8807 105.333 44.8807C107.043 44.8807 108.355 45.733 109.295 47.4659C110.236 49.1705 110.721 51.2727 110.721 53.8011C110.721 58.7443 109.039 62.892 105.333 62.892ZM105.333 63.7727C108.326 63.7727 110.721 62.8636 112.517 61.0455C114.341 59.1989 115.254 56.7841 115.254 53.8011C115.254 50.9318 114.341 48.6023 112.545 46.7557C110.749 44.9091 108.326 44 105.333 44C102.397 44 100.002 44.9375 98.1774 46.7841C96.3814 48.6307 95.4692 50.9886 95.4692 53.8011C95.4692 56.9261 96.3529 59.3693 98.0919 61.1307C99.8309 62.892 102.254 63.7727 105.333 63.7727Z" fill="white"></path><path d="M145.734 49.3125C145.82 46.8125 146.618 45.2216 147.758 44.6818V44.3125H142.57V44.6818C143.853 45.25 144.508 46.7841 144.594 49.2841L144.794 57.608L133.333 44.3125H129.485V44.6818C130.882 45.8182 131.594 47.7216 131.651 50.4205L131.452 58.375C131.366 60.9602 130.568 62.5511 129.428 63.0909V63.4602H134.673V63.0909C133.533 62.5511 132.706 60.9886 132.621 58.375L132.336 49.625L144.908 64H145.421L145.734 49.3125Z" fill="white"></path><path d="M167.803 47.8636C167.803 46.2443 168.202 45.1648 169 44.6818V44.3125H162.5V44.6818C163.298 45.1648 163.698 46.2159 163.698 47.8636V59.9091C163.698 61.5568 163.298 62.608 162.5 63.0909V63.4602H169V63.0909C168.202 62.608 167.803 61.5284 167.803 59.9091V47.8636Z" fill="white"></path><path d="M27.1056 78.9398L28.9956 84.5298L30.8956 78.9398H32.4056L29.9056 85.9998H28.0956L25.5956 78.9398H27.1056Z" fill="white"></path><path d="M42.5764 78.9398V85.9998H41.1664V78.9398H42.5764Z" fill="white"></path><path d="M57.8319 85.9998H56.4219L53.2619 81.1998V85.9998H51.8519V78.9398H53.2619L56.4219 83.7798V78.9398H57.8319V85.9998Z" fill="white"></path><path d="M68.5178 80.0598V81.8898H71.0178V82.9698H68.5178V84.8698H71.3178V85.9998H67.1078V78.9398H71.3178V80.0598H68.5178Z" fill="white"></path><path d="M86.0517 78.9398L83.6617 83.5298V85.9998H82.2417V83.5298L79.8417 78.9398H81.4617L82.9617 82.0298L84.4617 78.9398H86.0517Z" fill="white"></path><path d="M99.107 84.5798H96.277L95.777 85.9998H94.287L96.887 79.0198H98.497L101.087 85.9998H99.597L99.107 84.5798ZM98.727 83.5098L97.687 80.5298L96.647 83.5098H98.727Z" fill="white"></path><path d="M113.528 85.9998L111.878 83.2498H111.258V85.9998H109.848V78.9398H112.538C113.358 78.9398 113.981 79.1398 114.408 79.5398C114.841 79.9398 115.058 80.4665 115.058 81.1198C115.058 81.6532 114.908 82.0998 114.608 82.4598C114.315 82.8198 113.888 83.0598 113.328 83.1798L115.088 85.9998H113.528ZM111.258 82.2798H112.418C113.225 82.2798 113.628 81.9232 113.628 81.2098C113.628 80.8698 113.528 80.6065 113.328 80.4198C113.135 80.2265 112.831 80.1298 112.418 80.1298H111.258V82.2798Z" fill="white"></path><path d="M130.22 82.4598C130.22 83.1598 130.073 83.7765 129.78 84.3098C129.487 84.8432 129.06 85.2598 128.5 85.5598C127.947 85.8532 127.287 85.9998 126.52 85.9998H124.01V78.9398H126.52C127.287 78.9398 127.947 79.0865 128.5 79.3798C129.06 79.6665 129.487 80.0765 129.78 80.6098C130.073 81.1365 130.22 81.7532 130.22 82.4598ZM126.4 84.7398C127.16 84.7398 127.747 84.5398 128.16 84.1398C128.58 83.7398 128.79 83.1798 128.79 82.4598C128.79 81.7332 128.58 81.1698 128.16 80.7698C127.747 80.3698 127.16 80.1698 126.4 80.1698H125.42V84.7398H126.4Z" fill="white"></path><path d="M144.126 84.0698C144.126 84.4298 144.036 84.7632 143.856 85.0698C143.676 85.3698 143.409 85.6132 143.056 85.7998C142.702 85.9798 142.272 86.0698 141.766 86.0698C141.266 86.0698 140.819 85.9865 140.426 85.8198C140.032 85.6465 139.716 85.3998 139.476 85.0798C139.242 84.7598 139.109 84.3865 139.076 83.9598H140.576C140.609 84.2465 140.722 84.4865 140.916 84.6798C141.116 84.8665 141.379 84.9598 141.706 84.9598C141.999 84.9598 142.222 84.8832 142.376 84.7298C142.536 84.5698 142.616 84.3665 142.616 84.1198C142.616 83.8998 142.552 83.7198 142.426 83.5798C142.299 83.4332 142.139 83.3165 141.946 83.2298C141.752 83.1432 141.486 83.0432 141.146 82.9298C140.706 82.7832 140.346 82.6398 140.066 82.4998C139.786 82.3532 139.546 82.1432 139.346 81.8698C139.152 81.5965 139.056 81.2398 139.056 80.7998C139.056 80.1932 139.272 79.7165 139.706 79.3698C140.146 79.0165 140.726 78.8398 141.446 78.8398C142.192 78.8398 142.786 79.0198 143.226 79.3798C143.672 79.7398 143.926 80.2198 143.986 80.8198H142.466C142.426 80.5665 142.319 80.3598 142.146 80.1998C141.972 80.0332 141.736 79.9498 141.436 79.9498C141.176 79.9498 140.966 80.0198 140.806 80.1598C140.646 80.2932 140.566 80.4898 140.566 80.7498C140.566 80.9565 140.626 81.1298 140.746 81.2698C140.872 81.4032 141.029 81.5132 141.216 81.5998C141.409 81.6865 141.669 81.7832 141.996 81.8898C142.449 82.0498 142.816 82.1998 143.096 82.3398C143.382 82.4798 143.626 82.6898 143.826 82.9698C144.026 83.2498 144.126 83.6165 144.126 84.0698Z" fill="white"></path><path d="M85.9644 28C85.5615 28 85.1585 27.6934 85.0578 27.1825C84.957 26.6715 85.36 26.2628 85.7629 26.1606C87.3748 25.9562 90.397 25.1387 92.5126 22.4818C94.2252 20.3358 94.1244 16.6569 94.0237 14.9197L90.8 15.7372C90.397 15.8394 89.9941 15.635 89.7926 15.2263C89.5911 14.8175 89.7926 14.4088 90.0948 14.1022C90.1955 14.1022 91.9081 12.7737 92.2104 10.1168C92.3111 8.68613 91.4044 7.15328 90.5985 6.13139L88.7852 8.07299C88.5837 8.27737 88.1807 8.37956 87.8785 8.27737C87.5763 8.17518 87.2741 7.9708 87.2741 7.56204C86.9718 6.23358 85.763 2.45256 83.9496 1.73723C82.1363 2.35037 80.9274 6.23358 80.6252 7.56204C80.5244 7.86861 80.323 8.17518 80.0207 8.27737C79.7185 8.37956 79.3155 8.27737 79.1141 8.07299L77.3007 6.13139C76.4948 7.15328 75.5881 8.68613 75.6889 10.1168C75.9911 12.8759 77.8044 14.1022 77.8044 14.1022C78.2074 14.3066 78.3081 14.8175 78.1067 15.2263C77.9052 15.635 77.5022 15.8394 77.0993 15.7372L73.9763 15.0219C73.8756 16.7591 73.7748 20.3358 75.4874 22.4818C77.5022 25.1387 80.6252 25.9562 82.237 26.1606C82.7407 26.2628 83.043 26.6715 82.9422 27.1825C82.8415 27.6934 82.4385 28 81.9348 27.8978C80.0207 27.5912 76.4948 26.6715 74.077 23.5036C71.357 19.927 72.2637 13.8978 72.3644 13.5912C72.3644 13.3869 72.5659 13.0803 72.7674 12.9781C72.9689 12.8759 73.2711 12.7737 73.4726 12.8759L74.9837 13.2847C74.5807 12.4672 74.1778 11.4453 74.077 10.219C73.7748 7.15328 76.6963 4.18978 76.797 4.08759C76.9985 3.88321 77.2 3.88321 77.4015 3.78102C77.603 3.78102 77.9052 3.88321 78.0059 4.08759L79.4163 5.62044C80.0207 3.67883 81.4311 0.510949 83.8489 0C83.9496 0 84.1511 0 84.2518 0C86.5689 0.510949 87.9792 3.67883 88.6844 5.62044L90.0948 4.08759C90.2963 3.88321 90.4978 3.78102 90.6992 3.78102C91.0015 3.78102 91.2029 3.88321 91.3037 4.08759C91.4044 4.18978 94.3259 7.15328 94.0237 10.219C93.9229 11.4453 93.52 12.4672 93.117 13.2847L94.6281 12.8759C94.8296 12.7737 95.1318 12.8759 95.3333 12.9781C95.5348 13.0803 95.6355 13.2847 95.7363 13.5912C95.7363 13.8978 96.7437 19.927 94.0237 23.5036C91.6059 26.6715 88.08 27.5912 86.1659 27.8978C86.0652 28 86.0652 28 85.9644 28Z" fill="white"></path><path d="M83.2444 25.5474H83.1437C82.64 25.4453 82.3378 25.0365 82.3378 24.5255C82.64 22.4818 82.7407 20.438 82.8415 18.292C82.8415 16.6569 82.8415 14.9197 82.7407 13.2847C82.7407 12.7737 83.043 12.365 83.5467 12.365C84.0504 12.365 84.4533 12.6715 84.4533 13.1825C84.5541 14.9197 84.5541 16.6569 84.5541 18.292C84.4533 20.438 84.3526 22.5839 84.0504 24.6277C84.0504 25.2409 83.7481 25.5474 83.2444 25.5474Z" fill="white"></path><path d="M83.8489 21.562C83.6474 21.562 83.4459 21.4599 83.2444 21.3577C82.8415 21.0511 82.8415 20.438 83.1437 20.1314C83.4459 19.7226 83.9496 19.2117 84.3526 18.8029C84.7555 18.292 85.1585 17.8832 85.4607 17.4745C85.763 17.0657 86.3674 17.0657 86.6696 17.3723C87.0726 17.6788 87.0726 18.292 86.7704 18.5985C86.4681 19.0073 85.9644 19.4161 85.5615 19.927C85.1585 20.438 84.7555 20.8467 84.3526 21.2555C84.3526 21.4599 84.0504 21.562 83.8489 21.562Z" fill="white"></path><path d="M57.0519 27.1825C56.3467 27.1825 55.6415 27.0803 54.9363 26.8759C52.4178 26.0584 50.6045 23.8102 50.1008 21.1533C49.4963 17.5766 51.7126 14.2044 54.0297 13.0803C61.6859 9.40146 69.8459 15.1241 74.883 21.6642C75.1852 22.073 75.0844 22.5839 74.6815 22.8905C74.2785 23.1971 73.7748 23.0949 73.4726 22.6861C71.8607 20.6423 63.4993 10.4234 54.7348 14.6131C53.2237 15.3285 51.3097 17.8832 51.7126 20.7445C52.0148 22.6861 53.526 24.4234 55.3393 25.0365C57.2534 25.6496 59.4697 25.1387 60.88 23.6058C61.6859 22.7883 61.7867 21.1533 61.0815 20.0292C60.3763 19.0073 59.2682 18.8029 57.7571 19.4161C57.3541 19.6204 56.7497 19.4161 56.5482 18.9051C56.3467 18.4963 56.5482 17.8832 57.0519 17.781C59.2682 16.8613 61.3837 17.3723 62.4919 19.1095C63.7008 20.9489 63.4993 23.5037 62.0889 24.9343C60.88 26.365 58.9659 27.1825 57.0519 27.1825Z" fill="white"></path><path d="M111.049 27.1825C109.135 27.1825 107.221 26.365 105.81 24.9343C104.4 23.5037 104.198 20.9489 105.407 19.1095C106.516 17.3723 108.631 16.8613 110.847 17.781C111.25 17.9854 111.553 18.4963 111.351 18.9051C111.15 19.4161 110.646 19.6204 110.243 19.4161C108.833 18.8029 107.624 19.0073 106.918 20.0292C106.213 21.1533 106.314 22.7883 107.12 23.6058C108.631 25.1387 110.847 25.6496 112.661 25.0365C114.474 24.4234 115.985 22.6861 116.287 20.7445C116.791 17.8832 114.877 15.3285 113.265 14.6131C104.601 10.4234 96.1392 20.5401 94.5274 22.6861C94.2252 23.0949 93.6207 23.1971 93.3185 22.8905C92.9155 22.5839 92.8148 21.9708 93.117 21.6642C98.154 15.1241 106.314 9.40146 113.97 13.0803C116.287 14.2044 118.504 17.5766 117.899 21.1533C117.496 23.8102 115.582 26.0584 113.064 26.8759C112.56 27.0803 111.855 27.1825 111.049 27.1825Z" fill="white"></path></svg>