<?xml version="1.0" standalone="no"?>
<!DOCTYPE svg PUBLIC "-//W3C//DTD SVG 1.1//EN" "http://www.w3.org/Graphics/SVG/1.1/DTD/svg11.dtd" >
<svg xmlns="http://www.w3.org/2000/svg" xmlns:xlink="http://www.w3.org/1999/xlink" version="1.1">
<metadata>
Created by FontForge 20170731 at Sat Jul 10 09:47:31 2021
 By Aleksey,,,
Copyright 2015 Indian Type Foundry. All rights reserved. |DCNT
</metadata>
<defs>
<font id="Begum-SemiBold" horiz-adv-x="1110" >
  <font-face 
    font-family="Begum SemiBold"
    font-weight="600"
    font-stretch="normal"
    units-per-em="2048"
    panose-1="2 0 0 0 0 0 0 0 0 0"
    ascent="1638"
    descent="-410"
    x-height="1040"
    cap-height="1380"
    bbox="-764 -655 2308 1937"
    underline-thickness="102"
    underline-position="-307"
    unicode-range="U+000D-FB02"
  />
<missing-glyph horiz-adv-x="0" 
 />
    <glyph glyph-name="fi" unicode="fi" horiz-adv-x="1376" 
d="M1174 256q0 -171 94 -229v-27h-465v27q94 55 94 229v528q0 87 -25.5 122.5t-103.5 35.5h-303v-686q0 -98 29.5 -151t85.5 -78v-27h-486v27q94 55 94 229v686h-127v53l127 6v95q0 226 130 344.5t387 118.5q216 0 341 -63t125 -175q0 -68 -41 -110t-110 -42
q-62 0 -108 40.5t-46 109.5q0 46 27 84t70 51q-30 18 -89.5 29.5t-125.5 11.5q-147 0 -215 -99.5t-68 -293.5v-90l610 24l99 25v-805z" />
    <glyph glyph-name="fl" unicode="fl" horiz-adv-x="1376" 
d="M1174 256q0 -170 94 -229v-27h-465v27q94 55 94 229v981q0 130 -54 194t-149 64q-117 0 -173 -94.5t-56 -298.5v-58l293 25l-19 -113h-274v-700q0 -98 29.5 -151t85.5 -78v-27h-486v27q94 55 94 229v700h-127v54l127 10v76q0 220 131.5 341.5t374.5 121.5q184 0 295 -68
l185 57v-1292z" />
    <glyph glyph-name=".notdef" horiz-adv-x="0" 
 />
    <glyph glyph-name=".null" horiz-adv-x="0" 
 />
    <glyph glyph-name="nonmarkingreturn" horiz-adv-x="682" 
 />
    <glyph glyph-name="CR" unicode="&#xd;" horiz-adv-x="0" 
 />
    <glyph glyph-name="space" unicode=" " horiz-adv-x="585" 
 />
    <glyph glyph-name="exclam" unicode="!" horiz-adv-x="628" 
d="M295 465l-135 625q-21 103 -21 139q0 79 50.5 125.5t125.5 46.5q74 0 123 -46t49 -124q0 -67 -18 -144l-133 -622h-41zM315 334q72 0 124.5 -52t52.5 -124t-52.5 -123t-124.5 -51t-123 51t-51 123t51 124t123 52z" />
    <glyph glyph-name="quotedbl" unicode="&#x22;" horiz-adv-x="784" 
d="M338 1268q0 -34 -5 -68.5t-19 -84t-24.5 -81t-37 -106.5t-39.5 -115h-35q-13 40 -39.5 115t-37 106.5t-24.5 81t-19 84t-5 68.5q0 78 36.5 128t105.5 50t106 -50t37 -128zM733 1268q0 -34 -5 -68.5t-19 -84t-24.5 -81t-37 -106.5t-39.5 -115h-35q-12 36 -39.5 114.5
t-36.5 107.5t-23.5 80t-19.5 85t-5 68q0 78 36 128t105 50t106 -50t37 -128z" />
    <glyph glyph-name="numbersign" unicode="#" horiz-adv-x="1441" 
d="M1393 887h-338l-86 -410h354v-98h-377l-80 -379h-110l80 379h-371l-80 -379h-111l78 379h-301v98h324l86 410h-340v98h360l84 395h113l-84 -395h369l84 395h112l-84 -395h318v-98zM856 477l86 410h-369l-88 -410h371z" />
    <glyph glyph-name="dollar" unicode="$" horiz-adv-x="1087" 
d="M1012 391q0 -171 -116.5 -281.5t-322.5 -123.5l-2 -230h-57l-2 228q-127 0 -237 31t-187 75v332h27q72 -174 177.5 -270.5t219.5 -102.5l-4 469q-158 81 -209 114q-167 109 -206 251q-13 49 -13 104q0 158 119.5 262.5t300.5 116.5l-2 252h94l-4 -252q213 -9 348 -96
v-324h-27q-57 161 -142 246t-179 106l-4 -450q159 -85 198 -110q162 -102 208 -224q22 -57 22 -123zM324 1124q0 -71 47 -126.5t133 -106.5l-4 412q-81 -7 -128.5 -56.5t-47.5 -122.5zM575 51q88 10 137.5 61.5t49.5 129.5q0 74 -47.5 130t-134.5 105z" />
    <glyph glyph-name="percent" unicode="%" horiz-adv-x="1658" 
d="M406 1360q153 0 232 -99.5t79 -252.5t-81.5 -252t-229.5 -99q-143 0 -225.5 93.5t-82.5 255.5q0 152 85.5 253t222.5 101zM1155 1343h123l-784 -1343h-121zM406 711q33 0 55 21t32.5 63.5t14.5 91.5t4 121q0 305 -106 305q-31 0 -52.5 -20.5t-32.5 -63t-15.5 -95.5
t-4.5 -128q0 -295 105 -295zM1247 690q79 0 140 -28t98 -77t55.5 -112t18.5 -137q0 -152 -82 -251t-230 -99q-142 0 -223.5 93t-81.5 255q0 153 84 254.5t221 101.5zM1247 39q33 0 55 21t33 63.5t15 91.5t4 121q0 307 -107 307q-42 0 -65.5 -39.5t-31 -103t-7.5 -166.5
q0 -295 104 -295z" />
    <glyph glyph-name="ampersand" unicode="&#x26;" horiz-adv-x="1662" 
d="M1192 373q261 -223 432 -312v-28q-77 -49 -201 -49q-160 0 -321 116q-12 8 -92 68q-209 -191 -473 -191q-201 0 -318 97.5t-117 261.5q0 133 90.5 233.5t264.5 157.5q-62 82 -98.5 160.5t-36.5 175.5q0 70 30 133.5t84.5 113t139.5 78.5t188 29q174 0 276.5 -71.5
t102.5 -190.5q0 -226 -398 -336q84 -106 205 -227q85 -85 195 -180v2q42 51 56.5 110t-4 112.5t-67.5 84.5v27h455v-27q-65 -19 -128.5 -65.5t-117.5 -106t-135 -162.5zM721 1348q-68 0 -110 -47t-42 -121q0 -129 146 -324q166 118 166 291q0 87 -42 144t-118 57zM678 104
q157 0 280 105q-127 106 -256.5 239t-209.5 236q-109 -106 -109 -278q0 -132 82.5 -217t212.5 -85z" />
    <glyph glyph-name="quotesingle" unicode="'" horiz-adv-x="380" 
d="M338 1268q0 -34 -5 -68.5t-19 -84t-24.5 -81t-37 -106.5t-39.5 -115h-35q-13 40 -39.5 115t-37 106.5t-24.5 81t-19 84t-5 68.5q0 78 36.5 128t105.5 50t106 -50t37 -128z" />
    <glyph glyph-name="parenleft" unicode="(" horiz-adv-x="876" 
d="M827 -289l9 -24q-59 -19 -111 -19q-113 0 -214.5 53t-176.5 145t-130.5 211t-83.5 254.5t-28 272.5q0 133 26.5 267.5t80.5 257t128.5 217.5t177.5 151.5t220 56.5q52 0 111 -16l-9 -27q-96 -5 -171.5 -60.5t-123 -142.5t-78 -205.5t-43 -240t-12.5 -256.5
q0 -123 13.5 -242.5t46 -236.5t80.5 -206t122 -146.5t166 -63.5z" />
    <glyph glyph-name="parenright" unicode=")" horiz-adv-x="876" 
d="M47 1511l-6 27q59 16 111 16q117 0 220 -56.5t177 -151.5t128 -217t80.5 -256t26.5 -267q0 -173 -45 -340.5t-124.5 -300.5t-200.5 -215t-262 -82q-52 0 -111 19l6 24q92 6 167 63.5t123 146.5t80.5 206t46 236.5t13.5 242.5q0 135 -12.5 256.5t-43.5 240t-78.5 205.5
t-123.5 142.5t-172 60.5z" />
    <glyph glyph-name="asterisk" unicode="*" horiz-adv-x="964" 
d="M498 977q68 52 117 100.5t72.5 68t62.5 32.5q31 7 65 5t65.5 -25t43.5 -62q20 -62 -23.5 -114.5t-112.5 -57.5q-39 -3 -128.5 11t-153.5 11q59 -40 110.5 -68.5t74.5 -39t44.5 -27t40.5 -43.5q31 -41 28 -91t-40 -87q-41 -42 -101 -34t-96 62q-22 32 -30.5 64t-21 100
t-34.5 144q-23 -82 -35 -151t-19.5 -98t-29.5 -61q-35 -46 -93 -55.5t-103 27.5q-38 32 -42.5 82.5t29.5 97.5q24 31 52.5 49t88 49.5t124.5 77.5q-81 2 -160 -12t-117 -10q-53 5 -98 44t-41 101q3 61 58 97.5t120 13.5q37 -14 62.5 -36t74.5 -68.5t113 -94.5
q-29 78 -60 140.5t-42 90.5t-11 68q0 54 35 96.5t94 42.5q61 0 95 -41t34 -98q-2 -40 -14 -71t-41.5 -93t-56.5 -137z" />
    <glyph glyph-name="plus" unicode="+" horiz-adv-x="1245" 
d="M1135 752v-103h-455v-456h-115v456h-452v103h452v446h115v-446h455z" />
    <glyph glyph-name="comma" unicode="," horiz-adv-x="524" 
d="M446 141q0 -132 -94 -252t-237 -180l-13 25q58 37 106 113.5t48 154.5q-8 -2 -20 -2q-63 6 -105.5 54t-42.5 118t49 122t125 52q82 0 133 -58t51 -147z" />
    <glyph glyph-name="hyphen" unicode="-" horiz-adv-x="722" 
d="M109 618h505v-110h-505v110z" />
    <glyph glyph-name="period" unicode="." horiz-adv-x="524" 
d="M262 334q72 0 124 -52t52 -124t-52 -123t-124 -51t-123 51t-51 123t51 124t123 52z" />
    <glyph glyph-name="slash" unicode="/" horiz-adv-x="899" 
d="M750 1481h129l-729 -1698h-130z" />
    <glyph glyph-name="zero" unicode="0" horiz-adv-x="1255" 
d="M86 668q0 173 41.5 308.5t115.5 220t170.5 128t211.5 43.5q251 0 398.5 -180.5t147.5 -505.5q0 -333 -147 -516.5t-399 -183.5q-253 0 -396 183t-143 503zM850 674q0 303 -56.5 466t-168.5 163q-117 0 -169.5 -157t-52.5 -474q0 -184 24.5 -323t75 -220.5t122.5 -81.5
q52 0 91 29t64.5 81t41 132t22 173t6.5 212z" />
    <glyph glyph-name="one" unicode="1" horiz-adv-x="747" 
d="M528 256q0 -169 95 -229v-27h-482v27q95 54 95 229v870l-170 -32v24l462 250v-1112z" />
    <glyph glyph-name="two" unicode="2" horiz-adv-x="1097" 
d="M59 0v125q615 450 615 864q0 139 -59.5 221t-161.5 82q-74 0 -128 -36t-73 -97q62 -11 96.5 -52.5t34.5 -105.5q0 -66 -46.5 -110.5t-117.5 -44.5q-69 3 -116.5 55.5t-47.5 126.5q0 139 131.5 239.5t319.5 100.5q227 0 352 -108.5t125 -276.5q0 -82 -35.5 -165.5
t-97 -159.5t-153 -155.5t-195 -150t-230.5 -145.5h379q126 0 201 30.5t135 88.5h27l-62 -326h-893z" />
    <glyph glyph-name="three" unicode="3" horiz-adv-x="1150" 
d="M735 729q148 -21 244 -109t96 -221q0 -129 -74.5 -225t-198.5 -144t-280 -48q-198 0 -332.5 80t-134.5 198q0 73 46.5 121.5t117.5 48.5q72 0 119 -45t47 -115q0 -73 -61 -118q58 -103 198 -103q108 0 176 85t68 222q0 134 -80 220.5t-254 89.5q-11 0 -34 -1t-36 -1
q-6 -2 -18 -2v34q177 49 267.5 136.5t90.5 226.5q0 107 -56 173t-154 66q-68 0 -119.5 -25.5t-77.5 -72.5q45 -12 73.5 -52.5t28.5 -88.5q0 -69 -44.5 -110.5t-110.5 -41.5q-70 0 -115 46t-45 122q0 126 129.5 209.5t323.5 83.5q215 0 350 -85.5t135 -238.5
q0 -219 -285 -315z" />
    <glyph glyph-name="four" unicode="4" horiz-adv-x="1191" 
d="M1112 293h-182v-37q0 -176 88 -229v-27h-463v27q88 51 88 229v37h-602v125l694 928h195v-875h215zM193 471h450v659z" />
    <glyph glyph-name="five" unicode="5" horiz-adv-x="1089" 
d="M47 262q0 81 49.5 125.5t118.5 42.5q72 1 118 -45.5t46 -112.5q0 -39 -19 -74t-49 -53q20 -44 66.5 -72t111.5 -28q124 0 189 88t65 232q0 148 -89.5 230.5t-260.5 82.5q-148 0 -252 -51l86 719h750l-37 -207h-680l-12 -340q148 71 321 71q217 0 335 -108t118 -303
q0 -206 -146 -341.5t-384 -135.5q-199 0 -322 78t-123 202z" />
    <glyph glyph-name="six" unicode="6" horiz-adv-x="1165" 
d="M86 600q0 350 185 559t491 209q92 0 172 -25l-8 -26q-106 1 -192.5 -30t-145 -84.5t-100.5 -129.5t-64.5 -159t-32.5 -179q47 60 134.5 108t183.5 48q184 0 286.5 -114t102.5 -300q0 -223 -135.5 -359t-354.5 -136q-129 0 -230 47.5t-164 131.5t-95.5 195.5t-32.5 243.5z
M383 557q0 -91 14 -178t41.5 -164t76.5 -123.5t112 -46.5q95 0 143.5 86t48.5 240q0 161 -59.5 261.5t-173.5 100.5t-201 -76q-2 -33 -2 -100z" />
    <glyph glyph-name="seven" unicode="7" horiz-adv-x="1009" 
d="M182 0q42 148 120 312t172.5 314t186.5 276t185 237h-428q-122 0 -215.5 -34t-141.5 -85h-26l57 326h914v-50q-173 -247 -307 -626t-177 -670h-340z" />
    <glyph glyph-name="eight" unicode="8" horiz-adv-x="1202" 
d="M770 756q63 -32 106 -56.5t92.5 -62t79.5 -74.5t50 -88t20 -108q0 -164 -151.5 -274.5t-384.5 -110.5q-138 0 -248.5 38t-179 117.5t-68.5 190.5q0 121 89.5 204t223.5 117q-65 35 -112 68t-90 76.5t-65.5 96.5t-22.5 114q0 92 42.5 163.5t113.5 114t156.5 64.5t178.5 22
q205 0 336 -91t131 -228q0 -115 -85 -190.5t-212 -102.5zM563 1303q-94 0 -147.5 -49t-53.5 -132q0 -34 11 -65.5t26 -56t45 -51.5t54 -44.5t67 -42t70 -38.5t76 -38q42 44 64 110t22 136q0 110 -61 190.5t-173 80.5zM649 53q103 0 168.5 56.5t65.5 144.5q0 26 -7 51
t-17 45.5t-29.5 42t-36 37.5t-46 36t-50 32.5t-57 32t-58 30t-62.5 30.5t-61 30q-49 -46 -78 -120t-29 -145q0 -135 82.5 -219t214.5 -84z" />
    <glyph glyph-name="nine" unicode="9" horiz-adv-x="1157" 
d="M1071 739q0 -127 -26.5 -240.5t-80 -208t-130 -163.5t-182.5 -107t-232 -38q-59 0 -124.5 9t-100.5 23l8 29q119 -2 213.5 29t156 83t104 128.5t63.5 157.5t28 177q-54 -69 -138.5 -112t-185.5 -43q-72 0 -138.5 27.5t-120 78.5t-85.5 131.5t-32 178.5q0 222 135 355.5
t358 133.5q105 0 189.5 -31.5t144 -87.5t99.5 -135t58.5 -172.5t18.5 -202.5zM776 803q0 64 -6.5 128.5t-23.5 133t-42 121t-67 86t-94 33.5q-86 0 -141.5 -91.5t-55.5 -234.5q0 -160 62.5 -258t183.5 -98q94 0 180 73q4 66 4 107z" />
    <glyph glyph-name="colon" unicode=":" horiz-adv-x="524" 
d="M262 1047q72 0 124 -52.5t52 -124.5t-52 -123t-124 -51t-123 51t-51 123t51 124.5t123 52.5zM262 346q72 0 124 -52t52 -124t-52 -123t-124 -51t-123 51t-51 123t51 124t123 52z" />
    <glyph glyph-name="semicolon" unicode=";" horiz-adv-x="524" 
d="M264 1047q72 0 123 -52.5t51 -124.5t-51 -123t-123 -51t-124 51t-52 123t52 124.5t124 52.5zM446 141q0 -132 -94 -252t-237 -180l-13 25q58 37 106 113.5t48 154.5q-13 -3 -23 0q-62 6 -103.5 53.5t-41.5 116.5q0 70 49 122t125 52q82 0 133 -58t51 -147z" />
    <glyph glyph-name="less" unicode="&#x3c;" horiz-adv-x="1245" 
d="M154 729l933 365v-115l-800 -299l800 -303v-111l-933 365v98z" />
    <glyph glyph-name="equal" unicode="=" horiz-adv-x="1245" 
d="M113 975h1022v-103h-1022v103zM113 526h1022v-102h-1022v102z" />
    <glyph glyph-name="greater" unicode="&#x3e;" horiz-adv-x="1245" 
d="M1092 631l-934 -367v113l800 303l-800 299v115l934 -365v-98z" />
    <glyph glyph-name="question" unicode="?" horiz-adv-x="1048" 
d="M502 1401q225 0 358 -101.5t133 -261.5q0 -157 -118 -258.5t-310 -120.5l-61 -194h-43l-76 315q163 23 246.5 104t83.5 208q0 113 -61.5 177t-166.5 64q-68 0 -125.5 -27.5t-80.5 -70.5q35 -23 55 -63t20 -82q0 -65 -46.5 -110.5t-112.5 -45.5q-64 0 -111 46.5t-47 117.5
q0 135 129 219t334 84zM483 334q72 0 124 -52t52 -124t-52 -123t-124 -51t-123 51t-51 123t51 124t123 52z" />
    <glyph glyph-name="at" unicode="@" horiz-adv-x="1878" 
d="M788 -285q-201 0 -359 86t-246.5 243t-88.5 359q0 156 47.5 302t134 264t201.5 207t258 137.5t295 48.5q157 0 295 -48.5t239.5 -135t160.5 -215t59 -281.5q0 -117 -35.5 -229t-100 -202t-163 -145t-215.5 -55q-102 0 -156 64t-43 196l12 68q-67 -149 -158.5 -236.5
t-193.5 -87.5q-123 0 -190.5 88t-67.5 226q0 171 80.5 327.5t218.5 253.5t293 97q234 0 383 -117q-51 -74 -82 -256l-55 -346q-26 -160 73 -160q87 0 160.5 70.5t115.5 187.5t42 252q0 180 -85 320.5t-238 218t-349 77.5q-174 0 -329 -70.5t-265.5 -190t-174.5 -283
t-64 -342.5q0 -275 169.5 -448t436.5 -173q228 0 391 82l27 -59q-180 -95 -433 -95zM831 182q116 0 252 299l78 455q-34 43 -90 43q-74 0 -151.5 -96.5t-128 -246.5t-50.5 -294q0 -160 90 -160z" />
    <glyph glyph-name="A" unicode="A" horiz-adv-x="1470" 
d="M1225 352q56 -132 108.5 -206.5t122.5 -118.5v-27h-567v27q64 20 76 100t-43 221l-23 58h-510l-24 -62q-42 -117 -22.5 -196t93.5 -121v-27h-422v27q69 32 138 113t120 198l471 1065h37zM414 469h458l-235 559z" />
    <glyph glyph-name="B" unicode="B" horiz-adv-x="1318" 
d="M825 709q81 -5 152.5 -27t131 -60.5t94 -100.5t34.5 -140q0 -381 -555 -381h-252h-291v27q86 50 86 229v883q0 164 -86 215v26h381h187q219 0 345 -90.5t126 -251.5q0 -75 -29.5 -135.5t-80 -99.5t-112 -62.5t-131.5 -31.5zM590 1317h-70v-584l78 8q256 19 256 283
q0 164 -66.5 228.5t-197.5 64.5zM680 63q117 0 175 73t58 241q0 143 -77 220t-230 83l-86 6v-457q0 -166 146 -166h14z" />
    <glyph glyph-name="C" unicode="C" horiz-adv-x="1370" 
d="M834 1401q243 0 452 -107v-362h-26q-60 188 -167.5 296.5t-258.5 108.5q-185 0 -300 -168t-118 -479q3 -315 124.5 -483t319.5 -168q157 0 252.5 102t151.5 295h28v-356q-167 -105 -454 -105q-156 0 -290.5 47t-236.5 135.5t-160.5 225.5t-58.5 307q0 165 57.5 300
t158 224.5t236 138t290.5 48.5z" />
    <glyph glyph-name="D" unicode="D" horiz-adv-x="1525" 
d="M645 1380q391 0 590 -180t199 -506q0 -154 -49.5 -280t-146.5 -219t-250 -144t-351 -51h-184h-314v27q86 51 86 229v868q0 179 -86 230v26h381h125zM686 61q135 0 233.5 81.5t147.5 220.5t49 319q0 109 -18.5 204t-57.5 175t-96 136.5t-138.5 88t-180.5 31.5h-105v-1073
q0 -99 39 -141t115 -42h12z" />
    <glyph glyph-name="E" unicode="E" horiz-adv-x="1220" 
d="M1128 352h29v-352h-729h-289v27q86 51 86 229v868q0 179 -86 230v26h381h592v-340h-27q-113 277 -397 277h-168v-594l137 12q91 7 145.5 59t90.5 142h25v-461h-25q-39 87 -93 137.5t-145 57.5l-135 10v-434q0 -96 39.5 -139.5t124.5 -43.5h53q288 0 391 289z" />
    <glyph glyph-name="F" unicode="F" horiz-adv-x="1191" 
d="M1135 1380v-340h-27q-113 277 -397 277h-191v-612l123 10q98 9 155.5 57.5t98.5 142.5h27v-460h-27q-43 91 -101 139.5t-153 56.5l-123 11v-406q0 -100 25 -152.5t71 -76.5v-27h-477v27q86 51 86 229v868q0 179 -86 230v26h996z" />
    <glyph glyph-name="G" unicode="G" horiz-adv-x="1454" 
d="M940 694h457v-26q-86 -53 -86 -230v-153q0 -111 32 -176q-84 -55 -221 -94.5t-278 -39.5q-340 0 -546 189.5t-206 523.5q0 150 52.5 280.5t147 226.5t235 151t309.5 55q221 0 458 -98v-363h-26q-74 195 -184.5 296t-252.5 101q-103 0 -184.5 -55.5t-130.5 -149
t-74.5 -207.5t-25.5 -239q0 -183 49 -328t148 -232t235 -87q190 0 190 203v196q0 182 -98 230v26z" />
    <glyph glyph-name="H" unicode="H" horiz-adv-x="1622" 
d="M1485 1354q-88 -52 -88 -230v-868q0 -173 88 -229v-27h-469v27q88 50 88 229v401h-584v-401q0 -175 86 -229v-27h-467v27q86 51 86 229v868q0 179 -86 230v26h467v-26q-86 -53 -86 -230v-403h584v403q0 180 -88 230v26h469v-26z" />
    <glyph glyph-name="I" unicode="I" horiz-adv-x="745" 
d="M520 256q0 -175 86 -229v-27h-467v27q86 51 86 229v868q0 179 -86 230v26h467v-26q-86 -53 -86 -230v-868z" />
    <glyph glyph-name="J" unicode="J" horiz-adv-x="751" 
d="M545 344q0 -75 -3.5 -127.5t-14.5 -113.5t-31 -104t-55.5 -87.5t-85.5 -75.5t-122 -57.5t-165 -42.5l-7 24q96 82 142.5 194t46.5 279v891q0 98 -22 151.5t-66 78.5v26h469v-26q-86 -54 -86 -230v-780z" />
    <glyph glyph-name="K" unicode="K" horiz-adv-x="1443" 
d="M520 256q0 -175 86 -229v-27h-467v27q86 51 86 229v868q0 179 -86 230v26h467v-26q-86 -53 -86 -230v-868zM575 657l295 369q56 72 76 140.5t9 114.5t-42 73v26h441v-26q-95 -43 -203.5 -132t-187.5 -182l-172 -202l213 -299q251 -351 419 -469v-23q-70 -67 -206 -67
q-50 0 -96 17t-83 42.5t-80 73t-75 89.5t-80 111l-228 320v24z" />
    <glyph glyph-name="L" unicode="L" horiz-adv-x="1232" 
d="M1151 436h29v-436h-752h-289v27q86 51 86 229v868q0 180 -86 230v26h467v-26q-86 -53 -86 -230v-878q0 -97 42 -140t140 -43h48q164 0 261 96.5t140 276.5z" />
    <glyph glyph-name="M" unicode="M" horiz-adv-x="1916" 
d="M127 1354v26h416l475 -1026l379 1026h383v-26q-44 -25 -66 -78.5t-22 -151.5v-868q0 -173 88 -229v-27h-469v27q86 50 86 229v907l-463 -1186h-64l-551 1168l19 -772q4 -143 45 -230.5t102 -115.5v-27h-376v27q61 28 101.5 116t43.5 228l10 645q3 144 -30.5 218
t-106.5 120z" />
    <glyph glyph-name="N" unicode="N" horiz-adv-x="1525" 
d="M1257 -39h-36l-904 1036l21 -630q4 -141 44.5 -226.5t102.5 -113.5v-27h-376v27q61 28 101 114.5t44 225.5l14 573q3 143 -39.5 248.5t-115.5 165.5v26h276l823 -958l-14 600q-4 136 -43.5 220t-101.5 112v26h372v-26q-61 -28 -101 -113.5t-44 -220.5z" />
    <glyph glyph-name="O" unicode="O" horiz-adv-x="1603" 
d="M92 696q0 149 51 279.5t142 225t224.5 148.5t291.5 54q162 0 296.5 -54t225 -148.5t140.5 -224t50 -280.5q0 -324 -195.5 -521.5t-516.5 -197.5q-332 0 -520.5 190.5t-188.5 528.5zM1188 696q0 175 -42 318t-131.5 234t-213.5 91q-96 0 -171 -52t-121 -142.5
t-69.5 -204.5t-23.5 -244q0 -134 24.5 -251t71.5 -208t121.5 -143.5t167.5 -52.5q97 0 172.5 52t121.5 143t69.5 207.5t23.5 252.5z" />
    <glyph glyph-name="P" unicode="P" horiz-adv-x="1306" 
d="M657 1380q269 0 420.5 -113t151.5 -313q0 -213 -144.5 -331t-388.5 -121q-57 0 -86 4l-2 26q153 36 224 134t71 284q0 101 -25 174.5t-71 114.5t-103 59.5t-129 18.5h-55v-1061q0 -176 86 -229v-27h-467v27q86 50 86 229v868q0 179 -86 230v26h381h137z" />
    <glyph glyph-name="Q" unicode="Q" horiz-adv-x="1603" 
d="M1561 -227l10 -25q-33 -53 -107.5 -92t-163.5 -39q-82 0 -157.5 27t-143.5 79.5t-125 113t-120 143.5q-311 14 -486.5 202.5t-175.5 513.5q0 149 51 279.5t142 225t224.5 148.5t291.5 54q162 0 296.5 -54t225 -148.5t140.5 -224t50 -280.5q0 -305 -175 -499t-468 -217
q150 -88 336.5 -143t354.5 -64zM416 696q0 -134 24.5 -251t71.5 -208t121.5 -143.5t167.5 -52.5q97 0 172.5 52t121.5 143t69.5 207.5t23.5 252.5q0 175 -42 318t-131.5 234t-213.5 91q-96 0 -171 -52t-121 -142.5t-69.5 -204.5t-23.5 -244z" />
    <glyph glyph-name="R" unicode="R" horiz-adv-x="1388" 
d="M797 268q-19 24 -40 52.5t-35 49t-40 60.5t-35.5 54.5t-42 66.5t-39.5 63v25q166 30 246 127t80 244q0 143 -74.5 225t-232.5 82h-64v-1061q0 -176 86 -229v-27h-467v27q86 50 86 229v868q0 179 -86 230v26h516q280 0 418.5 -97.5t138.5 -272.5q0 -66 -21 -122
t-54.5 -94.5t-80.5 -68t-95.5 -46.5t-102.5 -26l125 -159q134 -174 231 -279t177 -156l-7 -26q-39 -28 -78 -40.5t-98 -12.5q-113 0 -202 64t-209 224z" />
    <glyph glyph-name="S" unicode="S" horiz-adv-x="1087" 
d="M530 45q106 -1 165 53t59 142q0 66 -37 121t-96 95t-130 78.5t-142 82.5t-130 95.5t-96 128.5t-37 171q0 112 60.5 201t165 137.5t231.5 48.5q233 0 387 -99v-323h-27q-35 98 -81.5 170.5t-97 112t-99 57.5t-97.5 18q-92 0 -145 -51.5t-53 -130.5q0 -65 37 -120t96 -96
t130.5 -80.5t143.5 -84t131 -95.5t96 -125t37 -163q0 -183 -128 -296t-353 -113q-230 0 -420 106v338h27q76 -182 182 -280.5t221 -98.5z" />
    <glyph glyph-name="T" unicode="T" horiz-adv-x="1277" 
d="M41 1380h1196v-405h-27q-15 52 -32.5 94.5t-48 90.5t-66.5 81t-89.5 54.5t-117.5 21.5h-74v-1061q0 -173 88 -229v-27h-469v27q86 50 86 229v1061h-65q-64 0 -117.5 -21.5t-89.5 -54.5t-66.5 -81t-48 -90.5t-32.5 -94.5h-27v405z" />
    <glyph glyph-name="U" unicode="U" horiz-adv-x="1480" 
d="M219 461v663q0 179 -86 230v26h467v-26q-86 -54 -86 -230v-641q0 -399 344 -399q154 0 236.5 98t79.5 303l-7 559q-2 231 -170 310v26h430v-26q-154 -71 -161 -310l-19 -571q-16 -491 -473 -491q-99 0 -179.5 14t-151.5 48t-119.5 88t-76.5 137t-28 192z" />
    <glyph glyph-name="V" unicode="V" horiz-adv-x="1443" 
d="M555 1049l285 -670l215 598q44 126 32 224t-79 153v26h422v-26q-164 -65 -295 -387l-396 -990h-37l-473 1090q-98 222 -215 287v26h574v-26q-59 -39 -67 -124.5t34 -180.5z" />
    <glyph glyph-name="W" unicode="W" horiz-adv-x="2162" 
d="M1794 952q43 133 23 246t-93 156v26h422v-26q-46 -22 -87 -64t-74.5 -101t-58 -114t-50.5 -127l-363 -971h-36l-373 963l-377 -963h-37l-432 1053q-58 137 -107.5 211.5t-125.5 112.5v26h573v-26q-119 -84 -14 -330l247 -618l232 641l-10 30q-45 116 -92 182t-107 95v26
h573v-26q-47 -26 -67.5 -76.5t-15.5 -108.5t28 -122l244 -639z" />
    <glyph glyph-name="X" unicode="X" horiz-adv-x="1474" 
d="M1178 305q148 -224 272 -278v-27h-608v27q55 38 49 113t-68 165l-202 303l-166 -268q-62 -105 -60 -185.5t60 -127.5v-27h-437v27q84 29 164.5 103t171.5 196l238 325l-283 424q-52 79 -84.5 123.5t-80 91t-91.5 64.5v26h592v-26q-106 -93 14 -273l168 -254l123 211
q55 94 52 182t-60 134v26h434v-26q-166 -59 -336 -303l-182 -267z" />
    <glyph glyph-name="Y" unicode="Y" horiz-adv-x="1380" 
d="M942 1380h420v-26q-82 -30 -163 -115.5t-148 -210.5l-201 -389v-383q0 -175 86 -229v-27h-469v27q44 25 66 78t22 151v307l-285 508q-65 118 -123 188t-120 95v26h581v-26q-51 -31 -62.5 -88t3.5 -108.5t43 -102.5l215 -381l168 354q48 98 40 191t-73 135v26z" />
    <glyph glyph-name="Z" unicode="Z" horiz-adv-x="1261" 
d="M1184 1380v-26l-762 -1307l295 16q158 10 265 105t165 258h29v-426h-789h-311v27l762 1308l-287 -18q-294 -17 -414 -354h-26v417h772h301z" />
    <glyph glyph-name="bracketleft" unicode="[" horiz-adv-x="741" 
d="M700 1470h-229v-1734h229v-64h-493h-17v1862h281h229v-64z" />
    <glyph glyph-name="backslash" unicode="\" horiz-adv-x="899" 
d="M879 -217h-129l-730 1698h130z" />
    <glyph glyph-name="bracketright" unicode="]" horiz-adv-x="741" 
d="M551 1534v-1862h-281h-229v64h229v1734h-229v64h510z" />
    <glyph glyph-name="asciicircum" unicode="^" horiz-adv-x="1048" 
d="M565 1217l307 -537h-120l-236 420l-229 -420h-111l291 537h98z" />
    <glyph glyph-name="underscore" unicode="_" horiz-adv-x="1077" 
d="M20 -33h1039v-110h-1039v110z" />
    <glyph glyph-name="grave" unicode="`" horiz-adv-x="1228" 
d="M571 1513l144 -327h-64l-399 327h319z" />
    <glyph glyph-name="a" unicode="a" 
d="M1036 102h35v-30q-47 -44 -94.5 -65t-122.5 -21q-64 0 -115.5 33.5t-74.5 103.5q-51 -62 -130 -100.5t-176 -38.5q-129 0 -206.5 74t-77.5 196q0 106 61.5 181.5t162 111t228.5 35.5q58 0 119 -7v132q0 79 -5.5 128t-22 90.5t-49.5 60t-85 18.5q-107 0 -155 -70
q59 -40 59 -113q0 -59 -37.5 -99t-97.5 -40q-58 0 -97.5 40t-39.5 99q0 73 52 129t138 84.5t191 28.5q87 0 155 -12.5t114 -38t77.5 -58.5t48.5 -78.5t24 -93.5t7 -108v-459q0 -62 26.5 -87.5t87.5 -25.5zM504 115q81 0 145 71q-4 28 -4 50v278q-5 0 -15.5 1t-15.5 1
q-127 0 -193.5 -62.5t-66.5 -168.5q0 -75 40.5 -122.5t109.5 -47.5z" />
    <glyph glyph-name="b" unicode="b" horiz-adv-x="1267" 
d="M594 -18q-235 0 -410 81v1178q0 40 -11 73t-28.5 52t-29 28.5t-21.5 14.5v27l367 112v-690q53 89 138 147t194 58q124 0 216 -68.5t137.5 -179.5t45.5 -246q0 -149 -48 -264t-132 -184t-189.5 -104t-228.5 -35zM635 45q125 0 198.5 105t73.5 309q0 201 -67.5 310.5
t-186.5 109.5q-92 0 -192 -70v-682q26 -34 73.5 -58t100.5 -24z" />
    <glyph glyph-name="c" unicode="c" horiz-adv-x="1089" 
d="M590 -20q-219 0 -365.5 146.5t-146.5 381.5q0 124 43 229t116.5 176t172 110.5t208.5 39.5q189 0 294.5 -78t105.5 -188q0 -67 -44.5 -112.5t-109.5 -45.5t-108 44t-43 108q0 81 69 127q-43 81 -151 81q-71 0 -125.5 -36.5t-85 -96t-45.5 -125.5t-15 -135
q0 -111 31 -201.5t83 -147t117 -86.5t136 -30t150 31.5t137 77.5l18 -21q-72 -111 -184 -180t-258 -69z" />
    <glyph glyph-name="d" unicode="d" horiz-adv-x="1298" 
d="M1108 289q0 -44 12 -83t28.5 -62.5t29.5 -37t20 -16.5v-27l-367 -81v196q-31 -46 -74 -87.5t-114 -76t-145 -34.5q-128 0 -223 67t-143 180.5t-48 257.5q0 262 137 419t371 157q148 0 239 -66v252q0 40 -11.5 73t-29.5 52t-31 29t-24 14v27l373 106v-1259zM831 227v547
q-11 111 -68.5 167t-137.5 56q-50 0 -93 -22.5t-79 -71t-57 -134.5t-21 -202q0 -185 69 -295t199 -110q98 0 188 65z" />
    <glyph glyph-name="e" unicode="e" 
d="M1024 252l18 -23q-82 -116 -203 -184t-259 -68q-220 0 -361 145t-141 386q0 248 146 401.5t368 153.5q118 0 205 -34t137.5 -96.5t74 -142.5t23.5 -180v-55h-670q6 -107 37.5 -189t81.5 -131t110.5 -73.5t129.5 -24.5q80 0 162.5 32.5t140.5 82.5zM592 999
q-62 0 -108.5 -36t-72 -95.5t-37.5 -125t-12 -136.5v-4l420 41q0 78 -10.5 141.5t-33 112.5t-59.5 75.5t-87 26.5z" />
    <glyph glyph-name="f" unicode="f" horiz-adv-x="827" 
d="M639 1346q0 39 22 69.5t58 40.5q-36 39 -107 39q-32 0 -56 -12t-40 -37.5t-26 -55.5t-15 -75.5t-6.5 -87.5t-1.5 -101v-84l332 27l-19 -113h-313v-700q0 -177 115 -229v-27h-486v27q94 55 94 229v700h-127v54l127 10v100q0 207 88.5 323t280.5 116q151 0 240.5 -56.5
t89.5 -146.5q0 -61 -35.5 -97t-91.5 -36q-49 0 -86 33t-37 90z" />
    <glyph glyph-name="g" unicode="g" horiz-adv-x="1142" 
d="M770 190q164 0 246 -52t82 -175q0 -84 -45.5 -168.5t-126 -152.5t-203 -111t-262.5 -43q-191 0 -301.5 67.5t-110.5 180.5q0 81 61.5 143.5t159.5 91.5q-106 52 -106 166q0 73 49.5 133t120.5 97q-113 37 -180.5 120.5t-67.5 206.5q0 163 131.5 266t331.5 103
q134 0 235 -49q30 87 84 138.5t119 51.5q55 0 88 -34.5t33 -82.5q0 -45 -29.5 -78.5t-77.5 -33.5q-36 0 -62.5 20.5t-39.5 53.5q-29 -2 -72 -60q148 -95 148 -272q0 -87 -37.5 -159t-101.5 -119t-148.5 -73t-179.5 -26q-62 0 -121 12q-35 -44 -35 -86q0 -76 127 -76h291z
M530 1006q-82 0 -130 -78t-48 -207q0 -160 52 -241t131 -81q75 0 124.5 78t49.5 219q0 126 -49.5 218t-129.5 92zM543 -416q157 0 262.5 69t105.5 179q0 62 -39 83.5t-118 21.5h-299q-74 0 -129 14q-68 -54 -68 -154q0 -105 79 -159t206 -54z" />
    <glyph glyph-name="h" unicode="h" horiz-adv-x="1320" 
d="M467 256q0 -176 88 -229v-27h-459v27q94 55 94 229v985q0 40 -11 73t-28.5 52t-29 28.5t-21.5 14.5v27l367 112v-694q83 102 188 154.5t205 52.5q152 0 212.5 -86t60.5 -256v-463q0 -170 94 -229v-27h-457v27q86 50 86 229v428q0 193 -174 193q-86 0 -215 -72v-549z" />
    <glyph glyph-name="i" unicode="i" horiz-adv-x="657" 
d="M319 1530q69 0 121 -51.5t52 -120.5q0 -70 -52 -121t-121 -51q-71 0 -121.5 51t-50.5 121q0 69 51 120.5t121 51.5zM467 256q0 -171 94 -229v-27h-465v27q94 55 94 229v500q0 121 -90 166v26l367 113v-805z" />
    <glyph glyph-name="j" unicode="j" horiz-adv-x="657" 
d="M313 1530q70 0 121 -51.5t51 -120.5q0 -70 -50.5 -121t-121.5 -51t-121.5 51t-50.5 121q0 69 51 120.5t121 51.5zM190 756q0 121 -90 166v26l367 113v-959q0 -108 -12.5 -191t-45 -158.5t-87 -128t-140.5 -89t-202 -51.5l-7 24q217 176 217 562v686z" />
    <glyph glyph-name="k" unicode="k" horiz-adv-x="1267" 
d="M467 256q0 -170 94 -229v-27h-465v27q94 55 94 229v985q0 40 -11 73t-28.5 52t-29 28.5t-21.5 14.5v27l367 112v-1292zM713 731q46 50 67.5 101.5t12 100t-53.5 81.5v26h455v-26q-106 -42 -194 -103.5t-197 -162.5l-92 -91q24 -30 51.5 -62.5t59 -69.5t48.5 -58
q145 -176 229.5 -264.5t166.5 -149.5v-22q-69 -51 -158 -51q-107 0 -189 50.5t-188 174.5q-39 46 -119 147t-108 135l2 27z" />
    <glyph glyph-name="l" unicode="l" horiz-adv-x="657" 
d="M467 256q0 -170 94 -229v-27h-465v27q94 55 94 229v985q0 40 -11 73t-28.5 52t-29 28.5t-21.5 14.5v27l367 112v-1292z" />
    <glyph glyph-name="m" unicode="m" horiz-adv-x="1947" 
d="M1761 256q0 -171 94 -229v-27h-456v27q86 51 86 229v428q0 190 -172 190q-108 0 -203 -65q4 -50 4 -80v-473q0 -177 88 -229v-27h-450v27q86 51 86 229v428q0 190 -162 190q-99 0 -209 -69v-549q0 -176 88 -229v-27h-459v27q94 55 94 229v514q0 42 -11 75.5t-28.5 51.5
t-29.5 26.5t-21 12.5v27l367 114v-223q77 99 179.5 153t199.5 54q216 0 258 -211q72 98 176.5 154.5t212.5 56.5q148 0 208 -86.5t60 -255.5v-463z" />
    <glyph glyph-name="n" unicode="n" horiz-adv-x="1320" 
d="M467 256q0 -176 88 -229v-27h-459v27q94 55 94 229v514q0 42 -11 75.5t-28.5 51.5t-29.5 26.5t-21 12.5v27l367 114v-223q83 102 188 154.5t205 52.5q151 0 212 -86.5t61 -255.5v-463q0 -171 94 -229v-27h-457v27q86 49 86 229v428q0 190 -174 190q-105 0 -215 -69v-549z
" />
    <glyph glyph-name="o" unicode="o" horiz-adv-x="1241" 
d="M606 -20q-237 0 -382.5 145.5t-145.5 376.5q0 158 64 284t192.5 201.5t302.5 75.5q163 0 284 -72.5t182.5 -194.5t61.5 -276q0 -241 -156 -390.5t-403 -149.5zM631 45q113 0 175 114.5t62 323.5q0 237 -67.5 375.5t-188.5 138.5q-79 0 -134.5 -63.5t-79 -156.5
t-23.5 -204q0 -99 14 -189t43 -168t80.5 -124.5t118.5 -46.5z" />
    <glyph glyph-name="p" unicode="p" horiz-adv-x="1275" 
d="M797 1063q98 0 176.5 -43t127 -115.5t74 -163t25.5 -190.5q0 -260 -133.5 -415.5t-366.5 -155.5q-148 0 -233 61v-289q0 -177 115 -229v-27h-486v27q94 53 94 229v1006q0 42 -11.5 77.5t-28 55.5t-29.5 31t-21 14v27l367 114v-217q20 31 46.5 60.5t68 64.5t98 56.5
t117.5 21.5zM670 43q48 0 90 22.5t77.5 70t56.5 133.5t21 202q0 81 -15 152t-45.5 130t-84.5 93.5t-125 34.5q-102 0 -178 -72v-545q18 -110 70.5 -165.5t132.5 -55.5z" />
    <glyph glyph-name="q" unicode="q" horiz-adv-x="1265" 
d="M805 178q-39 -71 -124.5 -134.5t-191.5 -63.5q-126 0 -222 68t-144.5 180.5t-48.5 250.5q0 114 29.5 210t82 164t124 116t155.5 71t178 23q275 0 485 -141q-47 -71 -47 -277v-893q0 -89 27 -147t68 -82v-27h-486v27q55 27 85 80t30 149v426zM358 586q0 -204 72.5 -314
t187.5 -110q94 0 187 65v660q-28 52 -78 82t-111 30q-118 0 -188 -104.5t-70 -308.5z" />
    <glyph glyph-name="r" unicode="r" horiz-adv-x="966" 
d="M782 1063q74 0 119 -47.5t45 -110.5q0 -72 -44.5 -118t-113.5 -46q-60 0 -102 45t-45 107q-36 -3 -86.5 -38t-87.5 -77v-522q0 -98 31.5 -149.5t97.5 -79.5v-27h-500v27q94 55 94 229v514q0 42 -11 75.5t-28.5 51.5t-29.5 26.5t-21 12.5v27l367 114v-241q66 97 149 162
t166 65z" />
    <glyph glyph-name="s" unicode="s" horiz-adv-x="970" 
d="M88 174q0 57 34 92t89 35q54 0 88.5 -33.5t34.5 -83.5q0 -59 -39 -86q23 -24 73 -38.5t105 -14.5q93 0 145 41t52 107q0 39 -19.5 70.5t-52.5 54t-76 42t-90.5 38.5t-95 39.5t-90.5 49t-76 63.5t-52.5 86t-19.5 114q0 138 115.5 224.5t294.5 86.5q159 0 251.5 -52
t92.5 -135q0 -56 -34 -90t-89 -34q-52 0 -87.5 33t-35.5 83q0 60 43 88q-20 20 -62.5 32.5t-90.5 12.5q-77 0 -121.5 -36.5t-44.5 -92.5q0 -41 19 -73.5t51.5 -55.5t74 -43t87.5 -39t92.5 -39t88 -48t74 -62t51.5 -84t19 -111q0 -146 -119.5 -241t-302.5 -94
q-162 -2 -269.5 53t-107.5 141z" />
    <glyph glyph-name="t" unicode="t" horiz-adv-x="778" 
d="M741 162l17 -23q-56 -68 -140.5 -110.5t-173.5 -42.5q-131 0 -192.5 77.5t-61.5 235.5v657h-139v54q111 42 207 133t148 215h61v-311l256 22l-18 -113h-238v-620q0 -104 31.5 -155.5t105.5 -51.5q59 0 137 33z" />
    <glyph glyph-name="u" unicode="u" horiz-adv-x="1306" 
d="M840 770q0 44 -11.5 82t-28 60t-29.5 34t-21 15v26l366 90v-788q0 -47 11.5 -86.5t28.5 -62t29.5 -35t20.5 -15.5v-27l-366 -81v204q-76 -99 -171 -152.5t-194 -53.5q-287 0 -287 339v451q0 57 -21 103.5t-39 64.5t-30 23v26l367 90v-721q0 -190 166 -190q93 0 209 67
v537z" />
    <glyph glyph-name="v" unicode="v" horiz-adv-x="1167" 
d="M219 770q-41 92 -92.5 156.5t-101.5 87.5v26h518v-26q-107 -69 -23 -260l185 -435l122 379q21 64 26 121t-11.5 110t-57.5 85v26h367v-26q-148 -71 -240 -301l-290 -736h-43z" />
    <glyph glyph-name="w" unicode="w" horiz-adv-x="1792" 
d="M1405 1040h367v-26q-146 -87 -234 -318l-272 -719h-43l-310 721l-290 -721h-43l-322 730q-52 120 -102.5 189t-128.5 118v26h503v-26q-94 -67 -8 -264l183 -449l169 485q-39 90 -79.5 142.5t-94.5 85.5v26h506v-26q-41 -26 -55.5 -74.5t-6 -102t33.5 -112.5l165 -424
l111 363q35 119 21 213t-70 137v26z" />
    <glyph glyph-name="x" unicode="x" horiz-adv-x="1245" 
d="M995 236q59 -79 121.5 -136.5t104.5 -72.5v-27h-529v27q29 21 34.5 49.5t-16 79t-75.5 127.5l-105 143l-92 -141q-34 -52 -49 -99.5t-6 -90t47 -68.5v-27h-410v27q70 28 131 80.5t142 140.5l207 223l-242 332q-133 185 -215 211v26h514v-26q-35 -22 -37 -64t17.5 -84.5
t54.5 -89.5l96 -127l72 107q32 49 46.5 96.5t6 92t-44.5 69.5v26h408v-26q-150 -61 -314 -254l-139 -160z" />
    <glyph glyph-name="y" unicode="y" horiz-adv-x="1196" 
d="M252 692q-120 259 -227 322v26h518v-26q-37 -26 -51 -67.5t-4.5 -94t26.5 -100t45 -107.5l158 -381l125 365q28 79 36.5 151t-9 136.5t-66.5 97.5v26h377v-26q-137 -71 -228 -309l-260 -650q-19 -67 -35.5 -120t-41 -115.5t-49 -109t-57.5 -91.5t-69.5 -74t-82.5 -47
t-97 -18q-130 0 -205 102l-4 27q60 6 115 20t116.5 41.5t114 66.5t101 99t82.5 135z" />
    <glyph glyph-name="z" unicode="z" horiz-adv-x="1042" 
d="M975 1040v-41l-588 -950l166 14q117 11 192.5 49t116 96t72.5 154h27v-362h-719h-174v41l585 952l-153 -12q-87 -7 -149 -29t-103.5 -62t-67.5 -86.5t-51 -117.5h-27v354h719h154z" />
    <glyph glyph-name="braceleft" unicode="{" horiz-adv-x="802" 
d="M90 618q80 0 129 69.5t49 164.5q0 73 -19.5 182t-19.5 166q0 152 108.5 247t256.5 95q106 0 170 -35l-10 -26q-36 6 -47 6q-89 0 -138 -58t-49 -151q0 -68 21.5 -184.5t21.5 -182.5q0 -120 -85 -208t-187 -103q48 -7 95.5 -32t87 -64.5t64.5 -95.5t25 -119
q0 -66 -21.5 -182t-21.5 -185q0 -92 49.5 -149.5t137.5 -57.5q23 0 47 4l10 -24q-67 -37 -170 -37q-147 0 -256 95.5t-109 246.5q0 57 19.5 167t19.5 183q0 95 -49 164.5t-129 69.5h-22v34h22z" />
    <glyph glyph-name="bar" unicode="|" horiz-adv-x="606" 
d="M242 -510v2046h123v-2046h-123z" />
    <glyph glyph-name="braceright" unicode="}" horiz-adv-x="802" 
d="M715 584q-80 0 -129 -69.5t-49 -164.5q0 -73 19 -183t19 -167q0 -151 -109 -246.5t-255 -95.5q-106 0 -170 37l10 24q24 -4 47 -4q88 0 137.5 57.5t49.5 149.5q0 69 -22.5 185t-22.5 182q0 122 85.5 209t188.5 102q-102 15 -188 103t-86 208q0 66 22.5 182.5t22.5 184.5
q0 93 -49 151t-138 58q-11 0 -47 -6l-10 26q61 35 170 35q146 0 255 -95t109 -247q0 -57 -19 -166t-19 -182q0 -95 49 -164.5t129 -69.5h22v-34h-22z" />
    <glyph glyph-name="asciitilde" unicode="~" horiz-adv-x="1245" 
d="M1024 821h106q0 -127 -69.5 -197.5t-181.5 -70.5q-55 0 -127 25t-131.5 55t-129 55t-120.5 25q-77 0 -113.5 -45.5t-36.5 -120.5h-106q0 127 73 199.5t183 72.5q62 0 137.5 -25t133.5 -55t125 -55t114 -25q143 0 143 162z" />
    <glyph glyph-name="uni00A0" unicode="&#xa0;" horiz-adv-x="585" 
 />
    <glyph glyph-name="exclamdown" unicode="&#xa1;" horiz-adv-x="628" 
d="M315 1057q72 0 124.5 -51t52.5 -123t-52.5 -124t-124.5 -52t-123 52t-51 124t51 123t123 51zM469 -47q18 -77 18 -143q0 -77 -49 -122.5t-123 -45.5q-75 0 -125.5 46t-50.5 126q0 32 21 139l135 622h41z" />
    <glyph glyph-name="cent" unicode="&#xa2;" horiz-adv-x="1081" 
d="M1020 229q-67 -102 -166.5 -169.5t-226.5 -77.5l-2 -226h-56l-4 224q-208 6 -347.5 152t-139.5 376q0 152 64.5 274.5t171.5 192.5t239 84l-2 221h92l-2 -217q176 -6 269.5 -81t93.5 -181q0 -66 -44 -111t-108 -45q-65 0 -108.5 44.5t-43.5 107.5q0 83 68 127
q-33 68 -129 73l-10 -841q46 -15 92 -15q69 0 145 31t135 78zM360 606q0 -154 55.5 -261.5t147.5 -160.5l-10 803q-96 -33 -144.5 -144t-48.5 -237z" />
    <glyph glyph-name="sterling" unicode="&#xa3;" horiz-adv-x="1089" 
d="M999 319h29v-319h-932v29v6q201 111 201 389q0 98 -35 194l-196 7v53l172 4q-21 56 -30 80.5t-19.5 78t-10.5 105.5q0 183 129 302.5t342 119.5q97 0 178.5 -26t133 -79t51.5 -124t-42.5 -110.5t-95.5 -39.5q-58 0 -98.5 39.5t-40.5 99.5q0 91 86 125q-12 21 -45.5 34
t-68.5 13q-105 0 -166.5 -77t-61.5 -201q0 -38 4.5 -73t15.5 -73.5t18 -60t24 -67t22 -58.5l303 6v-90l-280 6q14 -65 14 -116q0 -105 -65 -201t-175 -170l379 43q84 10 135.5 31t75 46.5t49.5 73.5z" />
    <glyph glyph-name="currency" unicode="&#xa4;" horiz-adv-x="1101" 
d="M846 471l125 -111l10 -114l-166 149l-4 41q-116 -104 -262 -104q-143 0 -258 100l-2 -39l-166 -149l10 116l123 109q-90 104 -90 240q0 133 88 239l-182 182l63 64l184 -184q101 75 230 75q137 0 244 -86l116 134l111 10l-143 -170l-52 -2q107 -110 107 -262
q0 -131 -86 -238zM549 420q115 0 200 86t85 203q0 120 -84 204t-201 84t-201 -84t-84 -204q0 -117 85 -203t200 -86z" />
    <glyph glyph-name="yen" unicode="&#xa5;" horiz-adv-x="1380" 
d="M942 1343h420v-26q-82 -29 -163 -112.5t-148 -205.5l-93 -176l242 4v-79l-280 4l-70 -131v-78l350 6v-80l-350 2v-215q0 -175 86 -229v-27h-469v27q44 25 66 78t22 151v219l-371 4v56l371 4v10l-119 207l-252 2v55l217 4l-131 225q-67 116 -124 183t-119 92v26h581v-26
q-51 -29 -63 -85t3 -108t44 -98l213 -362l170 333q50 96 41 187t-74 133v26z" />
    <glyph glyph-name="brokenbar" unicode="&#xa6;" horiz-adv-x="606" 
d="M242 678v858h123v-858h-123zM365 346v-858h-123v858h123z" />
    <glyph glyph-name="section" unicode="&#xa7;" horiz-adv-x="1222" 
d="M911 244q160 -97 160 -267q0 -107 -62 -189t-162.5 -123.5t-219.5 -41.5q-195 0 -318 67.5t-123 168.5q0 57 36 93t93 36t94 -37t37 -94q0 -61 -36 -93q67 -75 223 -75q100 0 155.5 42t55.5 117q0 54 -40 97.5t-104 75t-141 62t-154.5 66.5t-141.5 79t-104 108.5
t-40 146.5q0 95 54.5 181t129.5 137q-156 92 -156 243q0 158 130 255.5t317 97.5q181 0 302.5 -62.5t121.5 -160.5q0 -57 -35 -93.5t-92 -36.5t-94 37.5t-37 94.5q0 59 37 92q-24 27 -78 46t-123 19q-94 0 -150.5 -43.5t-56.5 -115.5q0 -51 31 -91t81 -65t114.5 -50.5
t132 -46.5t132 -53.5t114.5 -71t81 -99.5t31 -138q0 -102 -56 -181t-139 -134zM311 639q0 -53 26 -96.5t65.5 -72t99 -55.5t115 -46t124.5 -45.5t117 -51.5q45 62 45 131q0 56 -25.5 101.5t-64.5 74.5t-98.5 57t-113.5 46t-124 43t-117 47q-49 -63 -49 -133z" />
    <glyph glyph-name="dieresis" unicode="&#xa8;" horiz-adv-x="1228" 
d="M393 1210q-58 0 -98.5 41.5t-40.5 98.5q0 58 40 98.5t99 40.5q56 0 96.5 -40.5t40.5 -98.5q0 -57 -40.5 -98.5t-96.5 -41.5zM838 1210q-57 0 -98.5 41.5t-41.5 98.5q0 58 41.5 98.5t98.5 40.5t97 -40.5t40 -98.5q0 -57 -40 -98.5t-97 -41.5z" />
    <glyph glyph-name="copyright" unicode="&#xa9;" horiz-adv-x="1552" 
d="M776 1368q190 0 350.5 -93t253.5 -253t93 -350q0 -141 -55 -270t-148 -222.5t-222.5 -149t-271.5 -55.5q-141 0 -270 55.5t-222 149t-148.5 222.5t-55.5 270q0 189 93.5 349.5t254 253.5t348.5 93zM776 51q128 0 243 50.5t196 134.5t128.5 197.5t47.5 236.5
q0 166 -80 309t-222 228t-313 85q-128 0 -241.5 -50t-193.5 -134.5t-126.5 -198.5t-46.5 -239q0 -165 78.5 -306.5t219 -227t310.5 -85.5zM821 1053q129 0 232 -54v-190h-23q-35 89 -88.5 140.5t-120.5 51.5q-81 0 -138.5 -80.5t-57.5 -226.5q0 -147 57.5 -230t138.5 -83
q68 0 122.5 52.5t88.5 139.5h23v-188q-97 -55 -234 -55q-106 0 -193 40t-142.5 124t-55.5 200q0 164 113.5 261.5t277.5 97.5z" />
    <glyph glyph-name="ordfeminine" unicode="&#xaa;" horiz-adv-x="837" 
d="M782 741h25v-28q-34 -34 -69.5 -50t-94.5 -16q-105 0 -141 103q-36 -45 -95 -73t-131 -28q-90 0 -143 52t-53 135q0 117 90 176t225 59q51 0 92 -6v139q0 75 -25.5 110.5t-82.5 35.5q-72 0 -109 -43q39 -29 39 -76q0 -45 -28 -77t-74 -32q-41 0 -71 30t-30 73
q0 82 78.5 129t198.5 47q176 0 249 -72.5t73 -208.5v-311q0 -68 77 -68zM393 758q55 0 96 45q0 7 -1 23t-1 24v166q-6 2 -16 2q-86 0 -131 -41.5t-45 -110.5q0 -45 27 -76.5t71 -31.5z" />
    <glyph glyph-name="guillemotleft" unicode="&#xab;" horiz-adv-x="1069" 
d="M518 909l31 -24l-195 -367l195 -366l-31 -25q-195 237 -430 371v41q236 135 430 370zM956 909l31 -24l-194 -367l194 -366l-31 -25q-195 237 -430 371v41q236 135 430 370z" />
    <glyph glyph-name="logicalnot" unicode="&#xac;" horiz-adv-x="1245" 
d="M1020 193v456h-907v103h1022v-559h-115z" />
    <glyph glyph-name="uni00AD" unicode="&#xad;" horiz-adv-x="0" 
 />
    <glyph glyph-name="registered" unicode="&#xae;" horiz-adv-x="1552" 
d="M776 1368q190 0 350.5 -93t253.5 -253t93 -350q0 -141 -55 -270t-148 -222.5t-222.5 -149t-271.5 -55.5q-141 0 -270 55.5t-222 149t-148.5 222.5t-55.5 270q0 189 93.5 349.5t254 253.5t348.5 93zM776 51q128 0 243 50.5t196 134.5t128.5 197.5t47.5 236.5
q0 166 -80 309t-222 228t-313 85q-128 0 -241.5 -50t-193.5 -134.5t-126.5 -198.5t-46.5 -239q0 -165 78.5 -306.5t219 -227t310.5 -85.5zM887 664q158 -198 262 -299l-4 -13q-41 -24 -86 -24q-58 0 -104.5 32t-110.5 113q-41 51 -127 176l8 15q84 17 127 66.5t43 125.5
q0 80 -39 118t-123 38h-39v-537q0 -76 45 -121v-14h-254v14q43 32 43 121v440q0 80 -43 123v13h209h90q147 0 220 -49t73 -140q0 -82 -53.5 -133t-136.5 -65z" />
    <glyph glyph-name="macron" unicode="&#xaf;" horiz-adv-x="1228" 
d="M299 1399h629v-99h-629v99z" />
    <glyph glyph-name="degree" unicode="&#xb0;" horiz-adv-x="761" 
d="M94 1108q0 118 84 202.5t203 84.5t203 -84.5t84 -202.5q0 -119 -84.5 -204t-202.5 -85t-202.5 85t-84.5 204zM582 1108q0 88 -59 149.5t-142 61.5q-82 0 -141.5 -62t-59.5 -149t59.5 -150t141.5 -63q83 0 142 62.5t59 150.5z" />
    <glyph glyph-name="plusminus" unicode="&#xb1;" horiz-adv-x="1245" 
d="M680 840h455v-109h-455v-356h-115v356h-452v109h452v358h115v-358zM113 135v103h1022v-103h-1022z" />
    <glyph glyph-name="uni00B2" unicode="&#xb2;" horiz-adv-x="862" 
d="M88 567v92q188 135 242 181q148 126 179 242q9 36 9 73q0 85 -40 135.5t-109 50.5q-52 0 -90.5 -26t-49.5 -64q45 -7 72 -36.5t27 -71.5q0 -52 -34 -86.5t-87 -34.5q-54 2 -89.5 35.5t-35.5 89.5q0 104 97 179t235 75q165 0 255.5 -71t90.5 -183q0 -122 -103 -211.5
t-378 -200.5h247q85 0 134.5 21t91.5 63h26l-47 -252h-643z" />
    <glyph glyph-name="uni00B3" unicode="&#xb3;" horiz-adv-x="872" 
d="M563 995q106 -13 174 -65t68 -135q0 -112 -105 -175t-282 -63q-147 0 -243.5 54t-96.5 137q0 55 34 87.5t87 32.5q50 1 82 -31.5t32 -82.5q0 -55 -45 -86q17 -28 53 -44t82 -16q68 0 115 49.5t47 135.5q0 67 -52.5 114t-168.5 51q-5 0 -15.5 -1t-15.5 -1q-16 0 -26 -2v31
q119 35 176 87t57 138q0 61 -37 98.5t-102 37.5q-90 0 -129 -52q37 -12 57.5 -41t20.5 -67q0 -50 -32 -82.5t-83 -32.5q-52 0 -85.5 33t-33.5 88q0 92 90.5 150.5t229.5 58.5q156 0 253 -54.5t97 -152.5q0 -141 -203 -199z" />
    <glyph glyph-name="acute" unicode="&#xb4;" horiz-adv-x="1228" 
d="M985 1513l-399 -327h-64l144 327h319z" />
    <glyph glyph-name="uni00B5" unicode="&#xb5;" horiz-adv-x="1312" 
d="M1122 289q0 -47 11.5 -86.5t28.5 -62t29.5 -35t20.5 -15.5v-27l-366 -81v204q-60 -90 -150 -145t-186 -55q-87 0 -156 32q18 -84 57.5 -186.5t39.5 -148.5q0 -56 -35.5 -85.5t-89.5 -29.5q-63 0 -100.5 39t-37.5 110v957v96q0 57 -21 103.5t-39 64.5t-30 23v26l367 90
v-706q0 -205 188 -205q94 0 193 67v537q0 44 -11.5 82t-28 60t-29.5 34t-21 15v26l366 90v-788z" />
    <glyph glyph-name="paragraph" unicode="&#xb6;" horiz-adv-x="1114" 
d="M1057 1380v-32q-42 -30 -66 -80.5t-24 -149.5v-1059q0 -208 -110.5 -322t-319.5 -114q-143 0 -240.5 64.5t-97.5 181.5q0 74 49 121t114 47q72 0 121 -49.5t49 -124.5q0 -79 -55 -131q10 -23 36.5 -35t55.5 -12q99 0 142 91t43 261v1294l-150 -18v-838q-536 0 -536 453
q0 143 71 246.5t192.5 154.5t278.5 51h447z" />
    <glyph glyph-name="periodcentered" unicode="&#xb7;" horiz-adv-x="1228" 
d="M614 580q-62 0 -104.5 43t-42.5 104t42.5 104t104.5 43t105 -43t43 -104t-43 -104t-105 -43z" />
    <glyph glyph-name="cedilla" unicode="&#xb8;" horiz-adv-x="1228" 
d="M410 -350q60 -29 114 -29q46 0 76.5 23.5t30.5 66.5q0 48 -36.5 81t-115.5 40l109 172h106l-49 -119q87 -7 136.5 -51.5t49.5 -107.5q0 -84 -62.5 -132.5t-160.5 -48.5q-126 0 -211 56z" />
    <glyph glyph-name="uni00B9" unicode="&#xb9;" horiz-adv-x="591" 
d="M424 760q0 -121 68 -168v-27h-367v27q68 42 68 168v454l-119 -22v27l350 180v-639z" />
    <glyph glyph-name="ordmasculine" unicode="&#xba;" horiz-adv-x="884" 
d="M57 1016q0 104 43 189.5t132 139.5t210 54q176 0 281.5 -102t105.5 -267q0 -78 -25.5 -147t-73 -123t-121.5 -85.5t-165 -31.5q-177 0 -282 103t-105 270zM293 1042q0 -173 41 -259.5t110 -86.5q68 0 108 81.5t40 223.5q0 173 -41 260t-111 87q-66 0 -106.5 -83
t-40.5 -223z" />
    <glyph glyph-name="guillemotright" unicode="&#xbb;" horiz-adv-x="1069" 
d="M82 885l31 24q194 -235 430 -370v-41q-235 -134 -430 -371l-31 25l194 366zM520 885l31 24q194 -235 430 -370v-41q-235 -134 -430 -371l-31 25l195 366z" />
    <glyph glyph-name="onequarter" unicode="&#xbc;" horiz-adv-x="1699" 
d="M139 592q68 42 68 168v452l-121 -20v27l352 180v-639q0 -121 68 -168v-27h-367v27zM1178 1343h125l-871 -1343h-121zM1642 322l-22 -140h-129q3 -114 61 -157v-25h-348v25q57 38 60 157h-406v94l481 541h152v-495h151zM1264 670l-283 -348h283v348z" />
    <glyph glyph-name="onehalf" unicode="&#xbd;" horiz-adv-x="1824" 
d="M438 760q0 -121 68 -168v-27h-367v27q68 42 68 168v452l-121 -20v27l352 180v-639zM1178 1343h125l-871 -1343h-121zM1053 0v94q188 135 244 183q150 127 178 245q8 32 8 66q0 86 -40.5 136t-109.5 50q-52 0 -90 -25.5t-49 -62.5q44 -9 70 -38t26 -70q0 -53 -33 -87
t-86 -34q-55 0 -89.5 33.5t-34.5 91.5q0 103 96 177.5t233 74.5q166 0 256 -70.5t90 -183.5q0 -122 -103 -211.5t-378 -200.5h248q85 0 134.5 21.5t90.5 62.5h27l-45 -252h-643z" />
    <glyph glyph-name="threequarters" unicode="&#xbe;" horiz-adv-x="1955" 
d="M838 795q0 -112 -105.5 -175t-283.5 -63q-147 0 -243.5 54t-96.5 137q0 55 33.5 87.5t86.5 32.5q50 1 82.5 -31.5t32.5 -82.5q0 -55 -45 -86q41 -60 135 -60q68 0 115 49.5t47 135.5q0 67 -52.5 113.5t-168.5 49.5h-37q-6 -2 -19 -2v31q118 35 175 87t57 138
q0 61 -37 98.5t-102 37.5q-93 0 -127 -52q36 -12 56.5 -40.5t20.5 -67.5q0 -50 -32 -82.5t-84 -32.5t-85.5 33t-33.5 88q0 92 90.5 150.5t228.5 58.5q156 0 253.5 -54.5t97.5 -152.5q0 -145 -205 -199q108 -11 177 -63.5t69 -136.5zM1434 1343h122l-868 -1343h-123z
M1898 322l-22 -140h-129q3 -116 61 -157v-25h-350v25q59 39 62 157h-406v94l479 541h154v-495h151zM1520 670l-283 -348h283v348z" />
    <glyph glyph-name="questiondown" unicode="&#xbf;" horiz-adv-x="1048" 
d="M565 707q-72 0 -124 52t-52 124t52 123t124 51t123 -51t51 -123t-51 -124t-123 -52zM852 106q64 0 112 -46t48 -117q0 -127 -128.5 -214t-336.5 -87q-223 0 -356.5 98t-133.5 250q0 91 34 164t94 121t136 77t166 39l60 184h43l74 -315q-162 -21 -246 -103.5t-84 -211.5
q0 -109 62 -173.5t167 -64.5q68 0 125.5 27.5t79.5 70.5q-33 23 -53.5 63.5t-20.5 82.5q0 65 46 110t112 45z" />
    <glyph glyph-name="Agrave" unicode="&#xc0;" horiz-adv-x="1476" 
d="M838 1526h-64l-399 327h319zM1225 352q56 -132 108.5 -206.5t122.5 -118.5v-27h-567v27q64 20 76 100t-43 221l-23 58h-510l-24 -62q-42 -117 -22.5 -196t93.5 -121v-27h-422v27q69 32 138 113t120 198l471 1065h37zM414 469h458l-235 559z" />
    <glyph glyph-name="Aacute" unicode="&#xc1;" horiz-adv-x="1476" 
d="M1118 1853l-399 -327h-64l144 327h319zM1225 352q56 -132 108.5 -206.5t122.5 -118.5v-27h-567v27q64 20 76 100t-43 221l-23 58h-510l-24 -62q-42 -117 -22.5 -196t93.5 -121v-27h-422v27q69 32 138 113t120 198l471 1065h37zM414 469h458l-235 559z" />
    <glyph glyph-name="Acircumflex" unicode="&#xc2;" horiz-adv-x="1476" 
d="M754 1640l-291 -116l-19 20l295 309h29l293 -309l-17 -20zM1225 352q56 -132 108.5 -206.5t122.5 -118.5v-27h-567v27q64 20 76 100t-43 221l-23 58h-510l-24 -62q-42 -117 -22.5 -196t93.5 -121v-27h-422v27q69 32 138 113t120 198l471 1065h37zM414 469h458l-235 559z
" />
    <glyph glyph-name="Atilde" unicode="&#xc3;" horiz-adv-x="1476" 
d="M473 1550h-27q-6 30 -6 58q0 93 47.5 158t128.5 65q44 0 89.5 -19t78 -42.5t73 -42.5t75.5 -19q52 0 82 36.5t35 90.5h26q6 -30 6 -57q0 -97 -44 -160.5t-132 -63.5q-43 0 -88 19t-77 42.5t-73 42.5t-77 19q-53 0 -82.5 -36t-34.5 -91zM1225 352q56 -132 108.5 -206.5
t122.5 -118.5v-27h-567v27q64 20 76 100t-43 221l-23 58h-510l-24 -62q-42 -117 -22.5 -196t93.5 -121v-27h-422v27q69 32 138 113t120 198l471 1065h37zM414 469h458l-235 559z" />
    <glyph glyph-name="Adieresis" unicode="&#xc4;" horiz-adv-x="1476" 
d="M535 1550q-57 0 -98.5 41.5t-41.5 98.5t41.5 98t98.5 41t97 -41t40 -98t-40 -98.5t-97 -41.5zM979 1550q-57 0 -98 41.5t-41 98.5t41 98t98 41t97 -41t40 -98t-40 -98.5t-97 -41.5zM1225 352q56 -132 108.5 -206.5t122.5 -118.5v-27h-567v27q64 20 76 100t-43 221l-23 58
h-510l-24 -62q-42 -117 -22.5 -196t93.5 -121v-27h-422v27q69 32 138 113t120 198l471 1065h37zM414 469h458l-235 559z" />
    <glyph glyph-name="Aring" unicode="&#xc5;" horiz-adv-x="1476" 
d="M756 1505q-76 0 -130.5 55t-54.5 130q0 76 54 130t131 54q75 0 129.5 -54t54.5 -130q0 -75 -54.5 -130t-129.5 -55zM756 1772q-34 0 -59 -24t-25 -58t25 -58t59 -24q33 0 57.5 24.5t24.5 57.5t-24.5 57.5t-57.5 24.5zM1225 352q56 -132 108.5 -206.5t122.5 -118.5v-27
h-567v27q64 20 76 100t-43 221l-23 58h-510l-24 -62q-42 -117 -22.5 -196t93.5 -121v-27h-422v27q69 32 138 113t120 198l471 1065h37zM414 469h458l-235 559z" />
    <glyph glyph-name="AE" unicode="&#xc6;" horiz-adv-x="1939" 
d="M1847 352h29v-352h-729h-289v27q86 51 86 229v150h-481l-29 -54q-37 -65 -49.5 -126.5t3.5 -114.5t63 -84v-27h-437v27q72 29 158.5 115.5t159.5 211.5l612 1026h168h719v-340h-27q-113 277 -397 277h-168v-594l137 12q91 7 145.5 59t90.5 142h24v-461h-24
q-39 87 -93 137.5t-145 57.5l-135 10v-434q0 -96 39.5 -139.5t124.5 -43.5h55q286 0 389 289zM498 469h446v807z" />
    <glyph glyph-name="Ccedilla" unicode="&#xc7;" horiz-adv-x="1370" 
d="M1292 80q-148 -94 -403 -103l-37 -92q87 -7 136.5 -51.5t49.5 -107.5q0 -84 -62.5 -132.5t-160.5 -48.5q-126 0 -211 56l14 49q56 -29 113 -29q47 0 78 24t31 66q0 48 -37.5 81t-116.5 40l92 145q-146 9 -270 60t-217 139t-146 220t-53 294q0 165 57.5 300t158 224.5
t236 138t290.5 48.5q243 0 452 -107v-362h-26q-60 188 -167.5 296.5t-258.5 108.5q-185 0 -300 -168t-118 -479q3 -315 124.5 -483t319.5 -168q157 0 252.5 102t151.5 295h28v-356z" />
    <glyph glyph-name="Egrave" unicode="&#xc8;" horiz-adv-x="1220" 
d="M772 1526h-63l-400 327h320zM1128 352h29v-352h-729h-289v27q86 51 86 229v868q0 179 -86 230v26h381h592v-340h-27q-113 277 -397 277h-168v-594l137 12q91 7 145.5 59t90.5 142h25v-461h-25q-39 87 -93 137.5t-145 57.5l-135 10v-434q0 -96 39.5 -139.5t124.5 -43.5h53
q288 0 391 289z" />
    <glyph glyph-name="Eacute" unicode="&#xc9;" horiz-adv-x="1220" 
d="M999 1853l-399 -327h-63l143 327h319zM1128 352h29v-352h-729h-289v27q86 51 86 229v868q0 179 -86 230v26h381h592v-340h-27q-113 277 -397 277h-168v-594l137 12q91 7 145.5 59t90.5 142h25v-461h-25q-39 87 -93 137.5t-145 57.5l-135 10v-434q0 -96 39.5 -139.5
t124.5 -43.5h53q288 0 391 289z" />
    <glyph glyph-name="Ecircumflex" unicode="&#xca;" horiz-adv-x="1220" 
d="M657 1640l-290 -116l-17 20l293 309h29l295 -309l-19 -20zM1128 352h29v-352h-729h-289v27q86 51 86 229v868q0 179 -86 230v26h381h592v-340h-27q-113 277 -397 277h-168v-594l137 12q91 7 145.5 59t90.5 142h25v-461h-25q-39 87 -93 137.5t-145 57.5l-135 10v-434
q0 -96 39.5 -139.5t124.5 -43.5h53q288 0 391 289z" />
    <glyph glyph-name="Edieresis" unicode="&#xcb;" horiz-adv-x="1220" 
d="M442 1550q-58 0 -98.5 41.5t-40.5 98.5t40.5 98t98.5 41q56 0 97 -41t41 -98t-41 -98.5t-97 -41.5zM887 1550q-57 0 -98 41.5t-41 98.5t41 98t98 41q56 0 96.5 -41t40.5 -98t-40.5 -98.5t-96.5 -41.5zM1128 352h29v-352h-729h-289v27q86 51 86 229v868q0 179 -86 230v26
h381h592v-340h-27q-113 277 -397 277h-168v-594l137 12q91 7 145.5 59t90.5 142h25v-461h-25q-39 87 -93 137.5t-145 57.5l-135 10v-434q0 -96 39.5 -139.5t124.5 -43.5h53q288 0 391 289z" />
    <glyph glyph-name="Igrave" unicode="&#xcc;" horiz-adv-x="745" 
d="M344 1853l143 -327h-63l-399 327h319zM520 256q0 -175 86 -229v-27h-467v27q86 51 86 229v868q0 179 -86 230v26h467v-26q-86 -53 -86 -230v-868z" />
    <glyph glyph-name="Iacute" unicode="&#xcd;" horiz-adv-x="745" 
d="M729 1853l-399 -327h-64l144 327h319zM520 256q0 -175 86 -229v-27h-467v27q86 51 86 229v868q0 179 -86 230v26h467v-26q-86 -53 -86 -230v-868z" />
    <glyph glyph-name="Icircumflex" unicode="&#xce;" horiz-adv-x="745" 
d="M387 1853l293 -309l-16 -20l-291 116l-291 -116l-19 20l295 309h29zM139 1354v26h467v-26q-86 -53 -86 -230v-868q0 -175 86 -229v-27h-467v27q86 51 86 229v868q0 179 -86 230z" />
    <glyph glyph-name="Idieresis" unicode="&#xcf;" horiz-adv-x="745" 
d="M152 1550q-58 0 -99 41.5t-41 98.5t41 98t99 41q56 0 96.5 -41t40.5 -98t-40.5 -98.5t-96.5 -41.5zM596 1550q-57 0 -98 41.5t-41 98.5t41 98t98 41q56 0 96.5 -41t40.5 -98t-40.5 -98.5t-96.5 -41.5zM520 256q0 -175 86 -229v-27h-467v27q86 51 86 229v868
q0 179 -86 230v26h467v-26q-86 -53 -86 -230v-868z" />
    <glyph glyph-name="Eth" unicode="&#xd0;" horiz-adv-x="1525" 
d="M645 1380q391 0 590 -180t199 -506q0 -154 -49.5 -280t-146.5 -219t-250 -144t-351 -51h-184h-314v27q86 51 86 229v420l-172 2v43l172 4v399q0 179 -86 230v26h381h125zM688 61q133 0 231 82t147.5 221.5t49.5 317.5q0 109 -18.5 204t-57.5 175t-96 136.5t-138.5 88
t-180.5 31.5h-105v-586l301 6v-71l-301 4v-426q0 -99 39 -141t115 -42h14z" />
    <glyph glyph-name="Ntilde" unicode="&#xd1;" horiz-adv-x="1525" 
d="M446 1550q-4 20 -4 58q0 93 47 158t129 65q43 0 88.5 -19t77.5 -42.5t72.5 -42.5t75.5 -19q53 0 82.5 36.5t34.5 90.5h28q6 -30 6 -57q0 -97 -44 -160.5t-132 -63.5q-44 0 -89.5 19t-77.5 42.5t-72.5 42.5t-75.5 19q-53 0 -82.5 -36t-34.5 -91h-29zM1257 -39h-36
l-904 1036l21 -630q4 -141 44.5 -226.5t102.5 -113.5v-27h-376v27q61 28 101 114.5t44 225.5l14 573q3 143 -39.5 248.5t-115.5 165.5v26h276l823 -958l-14 600q-4 136 -43.5 220t-101.5 112v26h372v-26q-61 -28 -101 -113.5t-44 -220.5z" />
    <glyph glyph-name="Ograve" unicode="&#xd2;" horiz-adv-x="1603" 
d="M760 1853l143 -327h-63l-400 327h320zM92 696q0 149 51 279.5t142 225t224.5 148.5t291.5 54q162 0 296.5 -54t225 -148.5t140.5 -224t50 -280.5q0 -324 -195.5 -521.5t-516.5 -197.5q-332 0 -520.5 190.5t-188.5 528.5zM1188 696q0 175 -42 318t-131.5 234t-213.5 91
q-96 0 -171 -52t-121 -142.5t-69.5 -204.5t-23.5 -244q0 -134 24.5 -251t71.5 -208t121.5 -143.5t167.5 -52.5q97 0 172.5 52t121.5 143t69.5 207.5t23.5 252.5z" />
    <glyph glyph-name="Oacute" unicode="&#xd3;" horiz-adv-x="1603" 
d="M1174 1853l-400 -327h-63l143 327h320zM92 696q0 149 51 279.5t142 225t224.5 148.5t291.5 54q162 0 296.5 -54t225 -148.5t140.5 -224t50 -280.5q0 -324 -195.5 -521.5t-516.5 -197.5q-332 0 -520.5 190.5t-188.5 528.5zM1188 696q0 175 -42 318t-131.5 234t-213.5 91
q-96 0 -171 -52t-121 -142.5t-69.5 -204.5t-23.5 -244q0 -134 24.5 -251t71.5 -208t121.5 -143.5t167.5 -52.5q97 0 172.5 52t121.5 143t69.5 207.5t23.5 252.5z" />
    <glyph glyph-name="Ocircumflex" unicode="&#xd4;" horiz-adv-x="1603" 
d="M803 1640l-291 -116l-18 20l294 309h27l295 -309l-18 -20zM801 1403q162 0 296.5 -54t225 -148.5t140.5 -224t50 -280.5q0 -324 -195.5 -521.5t-516.5 -197.5q-332 0 -520.5 190.5t-188.5 528.5q0 149 51 279.5t142 225t224.5 148.5t291.5 54zM1188 696q0 175 -42 318
t-131.5 234t-213.5 91q-96 0 -171 -52t-121 -142.5t-69.5 -204.5t-23.5 -244q0 -134 24.5 -251t71.5 -208t121.5 -143.5t167.5 -52.5q97 0 172.5 52t121.5 143t69.5 207.5t23.5 252.5z" />
    <glyph glyph-name="Otilde" unicode="&#xd5;" horiz-adv-x="1603" 
d="M485 1550q-4 20 -4 58q0 93 47 158t129 65q43 0 88.5 -19t77.5 -42.5t72.5 -42.5t75.5 -19q53 0 82 36t34 91h29q6 -30 6 -57q0 -97 -44 -160.5t-132 -63.5q-44 0 -89.5 19t-77.5 42.5t-72.5 42.5t-75.5 19q-53 0 -82.5 -36t-34.5 -91h-29zM92 696q0 149 51 279.5
t142 225t224.5 148.5t291.5 54q162 0 296.5 -54t225 -148.5t140.5 -224t50 -280.5q0 -324 -195.5 -521.5t-516.5 -197.5q-332 0 -520.5 190.5t-188.5 528.5zM1188 696q0 175 -42 318t-131.5 234t-213.5 91q-96 0 -171 -52t-121 -142.5t-69.5 -204.5t-23.5 -244
q0 -134 24.5 -251t71.5 -208t121.5 -143.5t167.5 -52.5q97 0 172.5 52t121.5 143t69.5 207.5t23.5 252.5z" />
    <glyph glyph-name="Odieresis" unicode="&#xd6;" horiz-adv-x="1603" 
d="M580 1550q-57 0 -98.5 41.5t-41.5 98.5t41.5 98t98.5 41t98 -41t41 -98t-41 -98.5t-98 -41.5zM1026 1550q-58 0 -98.5 41.5t-40.5 98.5t40.5 98t98.5 41q56 0 96.5 -41t40.5 -98t-40.5 -98.5t-96.5 -41.5zM92 696q0 149 51 279.5t142 225t224.5 148.5t291.5 54
q162 0 296.5 -54t225 -148.5t140.5 -224t50 -280.5q0 -324 -195.5 -521.5t-516.5 -197.5q-332 0 -520.5 190.5t-188.5 528.5zM1188 696q0 175 -42 318t-131.5 234t-213.5 91q-96 0 -171 -52t-121 -142.5t-69.5 -204.5t-23.5 -244q0 -134 24.5 -251t71.5 -208t121.5 -143.5
t167.5 -52.5q97 0 172.5 52t121.5 143t69.5 207.5t23.5 252.5z" />
    <glyph glyph-name="multiply" unicode="&#xd7;" horiz-adv-x="1245" 
d="M1014 381l-76 -74l-322 320l-319 -322l-72 72l322 321l-322 322l74 76l322 -322l319 320l70 -72l-318 -320z" />
    <glyph glyph-name="Oslash" unicode="&#xd8;" horiz-adv-x="1585" 
d="M1286 1221q101 -95 155 -230t54 -295q0 -327 -190.5 -523t-511.5 -196q-271 0 -445 127l-92 -112l-45 33l92 116q-211 189 -211 555q0 202 84 361.5t245 252.5t372 93q236 0 407 -113l90 113h150zM416 696q0 -193 47 -348l618 789q-100 202 -288 202q-96 0 -170 -52.5
t-118 -143t-66.5 -204t-22.5 -243.5zM1169 696q0 190 -45 332l-632 -756q48 -109 123.5 -170t177.5 -61q96 0 169.5 52.5t118 144.5t66.5 207.5t22 250.5z" />
    <glyph glyph-name="Ugrave" unicode="&#xd9;" horiz-adv-x="1480" 
d="M739 1853l144 -327h-64l-399 327h319zM219 461v663q0 179 -86 230v26h467v-26q-86 -54 -86 -230v-641q0 -399 344 -399q154 0 236.5 98t79.5 303l-7 559q-2 231 -170 310v26h430v-26q-154 -71 -161 -310l-19 -571q-16 -491 -473 -491q-99 0 -179.5 14t-151.5 48
t-119.5 88t-76.5 137t-28 192z" />
    <glyph glyph-name="Uacute" unicode="&#xda;" horiz-adv-x="1480" 
d="M1153 1853l-399 -327h-64l144 327h319zM219 461v663q0 179 -86 230v26h467v-26q-86 -54 -86 -230v-641q0 -399 344 -399q154 0 236.5 98t79.5 303l-7 559q-2 231 -170 310v26h430v-26q-154 -71 -161 -310l-19 -571q-16 -491 -473 -491q-99 0 -179.5 14t-151.5 48
t-119.5 88t-76.5 137t-28 192z" />
    <glyph glyph-name="Ucircumflex" unicode="&#xdb;" horiz-adv-x="1480" 
d="M815 1640l-291 -116l-18 20l295 309h26l295 -309l-18 -20zM997 1380h430v-26q-154 -71 -161 -310l-19 -571q-16 -491 -473 -491q-99 0 -179.5 14t-151.5 48t-119.5 88t-76.5 137t-28 192v663q0 179 -86 230v26h467v-26q-86 -54 -86 -230v-641q0 -399 344 -399
q154 0 236.5 98t79.5 303l-7 559q-2 231 -170 310v26z" />
    <glyph glyph-name="Udieresis" unicode="&#xdc;" horiz-adv-x="1480" 
d="M596 1550q-57 0 -97 41.5t-40 98.5t40 98t97 41t98 -41t41 -98t-41 -98.5t-98 -41.5zM1042 1550q-58 0 -98.5 41.5t-40.5 98.5t40.5 98t98.5 41q56 0 97 -41t41 -98t-41 -98.5t-97 -41.5zM219 461v663q0 179 -86 230v26h467v-26q-86 -54 -86 -230v-641q0 -399 344 -399
q154 0 236.5 98t79.5 303l-7 559q-2 231 -170 310v26h430v-26q-154 -71 -161 -310l-19 -571q-16 -491 -473 -491q-99 0 -179.5 14t-151.5 48t-119.5 88t-76.5 137t-28 192z" />
    <glyph glyph-name="Yacute" unicode="&#xdd;" horiz-adv-x="1380" 
d="M1098 1853l-400 -327h-63l143 327h320zM942 1380h420v-26q-82 -30 -163 -115.5t-148 -210.5l-201 -389v-383q0 -175 86 -229v-27h-469v27q44 25 66 78t22 151v307l-285 508q-65 118 -123 188t-120 95v26h581v-26q-51 -31 -62.5 -88t3.5 -108.5t43 -102.5l215 -381
l168 354q48 98 40 191t-73 135v26z" />
    <glyph glyph-name="Thorn" unicode="&#xde;" horiz-adv-x="1290" 
d="M659 1096q271 0 413 -102.5t142 -295.5q0 -190 -134.5 -295.5t-385.5 -111.5q-55 0 -82 4l-2 27q149 34 215 123.5t66 256.5q0 330 -313 330h-58v-776q0 -176 86 -229v-27h-467v27q86 50 86 229v868q0 180 -86 230v26h467v-26q-86 -53 -86 -230v-28h139z" />
    <glyph glyph-name="germandbls" unicode="&#xdf;" horiz-adv-x="1411" 
d="M881 930q0 -33 25.5 -66.5t66 -63.5t90 -63t99 -72.5t90 -83.5t66 -104.5t25.5 -128.5q0 -159 -113.5 -263.5t-295.5 -104.5q-150 0 -237 59.5t-87 155.5q0 60 41.5 101.5t96.5 41.5q61 0 101 -39.5t40 -95.5q0 -31 -15.5 -61.5t-39.5 -43.5q12 -28 47 -45.5t84 -17.5
q81 0 129.5 54t48.5 142q0 55 -24.5 102t-63.5 82t-86 67.5t-94.5 65.5t-86.5 69.5t-63.5 86.5t-24.5 109q0 49 22.5 94.5t54.5 82t64 74t54.5 87.5t22.5 106q0 100 -54.5 167t-150.5 67q-217 0 -217 -348v-1143h-377v27q86 51 86 229v850q0 207 133.5 324.5t366.5 117.5
q203 0 323.5 -75.5t120.5 -198.5q0 -43 -20 -80.5t-49.5 -62.5t-64.5 -51t-64.5 -46.5t-49.5 -47.5t-20 -56z" />
    <glyph glyph-name="agrave" unicode="&#xe0;" 
d="M655 1186h-63l-399 327h319zM1036 102h35v-30q-47 -44 -94.5 -65t-122.5 -21q-64 0 -115.5 33.5t-74.5 103.5q-51 -62 -130 -100.5t-176 -38.5q-129 0 -206.5 74t-77.5 196q0 106 61.5 181.5t162 111t228.5 35.5q58 0 119 -7v132q0 79 -5.5 128t-22 90.5t-49.5 60
t-85 18.5q-107 0 -155 -70q59 -40 59 -113q0 -59 -37.5 -99t-97.5 -40q-58 0 -97.5 40t-39.5 99q0 73 52 129t138 84.5t191 28.5q87 0 155 -12.5t114 -38t77.5 -58.5t48.5 -78.5t24 -93.5t7 -108v-459q0 -62 26.5 -87.5t87.5 -25.5zM504 115q81 0 145 71q-4 28 -4 50v278
q-5 0 -15.5 1t-15.5 1q-127 0 -193.5 -62.5t-66.5 -168.5q0 -75 40.5 -122.5t109.5 -47.5z" />
    <glyph glyph-name="aacute" unicode="&#xe1;" 
d="M862 1513l-399 -327h-64l144 327h319zM1036 102h35v-30q-47 -44 -94.5 -65t-122.5 -21q-64 0 -115.5 33.5t-74.5 103.5q-51 -62 -130 -100.5t-176 -38.5q-129 0 -206.5 74t-77.5 196q0 106 61.5 181.5t162 111t228.5 35.5q58 0 119 -7v132q0 79 -5.5 128t-22 90.5
t-49.5 60t-85 18.5q-107 0 -155 -70q59 -40 59 -113q0 -59 -37.5 -99t-97.5 -40q-58 0 -97.5 40t-39.5 99q0 73 52 129t138 84.5t191 28.5q87 0 155 -12.5t114 -38t77.5 -58.5t48.5 -78.5t24 -93.5t7 -108v-459q0 -62 26.5 -87.5t87.5 -25.5zM504 115q81 0 145 71
q-4 28 -4 50v278q-5 0 -15.5 1t-15.5 1q-127 0 -193.5 -62.5t-66.5 -168.5q0 -75 40.5 -122.5t109.5 -47.5z" />
    <glyph glyph-name="acircumflex" unicode="&#xe2;" 
d="M535 1300l-291 -116l-19 20l295 309h27l295 -309l-19 -20zM1036 102h35v-30q-47 -44 -94.5 -65t-122.5 -21q-64 0 -115.5 33.5t-74.5 103.5q-51 -62 -130 -100.5t-176 -38.5q-129 0 -206.5 74t-77.5 196q0 106 61.5 181.5t162 111t228.5 35.5q58 0 119 -7v132
q0 79 -5.5 128t-22 90.5t-49.5 60t-85 18.5q-107 0 -155 -70q59 -40 59 -113q0 -59 -37.5 -99t-97.5 -40q-58 0 -97.5 40t-39.5 99q0 73 52 129t138 84.5t191 28.5q87 0 155 -12.5t114 -38t77.5 -58.5t48.5 -78.5t24 -93.5t7 -108v-459q0 -62 26.5 -87.5t87.5 -25.5z
M504 115q81 0 145 71q-4 28 -4 50v278q-5 0 -15.5 1t-15.5 1q-127 0 -193.5 -62.5t-66.5 -168.5q0 -75 40.5 -122.5t109.5 -47.5z" />
    <glyph glyph-name="atilde" unicode="&#xe3;" 
d="M246 1210h-29q-4 20 -4 58q0 93 46.5 158t127.5 65q44 0 89.5 -19t77.5 -42.5t72.5 -42.5t75.5 -19q53 0 82.5 36.5t34.5 90.5h29q4 -20 4 -57q0 -97 -43 -160.5t-131 -63.5q-44 0 -89.5 19t-78 42.5t-73 42.5t-75.5 19q-54 0 -82.5 -35.5t-33.5 -91.5zM1036 102h35v-30
q-47 -44 -94.5 -65t-122.5 -21q-64 0 -115.5 33.5t-74.5 103.5q-51 -62 -130 -100.5t-176 -38.5q-129 0 -206.5 74t-77.5 196q0 106 61.5 181.5t162 111t228.5 35.5q58 0 119 -7v132q0 79 -5.5 128t-22 90.5t-49.5 60t-85 18.5q-107 0 -155 -70q59 -40 59 -113
q0 -59 -37.5 -99t-97.5 -40q-58 0 -97.5 40t-39.5 99q0 73 52 129t138 84.5t191 28.5q87 0 155 -12.5t114 -38t77.5 -58.5t48.5 -78.5t24 -93.5t7 -108v-459q0 -62 26.5 -87.5t87.5 -25.5zM504 115q81 0 145 71q-4 28 -4 50v278q-5 0 -15.5 1t-15.5 1q-127 0 -193.5 -62.5
t-66.5 -168.5q0 -75 40.5 -122.5t109.5 -47.5z" />
    <glyph glyph-name="adieresis" unicode="&#xe4;" 
d="M311 1210q-57 0 -98 41.5t-41 98.5t41 98t98 41t97.5 -41t40.5 -98t-40.5 -98.5t-97.5 -41.5zM758 1210q-58 0 -99 41.5t-41 98.5t41 98t99 41q56 0 96.5 -41t40.5 -98t-40.5 -98.5t-96.5 -41.5zM1036 102h35v-30q-47 -44 -94.5 -65t-122.5 -21q-64 0 -115.5 33.5
t-74.5 103.5q-51 -62 -130 -100.5t-176 -38.5q-129 0 -206.5 74t-77.5 196q0 106 61.5 181.5t162 111t228.5 35.5q58 0 119 -7v132q0 79 -5.5 128t-22 90.5t-49.5 60t-85 18.5q-107 0 -155 -70q59 -40 59 -113q0 -59 -37.5 -99t-97.5 -40q-58 0 -97.5 40t-39.5 99
q0 73 52 129t138 84.5t191 28.5q87 0 155 -12.5t114 -38t77.5 -58.5t48.5 -78.5t24 -93.5t7 -108v-459q0 -62 26.5 -87.5t87.5 -25.5zM504 115q81 0 145 71q-4 28 -4 50v278q-5 0 -15.5 1t-15.5 1q-127 0 -193.5 -62.5t-66.5 -168.5q0 -75 40.5 -122.5t109.5 -47.5z" />
    <glyph glyph-name="aring" unicode="&#xe5;" 
d="M535 1165q-76 0 -130.5 55t-54.5 130q0 76 54 130t131 54q75 0 129.5 -54t54.5 -130q0 -75 -54.5 -130t-129.5 -55zM535 1432q-34 0 -59 -24t-25 -58t25 -58t59 -24q33 0 57 24t24 58t-24 58t-57 24zM1036 102h35v-30q-47 -44 -94.5 -65t-122.5 -21q-64 0 -115.5 33.5
t-74.5 103.5q-51 -62 -130 -100.5t-176 -38.5q-129 0 -206.5 74t-77.5 196q0 106 61.5 181.5t162 111t228.5 35.5q58 0 119 -7v132q0 79 -5.5 128t-22 90.5t-49.5 60t-85 18.5q-107 0 -155 -70q59 -40 59 -113q0 -59 -37.5 -99t-97.5 -40q-58 0 -97.5 40t-39.5 99
q0 73 52 129t138 84.5t191 28.5q87 0 155 -12.5t114 -38t77.5 -58.5t48.5 -78.5t24 -93.5t7 -108v-459q0 -62 26.5 -87.5t87.5 -25.5zM504 115q81 0 145 71q-4 28 -4 50v278q-5 0 -15.5 1t-15.5 1q-127 0 -193.5 -62.5t-66.5 -168.5q0 -75 40.5 -122.5t109.5 -47.5z" />
    <glyph glyph-name="ae" unicode="&#xe6;" horiz-adv-x="1677" 
d="M1610 229q-82 -116 -201.5 -184t-255.5 -68q-131 0 -235.5 55.5t-167.5 157.5q-48 -85 -146 -145.5t-225 -60.5q-128 0 -206.5 74.5t-78.5 195.5q0 105 62 180.5t162.5 111.5t228.5 36q56 0 121 -7v132q0 79 -5.5 128t-22 90.5t-49.5 60t-85 18.5q-107 0 -158 -70
q62 -40 62 -113q0 -59 -38 -99t-100 -40q-57 0 -96 39.5t-39 99.5q0 73 52 129t138 84.5t191 28.5q220 0 332 -115q134 115 321 115q116 0 200 -34t133 -97t72 -144t23 -184v-49h-647q10 -210 105 -314t237 -104q78 0 158 32.5t139 82.5zM1171 999q-50 0 -89 -24.5
t-63.5 -63t-40 -91.5t-22 -105.5t-6.5 -108.5v-2l400 45q0 102 -16.5 177.5t-57.5 124t-105 48.5zM526 115q113 0 195 127q-55 119 -55 266v6q-10 2 -31 2q-126 0 -193 -62.5t-67 -168.5q0 -75 40.5 -122.5t110.5 -47.5z" />
    <glyph glyph-name="ccedilla" unicode="&#xe7;" horiz-adv-x="1089" 
d="M1032 229q-66 -101 -165 -168.5t-226 -78.5l-39 -97q87 -7 136.5 -51.5t49.5 -107.5q0 -84 -62.5 -132.5t-160.5 -48.5q-126 0 -211 56l15 49q56 -29 112 -29q47 0 78 24t31 66q0 48 -37.5 81t-116.5 40l94 150q-198 21 -325 163.5t-127 362.5q0 124 43 229t116.5 176
t172 110.5t208.5 39.5q189 0 294.5 -78t105.5 -188q0 -67 -44.5 -112.5t-109.5 -45.5t-108 44t-43 108q0 81 69 127q-43 81 -151 81q-71 0 -125.5 -36.5t-85 -96t-45.5 -125.5t-15 -135q0 -111 31 -201.5t83 -147t117 -86.5t136 -30t150 31.5t137 77.5z" />
    <glyph glyph-name="egrave" unicode="&#xe8;" 
d="M676 1186h-64l-399 327h319zM1024 252l18 -23q-82 -116 -203 -184t-259 -68q-220 0 -361 145t-141 386q0 248 146 401.5t368 153.5q118 0 205 -34t137.5 -96.5t74 -142.5t23.5 -180v-55h-670q6 -107 37.5 -189t81.5 -131t110.5 -73.5t129.5 -24.5q80 0 162.5 32.5
t140.5 82.5zM592 999q-62 0 -108.5 -36t-72 -95.5t-37.5 -125t-12 -136.5v-4l420 41q0 78 -10.5 141.5t-33 112.5t-59.5 75.5t-87 26.5z" />
    <glyph glyph-name="eacute" unicode="&#xe9;" 
d="M926 1513l-400 -327h-63l143 327h320zM1024 252l18 -23q-82 -116 -203 -184t-259 -68q-220 0 -361 145t-141 386q0 248 146 401.5t368 153.5q118 0 205 -34t137.5 -96.5t74 -142.5t23.5 -180v-55h-670q6 -107 37.5 -189t81.5 -131t110.5 -73.5t129.5 -24.5
q80 0 162.5 32.5t140.5 82.5zM592 999q-62 0 -108.5 -36t-72 -95.5t-37.5 -125t-12 -136.5v-4l420 41q0 78 -10.5 141.5t-33 112.5t-59.5 75.5t-87 26.5z" />
    <glyph glyph-name="ecircumflex" unicode="&#xea;" 
d="M575 1300l-290 -116l-19 20l295 309h29l293 -309l-17 -20zM1024 252l18 -23q-82 -116 -203 -184t-259 -68q-220 0 -361 145t-141 386q0 248 146 401.5t368 153.5q118 0 205 -34t137.5 -96.5t74 -142.5t23.5 -180v-55h-670q6 -107 37.5 -189t81.5 -131t110.5 -73.5
t129.5 -24.5q80 0 162.5 32.5t140.5 82.5zM592 999q-62 0 -108.5 -36t-72 -95.5t-37.5 -125t-12 -136.5v-4l420 41q0 78 -10.5 141.5t-33 112.5t-59.5 75.5t-87 26.5z" />
    <glyph glyph-name="edieresis" unicode="&#xeb;" 
d="M354 1210q-57 0 -98 41.5t-41 98.5t41 98t98 41t97.5 -41t40.5 -98t-40.5 -98.5t-97.5 -41.5zM801 1210q-58 0 -98.5 41.5t-40.5 98.5t40.5 98t98.5 41q56 0 96.5 -41t40.5 -98t-40.5 -98.5t-96.5 -41.5zM1024 252l18 -23q-82 -116 -203 -184t-259 -68q-220 0 -361 145
t-141 386q0 248 146 401.5t368 153.5q118 0 205 -34t137.5 -96.5t74 -142.5t23.5 -180v-55h-670q6 -107 37.5 -189t81.5 -131t110.5 -73.5t129.5 -24.5q80 0 162.5 32.5t140.5 82.5zM592 999q-62 0 -108.5 -36t-72 -95.5t-37.5 -125t-12 -136.5v-4l420 41q0 78 -10.5 141.5
t-33 112.5t-59.5 75.5t-87 26.5z" />
    <glyph glyph-name="igrave" unicode="&#xec;" horiz-adv-x="675" 
d="M303 1513l143 -327h-63l-399 327h319zM475 256q0 -173 94 -229v-27h-465v27q95 56 95 229v500q0 115 -90 166v26l366 113v-805z" />
    <glyph glyph-name="iacute" unicode="&#xed;" horiz-adv-x="675" 
d="M694 1513l-399 -327h-64l144 327h319zM475 256q0 -173 94 -229v-27h-465v27q95 56 95 229v500q0 115 -90 166v26l366 113v-805z" />
    <glyph glyph-name="icircumflex" unicode="&#xee;" horiz-adv-x="675" 
d="M352 1513l295 -309l-18 -20l-291 116l-291 -116l-16 20l293 309h28zM475 256q0 -173 94 -229v-27h-465v27q95 56 95 229v500q0 115 -90 166v26l366 113v-805z" />
    <glyph glyph-name="idieresis" unicode="&#xef;" horiz-adv-x="675" 
d="M117 1210q-58 0 -99 41.5t-41 98.5t41 98t99 41q56 0 96.5 -41t40.5 -98t-40.5 -98.5t-96.5 -41.5zM561 1210q-57 0 -98 41.5t-41 98.5t41 98t98 41t97 -41t40 -98t-40 -98.5t-97 -41.5zM475 256q0 -173 94 -229v-27h-465v27q95 56 95 229v500q0 115 -90 166v26l366 113
v-805z" />
    <glyph glyph-name="eth" unicode="&#xf0;" horiz-adv-x="1255" 
d="M809 1444q95 -63 168 -158t116.5 -203.5t65 -219.5t21.5 -220q0 -314 -152.5 -488.5t-409.5 -174.5q-239 0 -384.5 145.5t-145.5 376.5q0 118 37.5 220t107.5 178t175.5 119.5t234.5 43.5q121 0 191 -47q-63 218 -191 346l-209 -102l-22 38l186 105q-137 107 -317 113
l-7 26q69 14 146 14q180 0 323 -73l197 110v-84zM643 45q113 0 174.5 114.5t61.5 323.5q0 237 -67.5 375.5t-188.5 138.5q-59 0 -106 -36t-75 -97t-42.5 -135.5t-14.5 -155.5q0 -99 14.5 -189t43.5 -168t81 -124.5t119 -46.5z" />
    <glyph glyph-name="ntilde" unicode="&#xf1;" horiz-adv-x="1320" 
d="M344 1210q-4 20 -4 58q0 93 46.5 158t127.5 65q44 0 89.5 -19t77.5 -42.5t72.5 -42.5t75.5 -19q53 0 82.5 36.5t34.5 90.5h29q4 -20 4 -57q0 -97 -43.5 -160.5t-130.5 -63.5q-44 0 -89.5 19t-78 42.5t-73 42.5t-75.5 19q-54 0 -82.5 -35.5t-33.5 -91.5h-29zM467 256
q0 -176 88 -229v-27h-459v27q94 55 94 229v514q0 42 -11 75.5t-28.5 51.5t-29.5 26.5t-21 12.5v27l367 114v-223q83 102 188 154.5t205 52.5q151 0 212 -86.5t61 -255.5v-463q0 -171 94 -229v-27h-457v27q86 49 86 229v428q0 190 -174 190q-105 0 -215 -69v-549z" />
    <glyph glyph-name="ograve" unicode="&#xf2;" horiz-adv-x="1241" 
d="M578 1513l143 -327h-64l-399 327h320zM606 -20q-237 0 -382.5 145.5t-145.5 376.5q0 158 64 284t192.5 201.5t302.5 75.5q163 0 284 -72.5t182.5 -194.5t61.5 -276q0 -241 -156 -390.5t-403 -149.5zM631 45q113 0 175 114.5t62 323.5q0 237 -67.5 375.5t-188.5 138.5
q-79 0 -134.5 -63.5t-79 -156.5t-23.5 -204q0 -99 14 -189t43 -168t80.5 -124.5t118.5 -46.5z" />
    <glyph glyph-name="oacute" unicode="&#xf3;" horiz-adv-x="1241" 
d="M991 1513l-399 -327h-64l144 327h319zM606 -20q-237 0 -382.5 145.5t-145.5 376.5q0 158 64 284t192.5 201.5t302.5 75.5q163 0 284 -72.5t182.5 -194.5t61.5 -276q0 -241 -156 -390.5t-403 -149.5zM631 45q113 0 175 114.5t62 323.5q0 237 -67.5 375.5t-188.5 138.5
q-79 0 -134.5 -63.5t-79 -156.5t-23.5 -204q0 -99 14 -189t43 -168t80.5 -124.5t118.5 -46.5z" />
    <glyph glyph-name="ocircumflex" unicode="&#xf4;" horiz-adv-x="1241" 
d="M621 1300l-291 -116l-17 20l293 309h29l295 -309l-19 -20zM637 1063q163 0 284 -72.5t182.5 -194.5t61.5 -276q0 -241 -156 -390.5t-403 -149.5q-237 0 -382.5 145.5t-145.5 376.5q0 158 64 284t192.5 201.5t302.5 75.5zM631 45q113 0 175 114.5t62 323.5
q0 237 -67.5 375.5t-188.5 138.5q-79 0 -134.5 -63.5t-79 -156.5t-23.5 -204q0 -99 14 -189t43 -168t80.5 -124.5t118.5 -46.5z" />
    <glyph glyph-name="otilde" unicode="&#xf5;" horiz-adv-x="1241" 
d="M305 1210q-6 30 -6 58q0 93 47.5 158t128.5 65q44 0 89.5 -19t78 -42.5t73 -42.5t75.5 -19q52 0 81.5 36.5t34.5 90.5h27q6 -30 6 -57q0 -97 -44 -160.5t-132 -63.5q-43 0 -88 19t-77 42.5t-73 42.5t-77 19q-53 0 -82.5 -36t-34.5 -91h-27zM606 -20q-237 0 -382.5 145.5
t-145.5 376.5q0 158 64 284t192.5 201.5t302.5 75.5q163 0 284 -72.5t182.5 -194.5t61.5 -276q0 -241 -156 -390.5t-403 -149.5zM631 45q113 0 175 114.5t62 323.5q0 237 -67.5 375.5t-188.5 138.5q-79 0 -134.5 -63.5t-79 -156.5t-23.5 -204q0 -99 14 -189t43 -168
t80.5 -124.5t118.5 -46.5z" />
    <glyph glyph-name="odieresis" unicode="&#xf6;" horiz-adv-x="1241" 
d="M399 1210q-58 0 -98.5 41.5t-40.5 98.5t40.5 98t98.5 41q56 0 97 -41t41 -98t-41 -98.5t-97 -41.5zM844 1210q-57 0 -98 41.5t-41 98.5t41 98t98 41t97 -41t40 -98t-40 -98.5t-97 -41.5zM606 -20q-237 0 -382.5 145.5t-145.5 376.5q0 158 64 284t192.5 201.5t302.5 75.5
q163 0 284 -72.5t182.5 -194.5t61.5 -276q0 -241 -156 -390.5t-403 -149.5zM631 45q113 0 175 114.5t62 323.5q0 237 -67.5 375.5t-188.5 138.5q-79 0 -134.5 -63.5t-79 -156.5t-23.5 -204q0 -99 14 -189t43 -168t80.5 -124.5t118.5 -46.5z" />
    <glyph glyph-name="divide" unicode="&#xf7;" horiz-adv-x="1245" 
d="M610 1200q60 0 102 -41.5t42 -101.5q0 -57 -42 -98t-102 -41q-57 0 -98 41t-41 98q0 60 41 101.5t98 41.5zM113 748h1022v-103h-1022v103zM610 479q60 0 102 -41.5t42 -101.5q0 -57 -42 -98t-102 -41q-57 0 -98 41t-41 98q0 60 41 101.5t98 41.5z" />
    <glyph glyph-name="oslash" unicode="&#xf8;" horiz-adv-x="1243" 
d="M1024 907q141 -147 141 -387q0 -241 -156 -390.5t-403 -149.5q-203 0 -340 106l-102 -109l-41 37l96 113q-141 144 -141 375q0 158 64 284t192.5 201.5t302.5 75.5q185 0 313 -92l74 86h137zM375 573q0 -134 22 -241l420 485q-67 180 -205 180q-79 0 -134.5 -63.5
t-79 -156.5t-23.5 -204zM631 45q113 0 175 114.5t62 323.5q0 124 -22 234l-428 -465q71 -207 213 -207z" />
    <glyph glyph-name="ugrave" unicode="&#xf9;" horiz-adv-x="1306" 
d="M610 1513l144 -327h-64l-399 327h319zM840 770q0 44 -11.5 82t-28 60t-29.5 34t-21 15v26l366 90v-788q0 -47 11.5 -86.5t28.5 -62t29.5 -35t20.5 -15.5v-27l-366 -81v204q-76 -99 -171 -152.5t-194 -53.5q-287 0 -287 339v451q0 57 -21 103.5t-39 64.5t-30 23v26l367 90
v-721q0 -190 166 -190q93 0 209 67v537z" />
    <glyph glyph-name="uacute" unicode="&#xfa;" horiz-adv-x="1306" 
d="M1024 1513l-399 -327h-64l144 327h319zM840 770q0 44 -11.5 82t-28 60t-29.5 34t-21 15v26l366 90v-788q0 -47 11.5 -86.5t28.5 -62t29.5 -35t20.5 -15.5v-27l-366 -81v204q-76 -99 -171 -152.5t-194 -53.5q-287 0 -287 339v451q0 57 -21 103.5t-39 64.5t-30 23v26
l367 90v-721q0 -190 166 -190q93 0 209 67v537z" />
    <glyph glyph-name="ucircumflex" unicode="&#xfb;" horiz-adv-x="1306" 
d="M653 1300l-291 -116l-18 20l295 309h29l293 -309l-17 -20zM1116 289q0 -47 11.5 -86.5t28.5 -62t29.5 -35t20.5 -15.5v-27l-366 -81v204q-76 -99 -171 -152.5t-194 -53.5q-287 0 -287 339v451q0 57 -21 103.5t-39 64.5t-30 23v26l367 90v-721q0 -190 166 -190
q93 0 209 67v537q0 44 -11.5 82t-28 60t-29.5 34t-21 15v26l366 90v-788z" />
    <glyph glyph-name="udieresis" unicode="&#xfc;" horiz-adv-x="1306" 
d="M432 1210q-58 0 -98.5 41.5t-40.5 98.5t40.5 98t98.5 41q56 0 96.5 -41t40.5 -98t-40.5 -98.5t-96.5 -41.5zM877 1210q-57 0 -98.5 41.5t-41.5 98.5t41.5 98t98.5 41q56 0 96.5 -41t40.5 -98t-40.5 -98.5t-96.5 -41.5zM840 770q0 44 -11.5 82t-28 60t-29.5 34t-21 15v26
l366 90v-788q0 -47 11.5 -86.5t28.5 -62t29.5 -35t20.5 -15.5v-27l-366 -81v204q-76 -99 -171 -152.5t-194 -53.5q-287 0 -287 339v451q0 57 -21 103.5t-39 64.5t-30 23v26l367 90v-721q0 -190 166 -190q93 0 209 67v537z" />
    <glyph glyph-name="yacute" unicode="&#xfd;" horiz-adv-x="1196" 
d="M995 1513l-399 -327h-64l144 327h319zM252 692q-120 259 -227 322v26h518v-26q-37 -26 -51 -67.5t-4.5 -94t26.5 -100t45 -107.5l158 -381l125 365q28 79 36.5 151t-9 136.5t-66.5 97.5v26h377v-26q-137 -71 -228 -309l-260 -650q-19 -67 -35.5 -120t-41 -115.5t-49 -109
t-57.5 -91.5t-69.5 -74t-82.5 -47t-97 -18q-130 0 -205 102l-4 27q60 6 115 20t116.5 41.5t114 66.5t101 99t82.5 135z" />
    <glyph glyph-name="thorn" unicode="&#xfe;" horiz-adv-x="1284" 
d="M805 1063q97 0 175.5 -43t127 -115t74.5 -163t26 -191q0 -260 -133.5 -415.5t-367.5 -155.5q-147 0 -232 61v-289q0 -173 100 -229v-27h-471v27q95 56 95 229v1489q0 40 -11 73t-28.5 52t-29 28.5t-21.5 14.5v27l366 112v-688q20 31 46.5 60.5t68 64.5t98 56.5
t117.5 21.5zM676 43q48 0 90 22.5t78 70t57 133.5t21 202q0 81 -15 152t-46 130t-84.5 93.5t-123.5 34.5q-102 0 -178 -72v-545q17 -110 69 -165.5t132 -55.5z" />
    <glyph glyph-name="ydieresis" unicode="&#xff;" horiz-adv-x="1196" 
d="M446 1210q-57 0 -98 41.5t-41 98.5t41 98t98 41q56 0 97 -41t41 -98t-41 -98.5t-97 -41.5zM891 1210q-57 0 -98 41.5t-41 98.5t41 98t98 41t97 -41t40 -98t-40 -98.5t-97 -41.5zM252 692q-120 259 -227 322v26h518v-26q-37 -26 -51 -67.5t-4.5 -94t26.5 -100t45 -107.5
l158 -381l125 365q28 79 36.5 151t-9 136.5t-66.5 97.5v26h377v-26q-137 -71 -228 -309l-260 -650q-19 -67 -35.5 -120t-41 -115.5t-49 -109t-57.5 -91.5t-69.5 -74t-82.5 -47t-97 -18q-130 0 -205 102l-4 27q60 6 115 20t116.5 41.5t114 66.5t101 99t82.5 135z" />
    <glyph glyph-name="Amacron" unicode="&#x100;" horiz-adv-x="1476" 
d="M1073 1739v-99h-629v99h629zM1225 352q56 -132 108.5 -206.5t122.5 -118.5v-27h-567v27q64 20 76 100t-43 221l-23 58h-510l-24 -62q-42 -117 -22.5 -196t93.5 -121v-27h-422v27q69 32 138 113t120 198l471 1065h37zM414 469h458l-235 559z" />
    <glyph glyph-name="amacron" unicode="&#x101;" 
d="M848 1399v-99h-629v99h629zM1036 102h35v-30q-47 -44 -94.5 -65t-122.5 -21q-64 0 -115.5 33.5t-74.5 103.5q-51 -62 -130 -100.5t-176 -38.5q-129 0 -206.5 74t-77.5 196q0 106 61.5 181.5t162 111t228.5 35.5q58 0 119 -7v132q0 79 -5.5 128t-22 90.5t-49.5 60
t-85 18.5q-107 0 -155 -70q59 -40 59 -113q0 -59 -37.5 -99t-97.5 -40q-58 0 -97.5 40t-39.5 99q0 73 52 129t138 84.5t191 28.5q87 0 155 -12.5t114 -38t77.5 -58.5t48.5 -78.5t24 -93.5t7 -108v-459q0 -62 26.5 -87.5t87.5 -25.5zM504 115q81 0 145 71q-4 28 -4 50v278
q-5 0 -15.5 1t-15.5 1q-127 0 -193.5 -62.5t-66.5 -168.5q0 -75 40.5 -122.5t109.5 -47.5z" />
    <glyph glyph-name="Abreve" unicode="&#x102;" horiz-adv-x="1476" 
d="M756 1518q-135 0 -202 81t-67 213q0 27 2 41h27q20 -82 84 -123.5t156 -41.5q93 0 157.5 41.5t87.5 123.5h29q2 -14 2 -41q0 -131 -71 -212.5t-205 -81.5zM1225 352q56 -132 108.5 -206.5t122.5 -118.5v-27h-567v27q64 20 76 100t-43 221l-23 58h-510l-24 -62
q-42 -117 -22.5 -196t93.5 -121v-27h-422v27q69 32 138 113t120 198l471 1065h37zM414 469h458l-235 559z" />
    <glyph glyph-name="abreve" unicode="&#x103;" 
d="M537 1178q-136 0 -203.5 81.5t-67.5 213.5q0 26 2 40h29q20 -82 83.5 -123.5t156.5 -41.5q91 0 155.5 41.5t87.5 123.5h29q2 -14 2 -40q0 -131 -70.5 -213t-203.5 -82zM1036 102h35v-30q-47 -44 -94.5 -65t-122.5 -21q-64 0 -115.5 33.5t-74.5 103.5q-51 -62 -130 -100.5
t-176 -38.5q-129 0 -206.5 74t-77.5 196q0 106 61.5 181.5t162 111t228.5 35.5q58 0 119 -7v132q0 79 -5.5 128t-22 90.5t-49.5 60t-85 18.5q-107 0 -155 -70q59 -40 59 -113q0 -59 -37.5 -99t-97.5 -40q-58 0 -97.5 40t-39.5 99q0 73 52 129t138 84.5t191 28.5
q87 0 155 -12.5t114 -38t77.5 -58.5t48.5 -78.5t24 -93.5t7 -108v-459q0 -62 26.5 -87.5t87.5 -25.5zM504 115q81 0 145 71q-4 28 -4 50v278q-5 0 -15.5 1t-15.5 1q-127 0 -193.5 -62.5t-66.5 -168.5q0 -75 40.5 -122.5t109.5 -47.5z" />
    <glyph glyph-name="Aogonek" unicode="&#x104;" horiz-adv-x="1476" 
d="M1245 0q-54 -36 -87.5 -92t-33.5 -115q0 -66 42 -102.5t106 -36.5q75 0 151 39l13 -25q-43 -51 -119.5 -87t-161.5 -36q-99 0 -162 50t-63 141q0 87 69.5 159t167.5 105h-278v27q64 20 76 100t-43 221l-23 58h-510l-24 -62q-42 -117 -22.5 -196t93.5 -121v-27h-422v27
q69 32 138 113t120 198l471 1065h37l445 -1051q56 -132 108.5 -206.5t122.5 -118.5v-27h-211zM414 469h458l-235 559z" />
    <glyph glyph-name="aogonek" unicode="&#x105;" 
d="M1081 -307l15 -25q-45 -51 -122 -87t-161 -36q-99 0 -162 50t-63 141q0 82 63 151t154 105q-104 24 -141 131q-51 -62 -130 -100.5t-176 -38.5q-129 0 -206.5 74t-77.5 196q0 106 61.5 181.5t162 111t228.5 35.5q58 0 119 -7v132q0 79 -5.5 128t-22 90.5t-49.5 60
t-85 18.5q-107 0 -155 -70q59 -40 59 -113q0 -59 -37.5 -99t-97.5 -40q-58 0 -97.5 40t-39.5 99q0 73 52 129t138 84.5t191 28.5q87 0 155 -12.5t114 -38t77.5 -58.5t48.5 -78.5t24 -93.5t7 -108v-459q0 -62 26.5 -87.5t87.5 -25.5h35v-30q-41 -39 -81.5 -59.5t-102.5 -24.5
q-47 -38 -76 -89.5t-29 -105.5q0 -66 42 -102.5t106 -36.5q79 0 151 39zM504 115q81 0 145 71q-4 28 -4 50v278q-5 0 -15.5 1t-15.5 1q-127 0 -193.5 -62.5t-66.5 -168.5q0 -75 40.5 -122.5t109.5 -47.5z" />
    <glyph glyph-name="Cacute" unicode="&#x106;" horiz-adv-x="1370" 
d="M1145 1853l-400 -327h-63l143 327h320zM834 1401q243 0 452 -107v-362h-26q-60 188 -167.5 296.5t-258.5 108.5q-185 0 -300 -168t-118 -479q3 -315 124.5 -483t319.5 -168q157 0 252.5 102t151.5 295h28v-356q-167 -105 -454 -105q-156 0 -290.5 47t-236.5 135.5
t-160.5 225.5t-58.5 307q0 165 57.5 300t158 224.5t236 138t290.5 48.5z" />
    <glyph glyph-name="cacute" unicode="&#x107;" horiz-adv-x="1089" 
d="M926 1513l-400 -327h-63l143 327h320zM590 -20q-219 0 -365.5 146.5t-146.5 381.5q0 124 43 229t116.5 176t172 110.5t208.5 39.5q189 0 294.5 -78t105.5 -188q0 -67 -44.5 -112.5t-109.5 -45.5t-108 44t-43 108q0 81 69 127q-43 81 -151 81q-71 0 -125.5 -36.5t-85 -96
t-45.5 -125.5t-15 -135q0 -111 31 -201.5t83 -147t117 -86.5t136 -30t150 31.5t137 77.5l18 -21q-72 -111 -184 -180t-258 -69z" />
    <glyph glyph-name="Ccircumflex" unicode="&#x108;" horiz-adv-x="1370" 
d="M784 1640l-290 -116l-19 20l295 309h27l295 -309l-19 -20zM1264 436h28v-356q-167 -105 -454 -105q-156 0 -290.5 47t-236.5 135.5t-160.5 225.5t-58.5 307q0 165 57.5 300t158 224.5t236 138t290.5 48.5q243 0 452 -107v-362h-26q-60 188 -167.5 296.5t-258.5 108.5
q-185 0 -300 -168t-118 -479q3 -315 124.5 -483t319.5 -168q157 0 252.5 102t151.5 295z" />
    <glyph glyph-name="ccircumflex" unicode="&#x109;" horiz-adv-x="1089" 
d="M578 1300l-291 -116l-19 20l295 309h29l293 -309l-19 -20zM1014 250l18 -21q-72 -111 -184 -180t-258 -69q-219 0 -365.5 146.5t-146.5 381.5q0 124 43 229t116.5 176t172 110.5t208.5 39.5q189 0 294.5 -78t105.5 -188q0 -67 -44.5 -112.5t-109.5 -45.5t-108 44t-43 108
q0 81 69 127q-43 81 -151 81q-71 0 -125.5 -36.5t-85 -96t-45.5 -125.5t-15 -135q0 -111 31 -201.5t83 -147t117 -86.5t136 -30t150 31.5t137 77.5z" />
    <glyph glyph-name="Cdotaccent" unicode="&#x10a;" horiz-adv-x="1370" 
d="M778 1542q-61 0 -104 43t-43 105t42.5 104.5t104.5 42.5t105 -43t43 -104q0 -62 -43 -105t-105 -43zM834 1401q243 0 452 -107v-362h-26q-60 188 -167.5 296.5t-258.5 108.5q-185 0 -300 -168t-118 -479q3 -315 124.5 -483t319.5 -168q157 0 252.5 102t151.5 295h28v-356
q-167 -105 -454 -105q-156 0 -290.5 47t-236.5 135.5t-160.5 225.5t-58.5 307q0 165 57.5 300t158 224.5t236 138t290.5 48.5z" />
    <glyph glyph-name="cdotaccent" unicode="&#x10b;" horiz-adv-x="1089" 
d="M578 1202q-62 0 -105 43t-43 105q0 61 43 104t105 43q60 0 103.5 -43t43.5 -104t-43.5 -104.5t-103.5 -43.5zM590 -20q-219 0 -365.5 146.5t-146.5 381.5q0 124 43 229t116.5 176t172 110.5t208.5 39.5q189 0 294.5 -78t105.5 -188q0 -67 -44.5 -112.5t-109.5 -45.5
t-108 44t-43 108q0 81 69 127q-43 81 -151 81q-71 0 -125.5 -36.5t-85 -96t-45.5 -125.5t-15 -135q0 -111 31 -201.5t83 -147t117 -86.5t136 -30t150 31.5t137 77.5l18 -21q-72 -111 -184 -180t-258 -69z" />
    <glyph glyph-name="Ccaron" unicode="&#x10c;" horiz-adv-x="1370" 
d="M805 1524h-29l-293 311l17 18l291 -116l290 116l19 -18zM1264 436h28v-356q-167 -105 -454 -105q-156 0 -290.5 47t-236.5 135.5t-160.5 225.5t-58.5 307q0 165 57.5 300t158 224.5t236 138t290.5 48.5q243 0 452 -107v-362h-26q-60 188 -167.5 296.5t-258.5 108.5
q-185 0 -300 -168t-118 -479q3 -315 124.5 -483t319.5 -168q157 0 252.5 102t151.5 295z" />
    <glyph glyph-name="ccaron" unicode="&#x10d;" horiz-adv-x="1089" 
d="M592 1184h-29l-295 311l19 18l291 -116l288 116l19 -18zM1014 250l18 -21q-72 -111 -184 -180t-258 -69q-219 0 -365.5 146.5t-146.5 381.5q0 124 43 229t116.5 176t172 110.5t208.5 39.5q189 0 294.5 -78t105.5 -188q0 -67 -44.5 -112.5t-109.5 -45.5t-108 44t-43 108
q0 81 69 127q-43 81 -151 81q-71 0 -125.5 -36.5t-85 -96t-45.5 -125.5t-15 -135q0 -111 31 -201.5t83 -147t117 -86.5t136 -30t150 31.5t137 77.5z" />
    <glyph glyph-name="Dcaron" unicode="&#x10e;" horiz-adv-x="1525" 
d="M752 1524h-29l-295 311l18 18l291 -116l289 116l18 -18zM645 1380q391 0 590 -180t199 -506q0 -154 -49.5 -280t-146.5 -219t-250 -144t-351 -51h-184h-314v27q86 51 86 229v868q0 179 -86 230v26h381h125zM686 61q135 0 233.5 81.5t147.5 220.5t49 319q0 109 -18.5 204
t-57.5 175t-96 136.5t-138.5 88t-180.5 31.5h-105v-1073q0 -99 39 -141t115 -42h12z" />
    <glyph glyph-name="dcaron" unicode="&#x10f;" horiz-adv-x="1515" 
d="M1382 1561q67 0 109.5 -47.5t42.5 -120.5q0 -109 -79 -197t-193 -135l-13 20q52 32 90.5 83t38.5 112h-16q-54 3 -89.5 42t-35.5 97q0 59 41 102.5t104 43.5zM1108 289q0 -44 12 -83t28.5 -62.5t29.5 -37t20 -16.5v-27l-367 -81v196q-31 -46 -74 -87.5t-114 -76
t-145 -34.5q-128 0 -223 67t-143 180.5t-48 257.5q0 262 137 419t371 157q148 0 239 -66v252q0 40 -11.5 73t-29.5 52t-31 29t-24 14v27l373 106v-1259zM831 227v547q-11 111 -68.5 167t-137.5 56q-50 0 -93 -22.5t-79 -71t-57 -134.5t-21 -202q0 -185 69 -295t199 -110
q98 0 188 65z" />
    <glyph glyph-name="Dcroat" unicode="&#x110;" horiz-adv-x="1525" 
d="M645 1380q391 0 590 -180t199 -506q0 -154 -49.5 -280t-146.5 -219t-250 -144t-351 -51h-184h-314v27q86 51 86 229v420l-172 2v43l172 4v399q0 179 -86 230v26h381h125zM688 61q133 0 231 82t147.5 221.5t49.5 317.5q0 109 -18.5 204t-57.5 175t-96 136.5t-138.5 88
t-180.5 31.5h-105v-586l301 6v-71l-301 4v-426q0 -99 39 -141t115 -42h14z" />
    <glyph glyph-name="dcroat" unicode="&#x111;" horiz-adv-x="1298" 
d="M1247 1190h-139v-901q0 -44 12 -83t28.5 -62.5t29.5 -37t20 -16.5v-27l-367 -81v196q-31 -46 -74 -87.5t-114 -76t-145 -34.5q-128 0 -223 67t-143 180.5t-48 257.5q0 262 137 419t371 157q148 0 239 -66v195h-243v61l243 9q-2 37 -14 67t-29 47.5t-30 27t-23 13.5v27
l373 106v-276l139 4v-86zM831 227v547q-11 111 -68.5 167t-137.5 56q-50 0 -93 -22.5t-79 -71t-57 -134.5t-21 -202q0 -185 69 -295t199 -110q98 0 188 65z" />
    <glyph glyph-name="Emacron" unicode="&#x112;" horiz-adv-x="1220" 
d="M969 1739v-99h-629v99h629zM1128 352h29v-352h-729h-289v27q86 51 86 229v868q0 179 -86 230v26h381h592v-340h-27q-113 277 -397 277h-168v-594l137 12q91 7 145.5 59t90.5 142h25v-461h-25q-39 87 -93 137.5t-145 57.5l-135 10v-434q0 -96 39.5 -139.5t124.5 -43.5h53
q288 0 391 289z" />
    <glyph glyph-name="emacron" unicode="&#x113;" 
d="M891 1399v-99h-629v99h629zM1024 252l18 -23q-82 -116 -203 -184t-259 -68q-220 0 -361 145t-141 386q0 248 146 401.5t368 153.5q118 0 205 -34t137.5 -96.5t74 -142.5t23.5 -180v-55h-670q6 -107 37.5 -189t81.5 -131t110.5 -73.5t129.5 -24.5q80 0 162.5 32.5
t140.5 82.5zM592 999q-62 0 -108.5 -36t-72 -95.5t-37.5 -125t-12 -136.5v-4l420 41q0 78 -10.5 141.5t-33 112.5t-59.5 75.5t-87 26.5z" />
    <glyph glyph-name="Ebreve" unicode="&#x114;" horiz-adv-x="1220" 
d="M655 1518q-136 0 -203 81t-67 213q0 27 2 41h29q20 -82 83 -123.5t156 -41.5q92 0 158 41.5t88 123.5h27q2 -14 2 -41q0 -130 -71 -212t-204 -82zM1128 352h29v-352h-729h-289v27q86 51 86 229v868q0 179 -86 230v26h381h592v-340h-27q-113 277 -397 277h-168v-594
l137 12q91 7 145.5 59t90.5 142h25v-461h-25q-39 87 -93 137.5t-145 57.5l-135 10v-434q0 -96 39.5 -139.5t124.5 -43.5h53q288 0 391 289z" />
    <glyph glyph-name="ebreve" unicode="&#x115;" 
d="M573 1178q-136 0 -203 81t-67 214q0 26 2 40h29q20 -82 83 -123.5t156 -41.5q91 0 156.5 41.5t87.5 123.5h29q2 -14 2 -40q0 -130 -71 -212.5t-204 -82.5zM1024 252l18 -23q-82 -116 -203 -184t-259 -68q-220 0 -361 145t-141 386q0 248 146 401.5t368 153.5
q118 0 205 -34t137.5 -96.5t74 -142.5t23.5 -180v-55h-670q6 -107 37.5 -189t81.5 -131t110.5 -73.5t129.5 -24.5q80 0 162.5 32.5t140.5 82.5zM592 999q-62 0 -108.5 -36t-72 -95.5t-37.5 -125t-12 -136.5v-4l420 41q0 78 -10.5 141.5t-33 112.5t-59.5 75.5t-87 26.5z" />
    <glyph glyph-name="Edotaccent" unicode="&#x116;" horiz-adv-x="1220" 
d="M645 1542q-60 0 -103.5 43.5t-43.5 104.5t43.5 104t103.5 43q62 0 105 -43t43 -104q0 -62 -43.5 -105t-104.5 -43zM1128 352h29v-352h-729h-289v27q86 51 86 229v868q0 179 -86 230v26h381h592v-340h-27q-113 277 -397 277h-168v-594l137 12q91 7 145.5 59t90.5 142h25
v-461h-25q-39 87 -93 137.5t-145 57.5l-135 10v-434q0 -96 39.5 -139.5t124.5 -43.5h53q288 0 391 289z" />
    <glyph glyph-name="edotaccent" unicode="&#x117;" 
d="M578 1202q-62 0 -105 43t-43 105q0 61 43 104t105 43q60 0 103.5 -43t43.5 -104t-43.5 -104.5t-103.5 -43.5zM1024 252l18 -23q-82 -116 -203 -184t-259 -68q-220 0 -361 145t-141 386q0 248 146 401.5t368 153.5q118 0 205 -34t137.5 -96.5t74 -142.5t23.5 -180v-55
h-670q6 -107 37.5 -189t81.5 -131t110.5 -73.5t129.5 -24.5q80 0 162.5 32.5t140.5 82.5zM592 999q-62 0 -108.5 -36t-72 -95.5t-37.5 -125t-12 -136.5v-4l420 41q0 78 -10.5 141.5t-33 112.5t-59.5 75.5t-87 26.5z" />
    <glyph glyph-name="Eogonek" unicode="&#x118;" horiz-adv-x="1220" 
d="M938 0q-54 -36 -87.5 -92t-33.5 -115q0 -66 42 -102.5t106 -36.5q79 0 151 39l12 -25q-43 -51 -119.5 -87t-160.5 -36q-99 0 -162 50t-63 141q0 87 69.5 159t167.5 105h-432h-289v27q86 51 86 229v868q0 179 -86 230v26h381h592v-340h-27q-113 277 -397 277h-168v-594
l137 12q91 7 145.5 59t90.5 142h25v-461h-25q-39 87 -93 137.5t-145 57.5l-135 10v-434q0 -96 39.5 -139.5t124.5 -43.5h53q288 0 391 289h29v-352h-219z" />
    <glyph glyph-name="eogonek" unicode="&#x119;" 
d="M735 2q-54 -36 -88.5 -92.5t-34.5 -116.5q0 -66 42 -102.5t106 -36.5q79 0 151 39l13 -25q-43 -51 -119.5 -87t-161.5 -36q-99 0 -162 50t-63 141q0 74 52.5 137.5t131.5 103.5h-22q-220 0 -361 145t-141 386q0 248 146 401.5t368 153.5q118 0 205 -34t137.5 -96.5
t74 -142.5t23.5 -180v-55h-670q6 -107 37.5 -189t81.5 -131t110.5 -73.5t129.5 -24.5q80 0 162.5 32.5t140.5 82.5l18 -23q-58 -81 -137 -140.5t-170 -86.5zM592 999q-62 0 -108.5 -36t-72 -95.5t-37.5 -125t-12 -136.5v-4l420 41q0 78 -10.5 141.5t-33 112.5t-59.5 75.5
t-87 26.5z" />
    <glyph glyph-name="Ecaron" unicode="&#x11a;" horiz-adv-x="1220" 
d="M664 1524h-29l-293 311l16 18l291 -116l291 116l18 -18zM1128 352h29v-352h-729h-289v27q86 51 86 229v868q0 179 -86 230v26h381h592v-340h-27q-113 277 -397 277h-168v-594l137 12q91 7 145.5 59t90.5 142h25v-461h-25q-39 87 -93 137.5t-145 57.5l-135 10v-434
q0 -96 39.5 -139.5t124.5 -43.5h53q288 0 391 289z" />
    <glyph glyph-name="ecaron" unicode="&#x11b;" 
d="M590 1184h-27l-295 311l19 18l291 -116l288 116l19 -18zM1024 252l18 -23q-82 -116 -203 -184t-259 -68q-220 0 -361 145t-141 386q0 248 146 401.5t368 153.5q118 0 205 -34t137.5 -96.5t74 -142.5t23.5 -180v-55h-670q6 -107 37.5 -189t81.5 -131t110.5 -73.5
t129.5 -24.5q80 0 162.5 32.5t140.5 82.5zM592 999q-62 0 -108.5 -36t-72 -95.5t-37.5 -125t-12 -136.5v-4l420 41q0 78 -10.5 141.5t-33 112.5t-59.5 75.5t-87 26.5z" />
    <glyph glyph-name="Gcircumflex" unicode="&#x11c;" horiz-adv-x="1454" 
d="M809 1640l-291 -116l-16 20l293 309h28l295 -309l-18 -20zM940 694h457v-26q-86 -53 -86 -230v-153q0 -111 32 -176q-84 -55 -221 -94.5t-278 -39.5q-340 0 -546 189.5t-206 523.5q0 150 52.5 280.5t147 226.5t235 151t309.5 55q221 0 458 -98v-363h-26
q-74 195 -184.5 296t-252.5 101q-103 0 -184.5 -55.5t-130.5 -149t-74.5 -207.5t-25.5 -239q0 -183 49 -328t148 -232t235 -87q190 0 190 203v196q0 182 -98 230v26z" />
    <glyph glyph-name="gcircumflex" unicode="&#x11d;" horiz-adv-x="1142" 
d="M530 1300l-290 -116l-19 20l295 309h27l295 -309l-19 -20zM770 190q164 0 246 -52t82 -175q0 -84 -45.5 -168.5t-126 -152.5t-203 -111t-262.5 -43q-191 0 -301.5 67.5t-110.5 180.5q0 81 61.5 143.5t159.5 91.5q-106 52 -106 166q0 73 49.5 133t120.5 97
q-113 37 -180.5 120.5t-67.5 206.5q0 163 131.5 266t331.5 103q134 0 235 -49q30 87 84 138.5t119 51.5q55 0 88 -34.5t33 -82.5q0 -45 -29.5 -78.5t-77.5 -33.5q-36 0 -62.5 20.5t-39.5 53.5q-29 -2 -72 -60q148 -95 148 -272q0 -87 -37.5 -159t-101.5 -119t-148.5 -73
t-179.5 -26q-62 0 -121 12q-35 -44 -35 -86q0 -76 127 -76h291zM530 1006q-82 0 -130 -78t-48 -207q0 -160 52 -241t131 -81q75 0 124.5 78t49.5 219q0 126 -49.5 218t-129.5 92zM543 -416q157 0 262.5 69t105.5 179q0 62 -39 83.5t-118 21.5h-299q-74 0 -129 14
q-68 -54 -68 -154q0 -105 79 -159t206 -54z" />
    <glyph glyph-name="Gbreve" unicode="&#x11e;" horiz-adv-x="1454" 
d="M780 1518q-135 0 -201.5 81t-66.5 213q0 27 2 41h27q20 -82 84 -123.5t155 -41.5q93 0 158 41.5t88 123.5h29q2 -14 2 -41q0 -130 -71.5 -212t-205.5 -82zM940 694h457v-26q-86 -53 -86 -230v-153q0 -111 32 -176q-84 -55 -221 -94.5t-278 -39.5q-340 0 -546 189.5
t-206 523.5q0 150 52.5 280.5t147 226.5t235 151t309.5 55q221 0 458 -98v-363h-26q-74 195 -184.5 296t-252.5 101q-103 0 -184.5 -55.5t-130.5 -149t-74.5 -207.5t-25.5 -239q0 -183 49 -328t148 -232t235 -87q190 0 190 203v196q0 182 -98 230v26z" />
    <glyph glyph-name="gbreve" unicode="&#x11f;" horiz-adv-x="1142" 
d="M530 1178q-135 0 -201.5 81.5t-66.5 213.5q0 26 2 40h27q20 -82 83 -123.5t156 -41.5t158 41.5t88 123.5h29q2 -14 2 -40q0 -130 -72 -212.5t-205 -82.5zM770 190q164 0 246 -52t82 -175q0 -84 -45.5 -168.5t-126 -152.5t-203 -111t-262.5 -43q-191 0 -301.5 67.5
t-110.5 180.5q0 81 61.5 143.5t159.5 91.5q-106 52 -106 166q0 73 49.5 133t120.5 97q-113 37 -180.5 120.5t-67.5 206.5q0 163 131.5 266t331.5 103q134 0 235 -49q30 87 84 138.5t119 51.5q55 0 88 -34.5t33 -82.5q0 -45 -29.5 -78.5t-77.5 -33.5q-36 0 -62.5 20.5
t-39.5 53.5q-29 -2 -72 -60q148 -95 148 -272q0 -87 -37.5 -159t-101.5 -119t-148.5 -73t-179.5 -26q-62 0 -121 12q-35 -44 -35 -86q0 -76 127 -76h291zM530 1006q-82 0 -130 -78t-48 -207q0 -160 52 -241t131 -81q75 0 124.5 78t49.5 219q0 126 -49.5 218t-129.5 92z
M543 -416q157 0 262.5 69t105.5 179q0 62 -39 83.5t-118 21.5h-299q-74 0 -129 14q-68 -54 -68 -154q0 -105 79 -159t206 -54z" />
    <glyph glyph-name="Gdotaccent" unicode="&#x120;" horiz-adv-x="1454" 
d="M807 1542q-61 0 -104.5 43t-43.5 105q0 61 43 104t105 43q60 0 103.5 -43t43.5 -104t-43.5 -104.5t-103.5 -43.5zM940 694h457v-26q-86 -53 -86 -230v-153q0 -111 32 -176q-84 -55 -221 -94.5t-278 -39.5q-340 0 -546 189.5t-206 523.5q0 150 52.5 280.5t147 226.5
t235 151t309.5 55q221 0 458 -98v-363h-26q-74 195 -184.5 296t-252.5 101q-103 0 -184.5 -55.5t-130.5 -149t-74.5 -207.5t-25.5 -239q0 -183 49 -328t148 -232t235 -87q190 0 190 203v196q0 182 -98 230v26z" />
    <glyph glyph-name="gdotaccent" unicode="&#x121;" horiz-adv-x="1142" 
d="M535 1202q-61 0 -104.5 43t-43.5 105q0 61 43 104t105 43q60 0 103.5 -43t43.5 -104t-43.5 -104.5t-103.5 -43.5zM770 190q164 0 246 -52t82 -175q0 -84 -45.5 -168.5t-126 -152.5t-203 -111t-262.5 -43q-191 0 -301.5 67.5t-110.5 180.5q0 81 61.5 143.5t159.5 91.5
q-106 52 -106 166q0 73 49.5 133t120.5 97q-113 37 -180.5 120.5t-67.5 206.5q0 163 131.5 266t331.5 103q134 0 235 -49q30 87 84 138.5t119 51.5q55 0 88 -34.5t33 -82.5q0 -45 -29.5 -78.5t-77.5 -33.5q-36 0 -62.5 20.5t-39.5 53.5q-29 -2 -72 -60q148 -95 148 -272
q0 -87 -37.5 -159t-101.5 -119t-148.5 -73t-179.5 -26q-62 0 -121 12q-35 -44 -35 -86q0 -76 127 -76h291zM530 1006q-82 0 -130 -78t-48 -207q0 -160 52 -241t131 -81q75 0 124.5 78t49.5 219q0 126 -49.5 218t-129.5 92zM543 -416q157 0 262.5 69t105.5 179q0 62 -39 83.5
t-118 21.5h-299q-74 0 -129 14q-68 -54 -68 -154q0 -105 79 -159t206 -54z" />
    <glyph glyph-name="Gcommaaccent" unicode="&#x122;" horiz-adv-x="1454" 
d="M940 694h457v-26q-86 -53 -86 -230v-153q0 -111 32 -176q-84 -55 -221 -94.5t-278 -39.5q-340 0 -546 189.5t-206 523.5q0 150 52.5 280.5t147 226.5t235 151t309.5 55q221 0 458 -98v-363h-26q-74 195 -184.5 296t-252.5 101q-103 0 -184.5 -55.5t-130.5 -149
t-74.5 -207.5t-25.5 -239q0 -183 49 -328t148 -232t235 -87q190 0 190 203v196q0 182 -98 230v26zM836 -113q71 0 114 -49.5t43 -124.5q0 -113 -79.5 -214t-200.5 -154l-13 22q48 29 89.5 96t41.5 134q-9 -3 -16 -3q-54 3 -90.5 43.5t-36.5 100.5q0 62 41.5 105.5
t106.5 43.5z" />
    <glyph glyph-name="gcommaaccent" unicode="&#x123;" horiz-adv-x="1142" 
d="M532 1184q-70 0 -112.5 49t-42.5 125q0 112 79.5 214t200.5 152l11 -22q-47 -29 -88.5 -94.5t-42.5 -132.5q8 2 18 2q54 -3 89.5 -44.5t35.5 -101.5t-42 -103.5t-106 -43.5zM770 190q164 0 246 -52t82 -175q0 -84 -45.5 -168.5t-126 -152.5t-203 -111t-262.5 -43
q-191 0 -301.5 67.5t-110.5 180.5q0 81 61.5 143.5t159.5 91.5q-106 52 -106 166q0 73 49.5 133t120.5 97q-113 37 -180.5 120.5t-67.5 206.5q0 163 131.5 266t331.5 103q134 0 235 -49q30 87 84 138.5t119 51.5q55 0 88 -34.5t33 -82.5q0 -45 -29.5 -78.5t-77.5 -33.5
q-36 0 -62.5 20.5t-39.5 53.5q-29 -2 -72 -60q148 -95 148 -272q0 -87 -37.5 -159t-101.5 -119t-148.5 -73t-179.5 -26q-62 0 -121 12q-35 -44 -35 -86q0 -76 127 -76h291zM530 1006q-82 0 -130 -78t-48 -207q0 -160 52 -241t131 -81q75 0 124.5 78t49.5 219
q0 126 -49.5 218t-129.5 92zM543 -416q157 0 262.5 69t105.5 179q0 62 -39 83.5t-118 21.5h-299q-74 0 -129 14q-68 -54 -68 -154q0 -105 79 -159t206 -54z" />
    <glyph glyph-name="Hcircumflex" unicode="&#x124;" horiz-adv-x="1622" 
d="M811 1640l-291 -116l-16 20l293 309h28l295 -309l-18 -20zM1485 1354q-88 -52 -88 -230v-868q0 -173 88 -229v-27h-469v27q88 50 88 229v401h-584v-401q0 -175 86 -229v-27h-467v27q86 51 86 229v868q0 179 -86 230v26h467v-26q-86 -53 -86 -230v-403h584v403
q0 180 -88 230v26h469v-26z" />
    <glyph glyph-name="hcircumflex" unicode="&#x125;" horiz-adv-x="1320" 
d="M637 1724l-291 -116l-18 20l295 309h28l293 -309l-18 -20zM1133 256q0 -170 94 -229v-27h-457v27q86 50 86 229v428q0 193 -174 193q-86 0 -215 -72v-549q0 -176 88 -229v-27h-459v27q94 55 94 229v985q0 40 -11 73t-28.5 52t-29 28.5t-21.5 14.5v27l367 112v-694
q83 102 188 154.5t205 52.5q152 0 212.5 -86t60.5 -256v-463z" />
    <glyph glyph-name="Hbar" unicode="&#x126;" horiz-adv-x="1622" 
d="M1552 1006h-155v-750q0 -173 88 -229v-27h-469v27q88 50 88 229v401h-584v-401q0 -175 86 -229v-27h-467v27q86 51 86 229v750h-147v49l147 2v67q0 179 -86 230v26h467v-26q-86 -53 -86 -230v-61l584 8v53q0 180 -88 230v26h469v-26q-88 -52 -88 -230v-49l155 2v-71z
M1104 721v285h-584v-285h584z" />
    <glyph glyph-name="hbar" unicode="&#x127;" horiz-adv-x="1320" 
d="M1133 256q0 -170 94 -229v-27h-457v27q86 50 86 229v428q0 193 -174 193q-86 0 -215 -72v-549q0 -176 88 -229v-27h-459v27q94 55 94 229v934h-139v61l139 4q-3 47 -23.5 84t-36.5 50t-30 20v27l367 112v-280l244 8v-86h-244v-336q83 102 188 154.5t205 52.5
q152 0 212.5 -86t60.5 -256v-463z" />
    <glyph glyph-name="Itilde" unicode="&#x128;" horiz-adv-x="745" 
d="M57 1550q-6 30 -6 58q0 93 47 158t129 65q44 0 89.5 -19t78 -42.5t73 -42.5t75.5 -19q52 0 80.5 36t33.5 91h29q6 -30 6 -57q0 -97 -44 -160.5t-132 -63.5q-44 0 -89.5 19t-77.5 42.5t-72.5 42.5t-75.5 19q-53 0 -82.5 -36t-34.5 -91h-27zM520 256q0 -175 86 -229v-27
h-467v27q86 51 86 229v868q0 179 -86 230v26h467v-26q-86 -53 -86 -230v-868z" />
    <glyph glyph-name="itilde" unicode="&#x129;" horiz-adv-x="675" 
d="M23 1210q-7 35 -7 58q0 92 48 157.5t129 65.5q44 0 89.5 -19t77.5 -42.5t72.5 -42.5t75.5 -19q52 0 82 36.5t35 90.5h26q6 -30 6 -57q0 -97 -44 -160.5t-132 -63.5q-43 0 -88 19t-77 42.5t-73 42.5t-77 19q-53 0 -82.5 -36t-34.5 -91h-26zM475 256q0 -173 94 -229v-27
h-465v27q95 56 95 229v500q0 115 -90 166v26l366 113v-805z" />
    <glyph glyph-name="Imacron" unicode="&#x12a;" horiz-adv-x="745" 
d="M57 1739h629v-99h-629v99zM520 256q0 -175 86 -229v-27h-467v27q86 51 86 229v868q0 179 -86 230v26h467v-26q-86 -53 -86 -230v-868z" />
    <glyph glyph-name="imacron" unicode="&#x12b;" horiz-adv-x="675" 
d="M23 1399h628v-99h-628v99zM475 256q0 -173 94 -229v-27h-465v27q95 56 95 229v500q0 115 -90 166v26l366 113v-805z" />
    <glyph glyph-name="Ibreve" unicode="&#x12c;" horiz-adv-x="745" 
d="M369 1518q-136 0 -203.5 81t-67.5 213q0 27 2 41h29q20 -82 83.5 -123.5t156.5 -41.5q92 0 157.5 41.5t87.5 123.5h27q2 -14 2 -41q0 -130 -70.5 -212t-203.5 -82zM520 256q0 -175 86 -229v-27h-467v27q86 51 86 229v868q0 179 -86 230v26h467v-26q-86 -53 -86 -230v-868
z" />
    <glyph glyph-name="ibreve" unicode="&#x12d;" horiz-adv-x="675" 
d="M334 1178q-135 0 -201.5 81.5t-66.5 213.5q0 26 2 40h26q20 -82 83.5 -123.5t156.5 -41.5t158 41.5t88 123.5h28q2 -14 2 -40q0 -130 -71.5 -212.5t-204.5 -82.5zM475 256q0 -173 94 -229v-27h-465v27q95 56 95 229v500q0 115 -90 166v26l366 113v-805z" />
    <glyph glyph-name="Iogonek" unicode="&#x12e;" horiz-adv-x="745" 
d="M602 -307l12 -25q-45 -51 -121 -87t-159 -36q-100 0 -162.5 50t-62.5 141q0 87 69.5 159t167.5 105h-207v27q86 51 86 229v868q0 179 -86 230v26h467v-26q-86 -53 -86 -230v-868q0 -175 86 -229v-27h-184q-54 -36 -87.5 -92t-33.5 -115q0 -66 42 -102.5t106 -36.5
q77 0 153 39z" />
    <glyph glyph-name="iogonek" unicode="&#x12f;" horiz-adv-x="657" 
d="M319 1186q-71 0 -121.5 51t-50.5 121q0 69 51 120.5t121 51.5q69 0 121 -51.5t52 -120.5q0 -70 -52 -121t-121 -51zM557 -307l12 -25q-43 -51 -119.5 -87t-160.5 -36q-99 0 -162.5 50t-63.5 141q0 87 70 159t168 105h-205v27q94 55 94 229v500q0 121 -90 166v26l367 113
v-805q0 -171 94 -229v-27h-182q-54 -36 -87.5 -92t-33.5 -115q0 -66 42 -102.5t106 -36.5q75 0 151 39z" />
    <glyph glyph-name="Idotaccent" unicode="&#x130;" horiz-adv-x="745" 
d="M373 1542q-61 0 -104.5 43t-43.5 105q0 61 43 104t105 43q61 0 104 -42.5t43 -104.5t-43 -105t-104 -43zM520 256q0 -175 86 -229v-27h-467v27q86 51 86 229v868q0 179 -86 230v26h467v-26q-86 -53 -86 -230v-868z" />
    <glyph glyph-name="dotlessi" unicode="&#x131;" horiz-adv-x="675" 
d="M475 256q0 -173 94 -229v-27h-465v27q95 56 95 229v500q0 115 -90 166v26l366 113v-805z" />
    <glyph glyph-name="IJ" unicode="&#x132;" horiz-adv-x="1497" 
d="M520 256q0 -175 86 -229v-27h-467v27q86 51 86 229v868q0 179 -86 230v26h467v-26q-86 -53 -86 -230v-868zM1288 344q0 -75 -3 -127.5t-14.5 -113.5t-31.5 -104t-55 -87.5t-85 -75.5t-122 -57.5t-164 -42.5l-8 24q97 82 143.5 193.5t46.5 279.5v891q0 179 -88 230v26h469
v-26q-88 -56 -88 -230v-780z" />
    <glyph glyph-name="ij" unicode="&#x133;" horiz-adv-x="1314" 
d="M971 1530q70 0 121 -51.5t51 -122.5q0 -69 -51 -119.5t-121 -50.5t-121 50.5t-51 119.5q0 71 51 122.5t121 51.5zM319 1530q69 0 121 -51.5t52 -120.5q0 -70 -52 -121t-121 -51q-71 0 -121.5 51t-50.5 121q0 69 51 120.5t121 51.5zM467 256q0 -171 94 -229v-27h-465v27
q94 55 94 229v500q0 121 -90 166v26l367 113v-805zM848 754q0 123 -90 168v24l366 115v-959q0 -108 -12.5 -191t-45 -158.5t-87 -128t-140.5 -89t-202 -51.5l-6 24q217 176 217 560v686z" />
    <glyph glyph-name="Jcircumflex" unicode="&#x134;" horiz-adv-x="751" 
d="M403 1853l295 -309l-18 -20l-289 116l-291 -116l-18 20l295 309h26zM162 1354v26h469v-26q-86 -54 -86 -230v-780q0 -75 -3.5 -127.5t-14.5 -113.5t-31 -104t-55.5 -87.5t-85.5 -75.5t-122 -57.5t-165 -42.5l-7 24q96 82 142.5 194t46.5 279v891q0 98 -22 151.5t-66 78.5
z" />
    <glyph glyph-name="jcircumflex" unicode="&#x135;" horiz-adv-x="647" 
d="M338 1513l295 -309l-19 -20l-290 116l-291 -116l-17 20l293 309h29zM111 922v26l366 113v-959q0 -108 -12.5 -191t-45 -158.5t-87 -128t-140.5 -89t-202 -51.5l-6 24q217 176 217 562v686q0 121 -90 166z" />
    <glyph glyph-name="Kcommaaccent" unicode="&#x136;" horiz-adv-x="1443" 
d="M520 256q0 -175 86 -229v-27h-467v27q86 51 86 229v868q0 179 -86 230v26h467v-26q-86 -53 -86 -230v-868zM575 657l295 369q56 72 76 140.5t9 114.5t-42 73v26h441v-26q-95 -43 -203.5 -132t-187.5 -182l-172 -202l213 -299q251 -351 419 -469v-23q-70 -67 -206 -67
q-50 0 -96 17t-83 42.5t-80 73t-75 89.5t-80 111l-228 320v24zM877 -287q0 -113 -79.5 -214.5t-201.5 -153.5l-12 22q48 29 89.5 96t41.5 134q-9 -3 -17 -3q-54 3 -90.5 43.5t-36.5 100.5q0 61 42.5 105t107.5 44q69 0 112.5 -49.5t43.5 -124.5z" />
    <glyph glyph-name="kcommaaccent" unicode="&#x137;" horiz-adv-x="1273" 
d="M467 256q0 -170 94 -229v-27h-465v27q94 55 94 229v985q0 40 -11 73t-28.5 52t-29 28.5t-21.5 14.5v27l367 112v-1292zM713 731q46 50 67.5 101.5t12 100t-53.5 81.5v26h455v-26q-106 -42 -194 -103.5t-197 -162.5l-92 -91q24 -30 51.5 -62.5t59 -69.5t48.5 -58
q145 -176 229.5 -264.5t166.5 -149.5v-22q-69 -51 -158 -51q-107 0 -189 50.5t-188 174.5q-39 46 -119 147t-108 135l2 27zM793 -287q0 -113 -79.5 -214.5t-201.5 -153.5l-12 22q48 29 89.5 96t41.5 134q-9 -3 -17 -3q-54 3 -90.5 43.5t-36.5 100.5q0 62 41.5 105.5
t106.5 43.5q71 0 114.5 -49.5t43.5 -124.5z" />
    <glyph glyph-name="Lacute" unicode="&#x139;" horiz-adv-x="1232" 
d="M774 1853l-399 -327h-64l144 327h319zM1151 436h29v-436h-752h-289v27q86 51 86 229v868q0 180 -86 230v26h467v-26q-86 -53 -86 -230v-878q0 -97 42 -140t140 -43h48q164 0 261 96.5t140 276.5z" />
    <glyph glyph-name="lacute" unicode="&#x13a;" horiz-adv-x="657" 
d="M698 1923l-399 -328h-63l143 328h319zM467 256q0 -170 94 -229v-27h-465v27q94 55 94 229v985q0 40 -11 73t-28.5 52t-29 28.5t-21.5 14.5v27l367 112v-1292z" />
    <glyph glyph-name="Lcommaaccent" unicode="&#x13b;" horiz-adv-x="1232" 
d="M1151 436h29v-436h-752h-289v27q86 51 86 229v868q0 180 -86 230v26h467v-26q-86 -53 -86 -230v-878q0 -97 42 -140t140 -43h48q164 0 261 96.5t140 276.5zM678 -113q69 0 112.5 -49.5t43.5 -124.5q0 -113 -79.5 -214.5t-201.5 -153.5l-12 22q49 29 90 95.5t41 134.5
q-9 -3 -17 -3q-54 3 -90.5 43.5t-36.5 100.5q0 61 42.5 105t107.5 44z" />
    <glyph glyph-name="lcommaaccent" unicode="&#x13c;" horiz-adv-x="657" 
d="M467 256q0 -170 94 -229v-27h-465v27q94 55 94 229v985q0 40 -11 73t-28.5 52t-29 28.5t-21.5 14.5v27l367 112v-1292zM479 -287q0 -113 -79.5 -214.5t-200.5 -153.5l-11 22q47 29 88.5 96t42.5 134q-12 -3 -18 -3q-54 3 -89.5 43.5t-35.5 100.5q0 62 41.5 105.5
t106.5 43.5q69 0 112 -49.5t43 -124.5z" />
    <glyph glyph-name="Lcaron" unicode="&#x13d;" horiz-adv-x="1232" 
d="M905 1116q-53 3 -88 42t-35 97q0 59 41.5 102.5t102.5 43.5q68 0 109.5 -47.5t41.5 -120.5q0 -110 -78.5 -197.5t-191.5 -134.5l-12 21q51 32 89.5 82.5t39.5 111.5h-19zM1151 436h29v-436h-752h-289v27q86 51 86 229v868q0 180 -86 230v26h467v-26q-86 -53 -86 -230
v-878q0 -97 42 -140t140 -43h48q164 0 261 96.5t140 276.5z" />
    <glyph glyph-name="lcaron" unicode="&#x13e;" horiz-adv-x="864" 
d="M881 1393q0 -110 -79 -197.5t-194 -134.5l-10 20q50 32 89 83t40 112h-18q-53 3 -88 42t-35 97q0 59 41 102.5t102 43.5q68 0 110 -47.5t42 -120.5zM467 256q0 -170 94 -229v-27h-465v27q94 55 94 229v985q0 40 -11 73t-28.5 52t-29 28.5t-21.5 14.5v27l367 112v-1292z
" />
    <glyph glyph-name="Ldot" unicode="&#x13f;" horiz-adv-x="1232" 
d="M1151 436h29v-436h-752h-289v27q86 51 86 229v868q0 180 -86 230v26h467v-26q-86 -53 -86 -230v-878q0 -97 42 -140t140 -43h48q164 0 261 96.5t140 276.5zM887 580q-60 0 -104 43t-44 104t44 104t104 43q61 0 104 -43t43 -104t-43 -104t-104 -43z" />
    <glyph glyph-name="ldot" unicode="&#x140;" horiz-adv-x="798" 
d="M467 256q0 -170 94 -229v-27h-465v27q94 55 94 229v985q0 40 -11 73t-28.5 52t-29 28.5t-21.5 14.5v27l367 112v-1292zM727 874q61 0 104 -43t43 -104t-43 -104t-104 -43t-104 43t-43 104t43 104t104 43z" />
    <glyph glyph-name="Lslash" unicode="&#x141;" horiz-adv-x="1232" 
d="M1151 436h29v-436h-752h-289v27q86 51 86 229v285l-166 -84l-22 41l188 104v522q0 180 -86 230v26h467v-26q-86 -53 -86 -230v-360l291 162v-88l-291 -148v-444q0 -97 42 -140t140 -43h48q164 0 261 96.5t140 276.5z" />
    <glyph glyph-name="lslash" unicode="&#x142;" horiz-adv-x="679" 
d="M676 907l-201 -106v-545q0 -172 94 -229v-27h-465v27q95 56 95 229v401l-160 -82l-29 46l189 104v516q0 40 -11 73t-28.5 52t-29 28.5t-21.5 14.5v27l366 112v-669l201 112v-84z" />
    <glyph glyph-name="Nacute" unicode="&#x143;" horiz-adv-x="1525" 
d="M1120 1853l-399 -327h-64l144 327h319zM1257 -39h-36l-904 1036l21 -630q4 -141 44.5 -226.5t102.5 -113.5v-27h-376v27q61 28 101 114.5t44 225.5l14 573q3 143 -39.5 248.5t-115.5 165.5v26h276l823 -958l-14 600q-4 136 -43.5 220t-101.5 112v26h372v-26
q-61 -28 -101 -113.5t-44 -220.5z" />
    <glyph glyph-name="nacute" unicode="&#x144;" horiz-adv-x="1320" 
d="M1032 1513l-399 -327h-64l144 327h319zM467 256q0 -176 88 -229v-27h-459v27q94 55 94 229v514q0 42 -11 75.5t-28.5 51.5t-29.5 26.5t-21 12.5v27l367 114v-223q83 102 188 154.5t205 52.5q151 0 212 -86.5t61 -255.5v-463q0 -171 94 -229v-27h-457v27q86 49 86 229v428
q0 190 -174 190q-105 0 -215 -69v-549z" />
    <glyph glyph-name="Ncommaaccent" unicode="&#x145;" horiz-adv-x="1525" 
d="M1257 -39h-36l-904 1036l21 -630q4 -141 44.5 -226.5t102.5 -113.5v-27h-376v27q61 28 101 114.5t44 225.5l14 573q3 143 -39.5 248.5t-115.5 165.5v26h276l823 -958l-14 600q-4 136 -43.5 220t-101.5 112v26h372v-26q-61 -28 -101 -113.5t-44 -220.5zM934 -287
q0 -113 -80.5 -214.5t-202.5 -153.5l-10 22q48 29 89.5 96t41.5 134q-12 -3 -16 -3q-56 3 -91.5 43.5t-35.5 100.5q0 62 41.5 105.5t105.5 43.5q71 0 114.5 -49.5t43.5 -124.5z" />
    <glyph glyph-name="ncommaaccent" unicode="&#x146;" horiz-adv-x="1320" 
d="M467 256q0 -176 88 -229v-27h-459v27q94 55 94 229v514q0 42 -11 75.5t-28.5 51.5t-29.5 26.5t-21 12.5v27l367 114v-223q83 102 188 154.5t205 52.5q151 0 212 -86.5t61 -255.5v-463q0 -171 94 -229v-27h-457v27q86 49 86 229v428q0 190 -174 190q-105 0 -215 -69v-549z
M815 -287q0 -113 -79.5 -214.5t-200.5 -153.5l-13 22q48 29 89.5 96t41.5 134q-9 -3 -16 -3q-54 3 -90.5 43.5t-36.5 100.5q0 61 42 105t107 44q69 0 112.5 -49.5t43.5 -124.5z" />
    <glyph glyph-name="Ncaron" unicode="&#x147;" horiz-adv-x="1525" 
d="M776 1524h-26l-295 311l18 18l291 -116l289 116l18 -18zM1053 1380h372v-26q-61 -28 -101 -113.5t-44 -220.5l-23 -1059h-36l-904 1036l21 -630q4 -141 44.5 -226.5t102.5 -113.5v-27h-376v27q61 28 101 114.5t44 225.5l14 573q3 143 -39.5 248.5t-115.5 165.5v26h276
l823 -958l-14 600q-4 136 -43.5 220t-101.5 112v26z" />
    <glyph glyph-name="ncaron" unicode="&#x148;" horiz-adv-x="1320" 
d="M674 1184h-27l-295 311l19 18l288 -116l291 116l19 -18zM1133 256q0 -171 94 -229v-27h-457v27q86 49 86 229v428q0 190 -174 190q-105 0 -215 -69v-549q0 -176 88 -229v-27h-459v27q94 55 94 229v514q0 42 -11 75.5t-28.5 51.5t-29.5 26.5t-21 12.5v27l367 114v-223
q83 102 188 154.5t205 52.5q151 0 212 -86.5t61 -255.5v-463z" />
    <glyph glyph-name="Omacron" unicode="&#x14c;" horiz-adv-x="1603" 
d="M487 1739h629v-99h-629v99zM92 696q0 149 51 279.5t142 225t224.5 148.5t291.5 54q162 0 296.5 -54t225 -148.5t140.5 -224t50 -280.5q0 -324 -195.5 -521.5t-516.5 -197.5q-332 0 -520.5 190.5t-188.5 528.5zM1188 696q0 175 -42 318t-131.5 234t-213.5 91
q-96 0 -171 -52t-121 -142.5t-69.5 -204.5t-23.5 -244q0 -134 24.5 -251t71.5 -208t121.5 -143.5t167.5 -52.5q97 0 172.5 52t121.5 143t69.5 207.5t23.5 252.5z" />
    <glyph glyph-name="omacron" unicode="&#x14d;" horiz-adv-x="1241" 
d="M305 1399h629v-99h-629v99zM606 -20q-237 0 -382.5 145.5t-145.5 376.5q0 158 64 284t192.5 201.5t302.5 75.5q163 0 284 -72.5t182.5 -194.5t61.5 -276q0 -241 -156 -390.5t-403 -149.5zM631 45q113 0 175 114.5t62 323.5q0 237 -67.5 375.5t-188.5 138.5
q-79 0 -134.5 -63.5t-79 -156.5t-23.5 -204q0 -99 14 -189t43 -168t80.5 -124.5t118.5 -46.5z" />
    <glyph glyph-name="Obreve" unicode="&#x14e;" horiz-adv-x="1603" 
d="M799 1518q-136 0 -203.5 81t-67.5 213q0 27 2 41h29q20 -82 83.5 -123.5t156.5 -41.5q92 0 157.5 41.5t87.5 123.5h27q2 -14 2 -41q0 -130 -70.5 -212t-203.5 -82zM92 696q0 149 51 279.5t142 225t224.5 148.5t291.5 54q162 0 296.5 -54t225 -148.5t140.5 -224t50 -280.5
q0 -324 -195.5 -521.5t-516.5 -197.5q-332 0 -520.5 190.5t-188.5 528.5zM1188 696q0 175 -42 318t-131.5 234t-213.5 91q-96 0 -171 -52t-121 -142.5t-69.5 -204.5t-23.5 -244q0 -134 24.5 -251t71.5 -208t121.5 -143.5t167.5 -52.5q97 0 172.5 52t121.5 143t69.5 207.5
t23.5 252.5z" />
    <glyph glyph-name="obreve" unicode="&#x14f;" horiz-adv-x="1241" 
d="M616 1178q-135 0 -201.5 81.5t-66.5 213.5q0 26 2 40h27q20 -82 83 -123.5t156 -41.5t158 41.5t88 123.5h29q2 -14 2 -40q0 -130 -72 -212.5t-205 -82.5zM606 -20q-237 0 -382.5 145.5t-145.5 376.5q0 158 64 284t192.5 201.5t302.5 75.5q163 0 284 -72.5t182.5 -194.5
t61.5 -276q0 -241 -156 -390.5t-403 -149.5zM631 45q113 0 175 114.5t62 323.5q0 237 -67.5 375.5t-188.5 138.5q-79 0 -134.5 -63.5t-79 -156.5t-23.5 -204q0 -99 14 -189t43 -168t80.5 -124.5t118.5 -46.5z" />
    <glyph glyph-name="Ohungarumlaut" unicode="&#x150;" horiz-adv-x="1603" 
d="M999 1853l-374 -327h-64l144 327h294zM1372 1853l-375 -327h-63l143 327h295zM92 696q0 149 51 279.5t142 225t224.5 148.5t291.5 54q162 0 296.5 -54t225 -148.5t140.5 -224t50 -280.5q0 -324 -195.5 -521.5t-516.5 -197.5q-332 0 -520.5 190.5t-188.5 528.5zM1188 696
q0 175 -42 318t-131.5 234t-213.5 91q-96 0 -171 -52t-121 -142.5t-69.5 -204.5t-23.5 -244q0 -134 24.5 -251t71.5 -208t121.5 -143.5t167.5 -52.5q97 0 172.5 52t121.5 143t69.5 207.5t23.5 252.5z" />
    <glyph glyph-name="ohungarumlaut" unicode="&#x151;" horiz-adv-x="1241" 
d="M819 1513l-375 -327h-63l143 327h295zM1192 1513l-375 -327h-63l143 327h295zM606 -20q-237 0 -382.5 145.5t-145.5 376.5q0 158 64 284t192.5 201.5t302.5 75.5q163 0 284 -72.5t182.5 -194.5t61.5 -276q0 -241 -156 -390.5t-403 -149.5zM631 45q113 0 175 114.5
t62 323.5q0 237 -67.5 375.5t-188.5 138.5q-79 0 -134.5 -63.5t-79 -156.5t-23.5 -204q0 -99 14 -189t43 -168t80.5 -124.5t118.5 -46.5z" />
    <glyph glyph-name="OE" unicode="&#x152;" horiz-adv-x="2129" 
d="M2038 352h28v-352h-729h-202v125q-148 -148 -357 -148q-313 0 -499.5 192t-186.5 527q0 198 87.5 359.5t244.5 254t352 91.5q99 1 193 -35t166 -104v118h295h591v-340h-26q-113 277 -400 277h-165v-594l137 12q91 7 143.5 58.5t89.5 142.5h27v-461h-27
q-37 87 -90.5 137.5t-144.5 57.5l-135 10v-434q0 -96 39 -139.5t124 -43.5h56q281 0 389 289zM799 41q356 0 356 655q0 134 -18.5 245t-58 203t-110.5 143.5t-169 51.5q-95 0 -170 -52t-120.5 -142.5t-69 -204.5t-23.5 -244q0 -134 24.5 -251t71 -208t121 -143.5
t166.5 -52.5z" />
    <glyph glyph-name="oe" unicode="&#x153;" horiz-adv-x="1888" 
d="M1800 252l21 -23q-84 -116 -205 -184t-260 -68q-229 0 -363 156q-147 -153 -387 -153q-237 0 -382.5 145.5t-145.5 376.5q0 158 64 284t192.5 201.5t302.5 75.5q233 0 371 -158q68 76 162.5 117t203.5 41q118 0 203.5 -34t135 -97t72.5 -144t23 -184v-49h-659
q6 -107 36 -189t77.5 -131t106.5 -73.5t128 -24.5q80 0 162.5 32.5t140.5 82.5zM1374 999q-62 0 -108 -36t-70.5 -95.5t-35.5 -125t-11 -136.5v-2l410 45q0 102 -17 177.5t-59.5 124t-108.5 48.5zM631 45q113 0 175 114.5t62 323.5q0 237 -67.5 375.5t-188.5 138.5
q-79 0 -134.5 -63.5t-79 -156.5t-23.5 -204q0 -99 14 -189t43 -168t80.5 -124.5t118.5 -46.5z" />
    <glyph glyph-name="Racute" unicode="&#x154;" horiz-adv-x="1388" 
d="M1036 1853l-399 -327h-64l144 327h319zM797 268q-19 24 -40 52.5t-35 49t-40 60.5t-35.5 54.5t-42 66.5t-39.5 63v25q166 30 246 127t80 244q0 143 -74.5 225t-232.5 82h-64v-1061q0 -176 86 -229v-27h-467v27q86 50 86 229v868q0 179 -86 230v26h516q280 0 418.5 -97.5
t138.5 -272.5q0 -66 -21 -122t-54.5 -94.5t-80.5 -68t-95.5 -46.5t-102.5 -26l125 -159q134 -174 231 -279t177 -156l-7 -26q-39 -28 -78 -40.5t-98 -12.5q-113 0 -202 64t-209 224z" />
    <glyph glyph-name="racute" unicode="&#x155;" horiz-adv-x="966" 
d="M872 1513l-399 -327h-63l143 327h319zM782 1063q74 0 119 -47.5t45 -110.5q0 -72 -44.5 -118t-113.5 -46q-60 0 -102 45t-45 107q-36 -3 -86.5 -38t-87.5 -77v-522q0 -98 31.5 -149.5t97.5 -79.5v-27h-500v27q94 55 94 229v514q0 42 -11 75.5t-28.5 51.5t-29.5 26.5
t-21 12.5v27l367 114v-241q66 97 149 162t166 65z" />
    <glyph glyph-name="Rcommaaccent" unicode="&#x156;" horiz-adv-x="1388" 
d="M797 268q-19 24 -40 52.5t-35 49t-40 60.5t-35.5 54.5t-42 66.5t-39.5 63v25q166 30 246 127t80 244q0 143 -74.5 225t-232.5 82h-64v-1061q0 -176 86 -229v-27h-467v27q86 50 86 229v868q0 179 -86 230v26h516q280 0 418.5 -97.5t138.5 -272.5q0 -66 -21 -122
t-54.5 -94.5t-80.5 -68t-95.5 -46.5t-102.5 -26l125 -159q134 -174 231 -279t177 -156l-7 -26q-39 -28 -78 -40.5t-98 -12.5q-113 0 -202 64t-209 224zM862 -287q0 -113 -79.5 -214.5t-200.5 -153.5l-13 22q48 29 89.5 96t41.5 134q-9 -3 -16 -3q-54 3 -90.5 43.5
t-36.5 100.5q0 61 42.5 105t107.5 44q69 0 112 -49.5t43 -124.5z" />
    <glyph glyph-name="rcommaaccent" unicode="&#x157;" horiz-adv-x="966" 
d="M782 1063q74 0 119 -47.5t45 -110.5q0 -72 -44.5 -118t-113.5 -46q-60 0 -102 45t-45 107q-36 -3 -86.5 -38t-87.5 -77v-522q0 -98 31.5 -149.5t97.5 -79.5v-27h-500v27q94 55 94 229v514q0 42 -11 75.5t-28.5 51.5t-29.5 26.5t-21 12.5v27l367 114v-241q66 97 149 162
t166 65zM575 -285q0 -113 -79.5 -215t-200.5 -153l-10 22q47 29 88.5 95t42.5 133h-19q-54 3 -90.5 43.5t-36.5 99.5q0 60 43 104.5t107 44.5q69 0 112 -49.5t43 -124.5z" />
    <glyph glyph-name="Rcaron" unicode="&#x158;" horiz-adv-x="1388" 
d="M694 1524h-28l-293 311l18 18l289 -116l291 116l18 -18zM983 494q134 -174 231 -279t177 -156l-7 -26q-39 -28 -78 -40.5t-98 -12.5q-113 0 -202 64t-209 224q-19 24 -40 52.5t-35 49t-40 60.5t-35.5 54.5t-42 66.5t-39.5 63v25q166 30 246 127t80 244q0 143 -74.5 225
t-232.5 82h-64v-1061q0 -176 86 -229v-27h-467v27q86 50 86 229v868q0 179 -86 230v26h516q280 0 418.5 -97.5t138.5 -272.5q0 -66 -21 -122t-54.5 -94.5t-80.5 -68t-95.5 -46.5t-102.5 -26z" />
    <glyph glyph-name="rcaron" unicode="&#x159;" horiz-adv-x="966" 
d="M516 1184h-29l-292 311l16 18l291 -116l291 116l18 -18zM782 1063q74 0 119 -47.5t45 -110.5q0 -72 -44.5 -118t-113.5 -46q-60 0 -102 45t-45 107q-36 -3 -86.5 -38t-87.5 -77v-522q0 -98 31.5 -149.5t97.5 -79.5v-27h-500v27q94 55 94 229v514q0 42 -11 75.5
t-28.5 51.5t-29.5 26.5t-21 12.5v27l367 114v-241q66 97 149 162t166 65z" />
    <glyph glyph-name="Sacute" unicode="&#x15a;" horiz-adv-x="1087" 
d="M885 1853l-400 -327h-63l143 327h320zM530 45q106 -1 165 53t59 142q0 66 -37 121t-96 95t-130 78.5t-142 82.5t-130 95.5t-96 128.5t-37 171q0 112 60.5 201t165 137.5t231.5 48.5q233 0 387 -99v-323h-27q-35 98 -81.5 170.5t-97 112t-99 57.5t-97.5 18
q-92 0 -145 -51.5t-53 -130.5q0 -65 37 -120t96 -96t130.5 -80.5t143.5 -84t131 -95.5t96 -125t37 -163q0 -183 -128 -296t-353 -113q-230 0 -420 106v338h27q76 -182 182 -280.5t221 -98.5z" />
    <glyph glyph-name="sacute" unicode="&#x15b;" horiz-adv-x="970" 
d="M842 1513l-400 -327h-63l143 327h320zM88 174q0 57 34 92t89 35q54 0 88.5 -33.5t34.5 -83.5q0 -59 -39 -86q23 -24 73 -38.5t105 -14.5q93 0 145 41t52 107q0 39 -19.5 70.5t-52.5 54t-76 42t-90.5 38.5t-95 39.5t-90.5 49t-76 63.5t-52.5 86t-19.5 114
q0 138 115.5 224.5t294.5 86.5q159 0 251.5 -52t92.5 -135q0 -56 -34 -90t-89 -34q-52 0 -87.5 33t-35.5 83q0 60 43 88q-20 20 -62.5 32.5t-90.5 12.5q-77 0 -121.5 -36.5t-44.5 -92.5q0 -41 19 -73.5t51.5 -55.5t74 -43t87.5 -39t92.5 -39t88 -48t74 -62t51.5 -84t19 -111
q0 -146 -119.5 -241t-302.5 -94q-162 -2 -269.5 53t-107.5 141z" />
    <glyph glyph-name="Scircumflex" unicode="&#x15c;" horiz-adv-x="1087" 
d="M539 1640l-291 -116l-19 20l295 309h29l293 -309l-19 -20zM330 1153q0 -65 37 -120t96 -96t130.5 -80.5t143.5 -84t131 -95.5t96 -125t37 -163q0 -183 -128 -296t-353 -113q-230 0 -420 106v338h27q76 -182 182 -280.5t221 -98.5q106 -1 165 53t59 142q0 66 -37 121
t-96 95t-130 78.5t-142 82.5t-130 95.5t-96 128.5t-37 171q0 112 60.5 201t165 137.5t231.5 48.5q233 0 387 -99v-323h-27q-35 98 -81.5 170.5t-97 112t-99 57.5t-97.5 18q-92 0 -145 -51.5t-53 -130.5z" />
    <glyph glyph-name="scircumflex" unicode="&#x15d;" horiz-adv-x="970" 
d="M485 1300l-288 -116l-19 20l293 309h29l295 -309l-19 -20zM330 870q0 -41 19 -73.5t51.5 -55.5t74 -43t87.5 -39t92.5 -39t88 -48t74 -62t51.5 -84t19 -111q0 -146 -119.5 -241t-302.5 -94q-162 -2 -269.5 53t-107.5 141q0 57 34 92t89 35q54 0 88.5 -33.5t34.5 -83.5
q0 -59 -39 -86q23 -24 73 -38.5t105 -14.5q93 0 145 41t52 107q0 39 -19.5 70.5t-52.5 54t-76 42t-90.5 38.5t-95 39.5t-90.5 49t-76 63.5t-52.5 86t-19.5 114q0 138 115.5 224.5t294.5 86.5q159 0 251.5 -52t92.5 -135q0 -56 -34 -90t-89 -34q-52 0 -87.5 33t-35.5 83
q0 60 43 88q-20 20 -62.5 32.5t-90.5 12.5q-77 0 -121.5 -36.5t-44.5 -92.5z" />
    <glyph glyph-name="Scedilla" unicode="&#x15e;" horiz-adv-x="1087" 
d="M1001 389q0 -163 -101 -271.5t-284 -131.5l-41 -101q87 -7 137 -51.5t50 -107.5q0 -84 -62.5 -132.5t-160.5 -48.5q-126 0 -211 56l14 49q56 -29 113 -29q46 0 77 23.5t31 66.5q0 48 -37 81t-116 40l92 148q-217 2 -402 106v338h27q76 -182 182 -280.5t221 -98.5
q106 -1 165 53t59 142q0 66 -37 121t-96 95t-130 78.5t-142 82.5t-130 95.5t-96 128.5t-37 171q0 112 60.5 201t165 137.5t231.5 48.5q233 0 387 -99v-323h-27q-35 98 -81.5 170.5t-97 112t-99 57.5t-97.5 18q-92 0 -145 -51.5t-53 -130.5q0 -65 37 -120t96 -96t130.5 -80.5
t143.5 -84t131 -95.5t96 -125t37 -163z" />
    <glyph glyph-name="scedilla" unicode="&#x15f;" horiz-adv-x="970" 
d="M887 315q0 -127 -93 -218t-243 -113l-41 -99q87 -7 136.5 -51.5t49.5 -107.5q0 -84 -62 -132.5t-161 -48.5q-123 0 -211 56l14 49q60 -29 113 -29q48 0 78.5 23.5t30.5 66.5q0 48 -37.5 81t-116.5 40l94 148q-153 3 -251.5 57t-98.5 137q0 57 34 92t89 35
q54 0 88.5 -33.5t34.5 -83.5q0 -59 -39 -86q23 -24 73 -38.5t105 -14.5q93 0 145 41t52 107q0 39 -19.5 70.5t-52.5 54t-76 42t-90.5 38.5t-95 39.5t-90.5 49t-76 63.5t-52.5 86t-19.5 114q0 138 115.5 224.5t294.5 86.5q159 0 251.5 -52t92.5 -135q0 -56 -34 -90t-89 -34
q-52 0 -87.5 33t-35.5 83q0 60 43 88q-20 20 -62.5 32.5t-90.5 12.5q-77 0 -121.5 -36.5t-44.5 -92.5q0 -41 19 -73.5t51.5 -55.5t74 -43t87.5 -39t92.5 -39t88 -48t74 -62t51.5 -84t19 -111z" />
    <glyph glyph-name="Scaron" unicode="&#x160;" horiz-adv-x="1087" 
d="M553 1524h-29l-295 311l19 18l291 -116l288 116l19 -18zM330 1153q0 -65 37 -120t96 -96t130.5 -80.5t143.5 -84t131 -95.5t96 -125t37 -163q0 -183 -128 -296t-353 -113q-230 0 -420 106v338h27q76 -182 182 -280.5t221 -98.5q106 -1 165 53t59 142q0 66 -37 121t-96 95
t-130 78.5t-142 82.5t-130 95.5t-96 128.5t-37 171q0 112 60.5 201t165 137.5t231.5 48.5q233 0 387 -99v-323h-27q-35 98 -81.5 170.5t-97 112t-99 57.5t-97.5 18q-92 0 -145 -51.5t-53 -130.5z" />
    <glyph glyph-name="scaron" unicode="&#x161;" horiz-adv-x="970" 
d="M500 1184h-29l-293 311l19 18l288 -116l291 116l19 -18zM330 870q0 -41 19 -73.5t51.5 -55.5t74 -43t87.5 -39t92.5 -39t88 -48t74 -62t51.5 -84t19 -111q0 -146 -119.5 -241t-302.5 -94q-162 -2 -269.5 53t-107.5 141q0 57 34 92t89 35q54 0 88.5 -33.5t34.5 -83.5
q0 -59 -39 -86q23 -24 73 -38.5t105 -14.5q93 0 145 41t52 107q0 39 -19.5 70.5t-52.5 54t-76 42t-90.5 38.5t-95 39.5t-90.5 49t-76 63.5t-52.5 86t-19.5 114q0 138 115.5 224.5t294.5 86.5q159 0 251.5 -52t92.5 -135q0 -56 -34 -90t-89 -34q-52 0 -87.5 33t-35.5 83
q0 60 43 88q-20 20 -62.5 32.5t-90.5 12.5q-77 0 -121.5 -36.5t-44.5 -92.5z" />
    <glyph glyph-name="uni0162" unicode="&#x162;" horiz-adv-x="1277" 
d="M41 1380h1196v-405h-27q-15 52 -32.5 94.5t-48 90.5t-66.5 81t-89.5 54.5t-117.5 21.5h-74v-1061q0 -173 88 -229v-27h-469v27q86 50 86 229v1061h-65q-64 0 -117.5 -21.5t-89.5 -54.5t-66.5 -81t-48 -90.5t-32.5 -94.5h-27v405zM631 -113q71 0 114 -49.5t43 -124.5
q0 -113 -80 -214.5t-202 -153.5l-10 22q48 29 89.5 96t41.5 134q-12 -3 -17 -3q-56 3 -91.5 43.5t-35.5 100.5q0 62 41.5 105.5t106.5 43.5z" />
    <glyph glyph-name="uni0163" unicode="&#x163;" horiz-adv-x="778" 
d="M741 162l17 -23q-56 -68 -140.5 -110.5t-173.5 -42.5q-131 0 -192.5 77.5t-61.5 235.5v657h-139v54q111 42 207 133t148 215h61v-311l256 22l-18 -113h-238v-620q0 -104 31.5 -155.5t105.5 -51.5q59 0 137 33zM387 -113q69 0 112.5 -49.5t43.5 -124.5
q0 -113 -79.5 -214.5t-201.5 -153.5l-10 22q47 29 88.5 96t42.5 134q-12 -3 -18 -3q-54 3 -89.5 43.5t-35.5 100.5q0 62 41.5 105.5t105.5 43.5z" />
    <glyph glyph-name="Tcaron" unicode="&#x164;" horiz-adv-x="1277" 
d="M653 1524h-28l-295 311l18 18l291 -116l291 116l16 -18zM41 1380h1196v-405h-27q-15 52 -32.5 94.5t-48 90.5t-66.5 81t-89.5 54.5t-117.5 21.5h-74v-1061q0 -173 88 -229v-27h-469v27q86 50 86 229v1061h-65q-64 0 -117.5 -21.5t-89.5 -54.5t-66.5 -81t-48 -90.5
t-32.5 -94.5h-27v405z" />
    <glyph glyph-name="tcaron" unicode="&#x165;" horiz-adv-x="831" 
d="M684 1337q-54 3 -89.5 43t-35.5 97q0 59 41.5 102t104.5 43q68 0 109.5 -47.5t41.5 -120.5q0 -109 -79 -197t-193 -135l-13 21q129 84 129 196q-6 -2 -16 -2zM604 129q59 0 137 33l17 -23q-56 -68 -140.5 -110.5t-173.5 -42.5q-131 0 -192.5 77.5t-61.5 235.5v657h-139
v54q111 42 207 133t148 215h61v-311l256 22l-18 -113h-238v-620q0 -104 31.5 -155.5t105.5 -51.5z" />
    <glyph glyph-name="Tbar" unicode="&#x166;" horiz-adv-x="1277" 
d="M41 1380h1196v-405h-27q-15 52 -32.5 94.5t-48 90.5t-66.5 81t-89.5 54.5t-117.5 21.5h-74v-580l299 6v-71h-299v-416q0 -173 88 -229v-27h-469v27q86 50 86 229v416h-286v49l286 8v588h-65q-64 0 -117.5 -21.5t-89.5 -54.5t-66.5 -81t-48 -90.5t-32.5 -94.5h-27v405z
" />
    <glyph glyph-name="tbar" unicode="&#x167;" horiz-adv-x="778" 
d="M741 162l17 -23q-56 -68 -140.5 -110.5t-173.5 -42.5q-131 0 -192.5 77.5t-61.5 235.5v252h-133v49l133 6v350h-139v54q111 42 207 133t148 215h61v-311l256 22l-18 -113h-238v-340l250 11v-76h-250v-215q0 -104 31.5 -155.5t105.5 -51.5q59 0 137 33z" />
    <glyph glyph-name="Utilde" unicode="&#x168;" horiz-adv-x="1480" 
d="M479 1550q-4 20 -4 58q0 93 46.5 158t127.5 65q44 0 89.5 -19t78 -42.5t73 -42.5t75.5 -19q53 0 82 36t34 91h29q4 -20 4 -57q0 -97 -43 -160.5t-131 -63.5q-44 0 -89.5 19t-77.5 42.5t-72.5 42.5t-75.5 19q-54 0 -83 -35.5t-34 -91.5h-29zM219 461v663q0 179 -86 230v26
h467v-26q-86 -54 -86 -230v-641q0 -399 344 -399q154 0 236.5 98t79.5 303l-7 559q-2 231 -170 310v26h430v-26q-154 -71 -161 -310l-19 -571q-16 -491 -473 -491q-99 0 -179.5 14t-151.5 48t-119.5 88t-76.5 137t-28 192z" />
    <glyph glyph-name="utilde" unicode="&#x169;" horiz-adv-x="1306" 
d="M338 1210q-6 30 -6 58q0 93 47 158t129 65q44 0 89.5 -19t77.5 -42.5t72.5 -42.5t75.5 -19q52 0 81 36.5t34 90.5h29q6 -30 6 -57q0 -97 -44 -160.5t-132 -63.5q-44 0 -89.5 19t-78 42.5t-73 42.5t-75.5 19q-52 0 -81.5 -36t-34.5 -91h-27zM840 770q0 44 -11.5 82t-28 60
t-29.5 34t-21 15v26l366 90v-788q0 -47 11.5 -86.5t28.5 -62t29.5 -35t20.5 -15.5v-27l-366 -81v204q-76 -99 -171 -152.5t-194 -53.5q-287 0 -287 339v451q0 57 -21 103.5t-39 64.5t-30 23v26l367 90v-721q0 -190 166 -190q93 0 209 67v537z" />
    <glyph glyph-name="Umacron" unicode="&#x16a;" horiz-adv-x="1480" 
d="M483 1739h629v-99h-629v99zM219 461v663q0 179 -86 230v26h467v-26q-86 -54 -86 -230v-641q0 -399 344 -399q154 0 236.5 98t79.5 303l-7 559q-2 231 -170 310v26h430v-26q-154 -71 -161 -310l-19 -571q-16 -491 -473 -491q-99 0 -179.5 14t-151.5 48t-119.5 88
t-76.5 137t-28 192z" />
    <glyph glyph-name="umacron" unicode="&#x16b;" horiz-adv-x="1306" 
d="M338 1399h629v-99h-629v99zM840 770q0 44 -11.5 82t-28 60t-29.5 34t-21 15v26l366 90v-788q0 -47 11.5 -86.5t28.5 -62t29.5 -35t20.5 -15.5v-27l-366 -81v204q-76 -99 -171 -152.5t-194 -53.5q-287 0 -287 339v451q0 57 -21 103.5t-39 64.5t-30 23v26l367 90v-721
q0 -190 166 -190q93 0 209 67v537z" />
    <glyph glyph-name="Ubreve" unicode="&#x16c;" horiz-adv-x="1480" 
d="M811 1518q-135 0 -201.5 81t-66.5 213q0 27 2 41h26q20 -82 84 -123.5t156 -41.5q93 0 158 41.5t88 123.5h28q2 -14 2 -41q0 -131 -71 -212.5t-205 -81.5zM219 461v663q0 179 -86 230v26h467v-26q-86 -54 -86 -230v-641q0 -399 344 -399q154 0 236.5 98t79.5 303l-7 559
q-2 231 -170 310v26h430v-26q-154 -71 -161 -310l-19 -571q-16 -491 -473 -491q-99 0 -179.5 14t-151.5 48t-119.5 88t-76.5 137t-28 192z" />
    <glyph glyph-name="ubreve" unicode="&#x16d;" horiz-adv-x="1306" 
d="M649 1178q-136 0 -203 81t-67 214q0 26 2 40h29q20 -82 83 -123.5t156 -41.5q92 0 158 41.5t88 123.5h27q2 -14 2 -40q0 -130 -71 -212.5t-204 -82.5zM840 770q0 44 -11.5 82t-28 60t-29.5 34t-21 15v26l366 90v-788q0 -47 11.5 -86.5t28.5 -62t29.5 -35t20.5 -15.5v-27
l-366 -81v204q-76 -99 -171 -152.5t-194 -53.5q-287 0 -287 339v451q0 57 -21 103.5t-39 64.5t-30 23v26l367 90v-721q0 -190 166 -190q93 0 209 67v537z" />
    <glyph glyph-name="Uring" unicode="&#x16e;" horiz-adv-x="1480" 
d="M788 1505q-75 0 -129.5 55t-54.5 130q0 76 54.5 130t129.5 54q77 0 131 -54t54 -130q0 -75 -54.5 -130t-130.5 -55zM788 1608q34 0 58 24t24 58t-24 58t-58 24t-57.5 -24t-23.5 -58t23.5 -58t57.5 -24zM219 461v663q0 179 -86 230v26h467v-26q-86 -54 -86 -230v-641
q0 -399 344 -399q154 0 236.5 98t79.5 303l-7 559q-2 231 -170 310v26h430v-26q-154 -71 -161 -310l-19 -571q-16 -491 -473 -491q-99 0 -179.5 14t-151.5 48t-119.5 88t-76.5 137t-28 192z" />
    <glyph glyph-name="uring" unicode="&#x16f;" horiz-adv-x="1306" 
d="M653 1165q-76 0 -130 55t-54 130q0 76 53.5 130t130.5 54q75 0 130 -54t55 -130q0 -75 -55 -130t-130 -55zM653 1268q34 0 58 24t24 58t-24 58t-58 24t-58 -24t-24 -58t24 -58t58 -24zM840 770q0 44 -11.5 82t-28 60t-29.5 34t-21 15v26l366 90v-788q0 -47 11.5 -86.5
t28.5 -62t29.5 -35t20.5 -15.5v-27l-366 -81v204q-76 -99 -171 -152.5t-194 -53.5q-287 0 -287 339v451q0 57 -21 103.5t-39 64.5t-30 23v26l367 90v-721q0 -190 166 -190q93 0 209 67v537z" />
    <glyph glyph-name="Uhungarumlaut" unicode="&#x170;" horiz-adv-x="1480" 
d="M979 1853l-375 -327h-63l143 327h295zM1352 1853l-375 -327h-64l144 327h295zM219 461v663q0 179 -86 230v26h467v-26q-86 -54 -86 -230v-641q0 -399 344 -399q154 0 236.5 98t79.5 303l-7 559q-2 231 -170 310v26h430v-26q-154 -71 -161 -310l-19 -571
q-16 -491 -473 -491q-99 0 -179.5 14t-151.5 48t-119.5 88t-76.5 137t-28 192z" />
    <glyph glyph-name="uhungarumlaut" unicode="&#x171;" horiz-adv-x="1306" 
d="M850 1513l-375 -327h-63l143 327h295zM1223 1513l-375 -327h-64l144 327h295zM840 770q0 44 -11.5 82t-28 60t-29.5 34t-21 15v26l366 90v-788q0 -47 11.5 -86.5t28.5 -62t29.5 -35t20.5 -15.5v-27l-366 -81v204q-76 -99 -171 -152.5t-194 -53.5q-287 0 -287 339v451
q0 57 -21 103.5t-39 64.5t-30 23v26l367 90v-721q0 -190 166 -190q93 0 209 67v537z" />
    <glyph glyph-name="Uogonek" unicode="&#x172;" horiz-adv-x="1480" 
d="M997 1380h430v-26q-154 -71 -161 -310l-19 -571q-16 -413 -336 -479q-51 -36 -81.5 -90t-30.5 -111q0 -67 40.5 -103t104.5 -36q78 0 154 39l12 -25q-45 -51 -121 -87t-160 -36q-100 0 -162.5 50t-62.5 141q0 76 55 142.5t138 103.5h-23q-99 0 -179.5 14t-151.5 48
t-119.5 88t-76.5 137t-28 192v663q0 179 -86 230v26h467v-26q-86 -54 -86 -230v-641q0 -399 344 -399q154 0 236.5 98t79.5 303l-7 559q-2 231 -170 310v26z" />
    <glyph glyph-name="uogonek" unicode="&#x173;" horiz-adv-x="1306" 
d="M907 -2q-53 -38 -84.5 -92.5t-31.5 -112.5q0 -66 41.5 -102.5t105.5 -36.5q80 0 152 39l14 -25q-45 -51 -122 -87t-161 -36q-99 0 -162 50t-63 141q0 88 72 160.5t172 105.5v184q-76 -99 -171 -152.5t-194 -53.5q-287 0 -287 339v451q0 57 -21 103.5t-39 64.5t-30 23v26
l367 90v-721q0 -190 166 -190q93 0 209 67v537q0 44 -11.5 82t-28 60t-29.5 34t-21 15v26l366 90v-788q0 -47 11.5 -86.5t28.5 -62t29.5 -35t20.5 -15.5v-27z" />
    <glyph glyph-name="Wcircumflex" unicode="&#x174;" horiz-adv-x="2162" 
d="M1153 1640l-291 -116l-16 20l293 309h28l295 -309l-18 -20zM1724 1380h422v-26q-46 -22 -87 -64t-74.5 -101t-58 -114t-50.5 -127l-363 -971h-36l-373 963l-377 -963h-37l-432 1053q-58 137 -107.5 211.5t-125.5 112.5v26h573v-26q-119 -84 -14 -330l247 -618l232 641
l-10 30q-45 116 -92 182t-107 95v26h573v-26q-47 -26 -67.5 -76.5t-15.5 -108.5t28 -122l244 -639l178 544q43 133 23 246t-93 156v26z" />
    <glyph glyph-name="wcircumflex" unicode="&#x175;" horiz-adv-x="1792" 
d="M954 1300l-290 -116l-19 20l295 309h29l293 -309l-17 -20zM1405 1040h367v-26q-146 -87 -234 -318l-272 -719h-43l-310 721l-290 -721h-43l-322 730q-52 120 -102.5 189t-128.5 118v26h503v-26q-94 -67 -8 -264l183 -449l169 485q-39 90 -79.5 142.5t-94.5 85.5v26h506
v-26q-41 -26 -55.5 -74.5t-6 -102t33.5 -112.5l165 -424l111 363q35 119 21 213t-70 137v26z" />
    <glyph glyph-name="Ycircumflex" unicode="&#x176;" horiz-adv-x="1380" 
d="M748 1640l-291 -116l-19 20l295 309h29l293 -309l-17 -20zM942 1380h420v-26q-82 -30 -163 -115.5t-148 -210.5l-201 -389v-383q0 -175 86 -229v-27h-469v27q44 25 66 78t22 151v307l-285 508q-65 118 -123 188t-120 95v26h581v-26q-51 -31 -62.5 -88t3.5 -108.5
t43 -102.5l215 -381l168 354q48 98 40 191t-73 135v26z" />
    <glyph glyph-name="ycircumflex" unicode="&#x177;" horiz-adv-x="1196" 
d="M657 1300l-290 -116l-19 20l295 309h27l295 -309l-19 -20zM803 1040h377v-26q-137 -71 -228 -309l-260 -650q-19 -67 -35.5 -120t-41 -115.5t-49 -109t-57.5 -91.5t-69.5 -74t-82.5 -47t-97 -18q-130 0 -205 102l-4 27q60 6 115 20t116.5 41.5t114 66.5t101 99t82.5 135
l-328 721q-120 259 -227 322v26h518v-26q-37 -26 -51 -67.5t-4.5 -94t26.5 -100t45 -107.5l158 -381l125 365q28 79 36.5 151t-9 136.5t-66.5 97.5v26z" />
    <glyph glyph-name="Ydieresis" unicode="&#x178;" horiz-adv-x="1380" 
d="M539 1550q-57 0 -98.5 41.5t-41.5 98.5t41.5 98t98.5 41q56 0 96.5 -41t40.5 -98t-40.5 -98.5t-96.5 -41.5zM983 1550q-57 0 -98 41.5t-41 98.5t41 98t98 41t97 -41t40 -98t-40 -98.5t-97 -41.5zM942 1380h420v-26q-82 -30 -163 -115.5t-148 -210.5l-201 -389v-383
q0 -175 86 -229v-27h-469v27q44 25 66 78t22 151v307l-285 508q-65 118 -123 188t-120 95v26h581v-26q-51 -31 -62.5 -88t3.5 -108.5t43 -102.5l215 -381l168 354q48 98 40 191t-73 135v26z" />
    <glyph glyph-name="Zacute" unicode="&#x179;" horiz-adv-x="1261" 
d="M1001 1853l-399 -327h-63l143 327h319zM1184 1380v-26l-762 -1307l295 16q158 10 265 105t165 258h29v-426h-789h-311v27l762 1308l-287 -18q-294 -17 -414 -354h-26v417h772h301z" />
    <glyph glyph-name="zacute" unicode="&#x17a;" horiz-adv-x="1042" 
d="M893 1513l-399 -327h-64l143 327h320zM975 1040v-41l-588 -950l166 14q117 11 192.5 49t116 96t72.5 154h27v-362h-719h-174v41l585 952l-153 -12q-87 -7 -149 -29t-103.5 -62t-67.5 -86.5t-51 -117.5h-27v354h719h154z" />
    <glyph glyph-name="Zdotaccent" unicode="&#x17b;" horiz-adv-x="1261" 
d="M631 1542q-61 0 -104.5 43t-43.5 105q0 61 43 104t105 43q61 0 104 -42.5t43 -104.5t-43 -105t-104 -43zM1184 1380v-26l-762 -1307l295 16q158 10 265 105t165 258h29v-426h-789h-311v27l762 1308l-287 -18q-294 -17 -414 -354h-26v417h772h301z" />
    <glyph glyph-name="zdotaccent" unicode="&#x17c;" horiz-adv-x="1042" 
d="M522 1202q-61 0 -104 43t-43 105t42.5 104.5t104.5 42.5q60 0 104 -43t44 -104t-44 -104.5t-104 -43.5zM975 1040v-41l-588 -950l166 14q117 11 192.5 49t116 96t72.5 154h27v-362h-719h-174v41l585 952l-153 -12q-87 -7 -149 -29t-103.5 -62t-67.5 -86.5t-51 -117.5h-27
v354h719h154z" />
    <glyph glyph-name="Zcaron" unicode="&#x17d;" horiz-adv-x="1261" 
d="M659 1524h-28l-293 311l16 18l291 -116l291 116l18 -18zM1184 1380v-26l-762 -1307l295 16q158 10 265 105t165 258h29v-426h-789h-311v27l762 1308l-287 -18q-294 -17 -414 -354h-26v417h772h301z" />
    <glyph glyph-name="zcaron" unicode="&#x17e;" horiz-adv-x="1042" 
d="M549 1184h-27l-295 311l19 18l291 -116l288 116l19 -18zM975 1040v-41l-588 -950l166 14q117 11 192.5 49t116 96t72.5 154h27v-362h-719h-174v41l585 952l-153 -12q-87 -7 -149 -29t-103.5 -62t-67.5 -86.5t-51 -117.5h-27v354h719h154z" />
    <glyph glyph-name="florin" unicode="&#x192;" horiz-adv-x="1120" 
d="M854 1548q148 0 234 -62t86 -159q0 -61 -40.5 -104t-101.5 -43t-103 38.5t-42 92.5q0 39 20 73t58 50q-25 51 -91 51q-82 0 -123.5 -86.5t-72.5 -274.5l-53 -329l260 20l-25 -110h-252l-90 -549q-91 -556 -528 -582q-27 -2 -84 -2l-6 27q131 58 216.5 202.5t119.5 358.5
l90 545h-183v53l195 14l57 352q33 210 151.5 317t307.5 107z" />
    <glyph glyph-name="uni0218" unicode="&#x218;" horiz-adv-x="1087" 
d="M530 45q106 -1 165 53t59 142q0 66 -37 121t-96 95t-130 78.5t-142 82.5t-130 95.5t-96 128.5t-37 171q0 112 60.5 201t165 137.5t231.5 48.5q233 0 387 -99v-323h-27q-35 98 -81.5 170.5t-97 112t-99 57.5t-97.5 18q-92 0 -145 -51.5t-53 -130.5q0 -65 37 -120t96 -96
t130.5 -80.5t143.5 -84t131 -95.5t96 -125t37 -163q0 -183 -128 -296t-353 -113q-230 0 -420 106v338h27q76 -182 182 -280.5t221 -98.5zM707 -287q0 -113 -79.5 -214.5t-201.5 -153.5l-12 22q48 29 89.5 96t41.5 134q-9 -3 -17 -3q-54 3 -90.5 43.5t-36.5 100.5
q0 61 42.5 105t107.5 44q69 0 112.5 -49.5t43.5 -124.5z" />
    <glyph glyph-name="uni0219" unicode="&#x219;" horiz-adv-x="970" 
d="M88 174q0 57 34 92t89 35q54 0 88.5 -33.5t34.5 -83.5q0 -59 -39 -86q23 -24 73 -38.5t105 -14.5q93 0 145 41t52 107q0 39 -19.5 70.5t-52.5 54t-76 42t-90.5 38.5t-95 39.5t-90.5 49t-76 63.5t-52.5 86t-19.5 114q0 138 115.5 224.5t294.5 86.5q159 0 251.5 -52
t92.5 -135q0 -56 -34 -90t-89 -34q-52 0 -87.5 33t-35.5 83q0 60 43 88q-20 20 -62.5 32.5t-90.5 12.5q-77 0 -121.5 -36.5t-44.5 -92.5q0 -41 19 -73.5t51.5 -55.5t74 -43t87.5 -39t92.5 -39t88 -48t74 -62t51.5 -84t19 -111q0 -146 -119.5 -241t-302.5 -94
q-162 -2 -269.5 53t-107.5 141zM641 -287q0 -113 -79.5 -214.5t-201.5 -153.5l-12 22q48 29 89.5 96t41.5 134q-9 -3 -16 -3q-54 3 -90.5 43.5t-36.5 100.5q0 62 41.5 105.5t105.5 43.5q71 0 114.5 -49.5t43.5 -124.5z" />
    <glyph glyph-name="uni021A" unicode="&#x21a;" horiz-adv-x="1277" 
d="M41 1380h1196v-405h-27q-15 52 -32.5 94.5t-48 90.5t-66.5 81t-89.5 54.5t-117.5 21.5h-74v-1061q0 -173 88 -229v-27h-469v27q86 50 86 229v1061h-65q-64 0 -117.5 -21.5t-89.5 -54.5t-66.5 -81t-48 -90.5t-32.5 -94.5h-27v405zM631 -113q71 0 114 -49.5t43 -124.5
q0 -113 -80 -214.5t-202 -153.5l-10 22q48 29 89.5 96t41.5 134q-12 -3 -17 -3q-56 3 -91.5 43.5t-35.5 100.5q0 62 41.5 105.5t106.5 43.5z" />
    <glyph glyph-name="uni021B" unicode="&#x21b;" horiz-adv-x="778" 
d="M741 162l17 -23q-56 -68 -140.5 -110.5t-173.5 -42.5q-131 0 -192.5 77.5t-61.5 235.5v657h-139v54q111 42 207 133t148 215h61v-311l256 22l-18 -113h-238v-620q0 -104 31.5 -155.5t105.5 -51.5q59 0 137 33zM387 -113q69 0 112.5 -49.5t43.5 -124.5
q0 -113 -79.5 -214.5t-201.5 -153.5l-10 22q47 29 88.5 96t42.5 134q-12 -3 -18 -3q-54 3 -89.5 43.5t-35.5 100.5q0 62 41.5 105.5t105.5 43.5z" />
    <glyph glyph-name="uni0237" unicode="&#x237;" horiz-adv-x="647" 
d="M201 756q0 121 -90 166v26l366 113v-959q0 -108 -12.5 -191t-45 -158.5t-87 -128t-140.5 -89t-202 -51.5l-6 24q217 176 217 562v686z" />
    <glyph glyph-name="circumflex" unicode="&#x2c6;" horiz-adv-x="1228" 
d="M924 1204l-19 -20l-291 116l-290 -116l-17 20l293 309h29z" />
    <glyph glyph-name="caron" unicode="&#x2c7;" horiz-adv-x="1228" 
d="M905 1513l19 -18l-295 -311h-29l-293 311l17 18l290 -116z" />
    <glyph glyph-name="breve" unicode="&#x2d8;" horiz-adv-x="1228" 
d="M610 1178q-135 0 -201.5 81.5t-66.5 213.5q0 26 2 40h27q20 -82 83 -123.5t156 -41.5t158 41.5t88 123.5h29q2 -14 2 -40q0 -130 -72 -212.5t-205 -82.5z" />
    <glyph glyph-name="dotaccent" unicode="&#x2d9;" horiz-adv-x="1228" 
d="M614 1202q-61 0 -104 44t-43 104q0 62 42.5 104.5t104.5 42.5t105 -43t43 -104q0 -60 -43.5 -104t-104.5 -44z" />
    <glyph glyph-name="ring" unicode="&#x2da;" horiz-adv-x="1228" 
d="M614 1165q-75 0 -129.5 55t-54.5 130q0 76 54.5 130t129.5 54q77 0 131 -54t54 -130q0 -75 -54.5 -130t-130.5 -55zM614 1268q34 0 58 24t24 58t-24 59t-58 25t-58 -25t-24 -59t24 -58t58 -24z" />
    <glyph glyph-name="ogonek" unicode="&#x2db;" horiz-adv-x="1228" 
d="M866 -332q-43 -51 -119.5 -87t-160.5 -36q-99 0 -162.5 50t-63.5 141q0 90 74.5 163t177.5 105h70q-56 -37 -91.5 -93.5t-35.5 -117.5q0 -66 41.5 -102.5t105.5 -36.5q76 0 152 39z" />
    <glyph glyph-name="tilde" unicode="&#x2dc;" horiz-adv-x="1228" 
d="M299 1210q-6 30 -6 58q0 93 47.5 158t128.5 65q44 0 89.5 -19t77.5 -42.5t72.5 -42.5t75.5 -19q52 0 82 36.5t35 90.5h27q6 -30 6 -57q0 -96 -44 -160t-132 -64q-43 0 -88.5 19t-77.5 42.5t-73 42.5t-77 19q-52 0 -81.5 -36t-34.5 -91h-27z" />
    <glyph glyph-name="hungarumlaut" unicode="&#x2dd;" horiz-adv-x="1228" 
d="M813 1513l-375 -327h-63l143 327h295zM1186 1513l-375 -327h-63l143 327h295z" />
    <glyph glyph-name="uni0326" unicode="&#x326;" horiz-adv-x="0" 
d="M-459 -287q0 -113 -80 -214.5t-202 -153.5l-11 22q48 29 89.5 95t41.5 132h-16q-56 3 -91.5 43.5t-35.5 100.5q0 62 41.5 105.5t106.5 43.5q71 0 114 -49.5t43 -124.5z" />
    <glyph glyph-name="uni0394" unicode="&#x394;" horiz-adv-x="1314" 
d="M690 1403l584 -1376v-27h-293h-879h-59v27l610 1376h37zM164 63h790l-407 965z" />
    <glyph glyph-name="uni03A9" unicode="&#x3a9;" horiz-adv-x="1548" 
d="M725 0h-559v246h27q40 -39 72 -59.5t108.5 -42.5t204.5 -40q-226 148 -358 319.5t-132 356.5q0 174 88.5 316.5t246 224.5t351.5 82q157 0 287.5 -50t216.5 -135.5t133 -198.5t47 -239q0 -180 -129.5 -353.5t-351.5 -320.5q122 17 198 39.5t108 43t69 57.5h26v-246h-555
v57q310 216 310 725q0 158 -42.5 284t-125 199.5t-191.5 73.5q-91 0 -162 -48.5t-113 -130t-63.5 -181.5t-21.5 -211q0 -233 81 -418.5t230 -292.5v-57z" />
    <glyph glyph-name="pi" unicode="&#x3c0;" horiz-adv-x="1245" 
d="M1169 778h-288q-41 -227 -41 -356q0 -180 129 -180q96 0 168 77l24 -16q-60 -323 -235 -323q-183 0 -183 307q0 116 54 379l22 112h-344l-49 -618q-6 -85 -49.5 -132.5t-114.5 -47.5q-57 0 -97 36.5t-40 100.5q0 33 14 60t37.5 51t51.5 51.5t58 69t55.5 95.5t45 140.5
t25.5 193.5h-62q-99 0 -156 -33t-108 -122l-31 16q30 120 68 199t89.5 123t110.5 61.5t142 17.5h477q46 0 86 11t63 26.5t36 29t16 21.5h26v-350z" />
    <glyph glyph-name="Wgrave" unicode="&#x1e80;" horiz-adv-x="2162" 
d="M1124 1853l144 -327h-64l-399 327h319zM1794 952q43 133 23 246t-93 156v26h422v-26q-46 -22 -87 -64t-74.5 -101t-58 -114t-50.5 -127l-363 -971h-36l-373 963l-377 -963h-37l-432 1053q-58 137 -107.5 211.5t-125.5 112.5v26h573v-26q-119 -84 -14 -330l247 -618
l232 641l-10 30q-45 116 -92 182t-107 95v26h573v-26q-47 -26 -67.5 -76.5t-15.5 -108.5t28 -122l244 -639z" />
    <glyph glyph-name="wgrave" unicode="&#x1e81;" horiz-adv-x="1792" 
d="M1069 1186h-63l-400 327h320zM1405 1040h367v-26q-146 -87 -234 -318l-272 -719h-43l-310 721l-290 -721h-43l-322 730q-52 120 -102.5 189t-128.5 118v26h503v-26q-94 -67 -8 -264l183 -449l169 485q-39 90 -79.5 142.5t-94.5 85.5v26h506v-26q-41 -26 -55.5 -74.5
t-6 -102t33.5 -112.5l165 -424l111 363q35 119 21 213t-70 137v26z" />
    <glyph glyph-name="Wacute" unicode="&#x1e82;" horiz-adv-x="2162" 
d="M1495 1853l-399 -327h-64l144 327h319zM1794 952q43 133 23 246t-93 156v26h422v-26q-46 -22 -87 -64t-74.5 -101t-58 -114t-50.5 -127l-363 -971h-36l-373 963l-377 -963h-37l-432 1053q-58 137 -107.5 211.5t-125.5 112.5v26h573v-26q-119 -84 -14 -330l247 -618
l232 641l-10 30q-45 116 -92 182t-107 95v26h573v-26q-47 -26 -67.5 -76.5t-15.5 -108.5t28 -122l244 -639z" />
    <glyph glyph-name="wacute" unicode="&#x1e83;" horiz-adv-x="1792" 
d="M1282 1513l-399 -327h-64l144 327h319zM1405 1040h367v-26q-146 -87 -234 -318l-272 -719h-43l-310 721l-290 -721h-43l-322 730q-52 120 -102.5 189t-128.5 118v26h503v-26q-94 -67 -8 -264l183 -449l169 485q-39 90 -79.5 142.5t-94.5 85.5v26h506v-26
q-41 -26 -55.5 -74.5t-6 -102t33.5 -112.5l165 -424l111 363q35 119 21 213t-70 137v26z" />
    <glyph glyph-name="Wdieresis" unicode="&#x1e84;" horiz-adv-x="2162" 
d="M920 1550q-57 0 -98.5 41.5t-41.5 98.5t41.5 98t98.5 41t97 -41t40 -98t-40 -98.5t-97 -41.5zM1364 1550q-57 0 -97 41.5t-40 98.5t40 98t97 41t98 -41t41 -98t-41 -98.5t-98 -41.5zM1794 952q43 133 23 246t-93 156v26h422v-26q-46 -22 -87 -64t-74.5 -101t-58 -114
t-50.5 -127l-363 -971h-36l-373 963l-377 -963h-37l-432 1053q-58 137 -107.5 211.5t-125.5 112.5v26h573v-26q-119 -84 -14 -330l247 -618l232 641l-10 30q-45 116 -92 182t-107 95v26h573v-26q-47 -26 -67.5 -76.5t-15.5 -108.5t28 -122l244 -639z" />
    <glyph glyph-name="wdieresis" unicode="&#x1e85;" horiz-adv-x="1792" 
d="M733 1210q-58 0 -98.5 41.5t-40.5 98.5t40.5 98t98.5 41q56 0 96.5 -41t40.5 -98t-40.5 -98.5t-96.5 -41.5zM1178 1210q-57 0 -98.5 41.5t-41.5 98.5t41.5 98t98.5 41q56 0 96.5 -41t40.5 -98t-40.5 -98.5t-96.5 -41.5zM1405 1040h367v-26q-146 -87 -234 -318l-272 -719
h-43l-310 721l-290 -721h-43l-322 730q-52 120 -102.5 189t-128.5 118v26h503v-26q-94 -67 -8 -264l183 -449l169 485q-39 90 -79.5 142.5t-94.5 85.5v26h506v-26q-41 -26 -55.5 -74.5t-6 -102t33.5 -112.5l165 -424l111 363q35 119 21 213t-70 137v26z" />
    <glyph glyph-name="Ygrave" unicode="&#x1ef2;" horiz-adv-x="1380" 
d="M836 1526h-64l-399 327h319zM942 1380h420v-26q-82 -30 -163 -115.5t-148 -210.5l-201 -389v-383q0 -175 86 -229v-27h-469v27q44 25 66 78t22 151v307l-285 508q-65 118 -123 188t-120 95v26h581v-26q-51 -31 -62.5 -88t3.5 -108.5t43 -102.5l215 -381l168 354
q48 98 40 191t-73 135v26z" />
    <glyph glyph-name="ygrave" unicode="&#x1ef3;" horiz-adv-x="1196" 
d="M596 1513l143 -327h-63l-400 327h320zM252 692q-120 259 -227 322v26h518v-26q-37 -26 -51 -67.5t-4.5 -94t26.5 -100t45 -107.5l158 -381l125 365q28 79 36.5 151t-9 136.5t-66.5 97.5v26h377v-26q-137 -71 -228 -309l-260 -650q-19 -67 -35.5 -120t-41 -115.5t-49 -109
t-57.5 -91.5t-69.5 -74t-82.5 -47t-97 -18q-130 0 -205 102l-4 27q60 6 115 20t116.5 41.5t114 66.5t101 99t82.5 135z" />
    <glyph glyph-name="endash" unicode="&#x2013;" horiz-adv-x="995" 
d="M109 618h778v-110h-778v110z" />
    <glyph glyph-name="emdash" unicode="&#x2014;" horiz-adv-x="2019" 
d="M109 618h1802v-110h-1802v110z" />
    <glyph glyph-name="quoteleft" unicode="&#x2018;" horiz-adv-x="518" 
d="M86 1044q0 132 94.5 251.5t237.5 181.5l12 -27q-58 -36 -106 -112t-48 -154q12 3 21 0q64 -6 105.5 -53t41.5 -117q0 -71 -49.5 -122.5t-124.5 -51.5q-82 0 -133 57.5t-51 146.5z" />
    <glyph glyph-name="quoteright" unicode="&#x2019;" horiz-adv-x="530" 
d="M438 1243q0 -132 -94.5 -251t-237.5 -181l-12 27q57 36 105 112t49 154h-23q-63 6 -105 53.5t-42 116.5q0 71 49.5 122.5t124.5 51.5q84 0 135 -58t51 -147z" />
    <glyph glyph-name="quotesinglbase" unicode="&#x201a;" horiz-adv-x="530" 
d="M438 166q0 -132 -94.5 -251t-237.5 -181l-12 26q56 36 104.5 112.5t49.5 154.5q-13 -3 -23 0q-63 6 -105 53.5t-42 116.5q0 71 49.5 122.5t124.5 51.5q84 0 135 -58t51 -147z" />
    <glyph glyph-name="quotedblleft" unicode="&#x201c;" horiz-adv-x="978" 
d="M86 1044q0 132 94.5 251.5t237.5 181.5l12 -27q-58 -36 -106 -112t-48 -154q12 3 23 0q62 -6 103.5 -53.5t41.5 -116.5q0 -71 -49.5 -122.5t-124.5 -51.5q-82 0 -133 57.5t-51 146.5zM541 1044q0 132 93.5 251.5t235.5 181.5l15 -27q-58 -36 -106 -112t-48 -154
q13 3 23 0q62 -6 103.5 -53.5t41.5 -116.5q0 -71 -49.5 -122.5t-124.5 -51.5q-83 0 -133.5 57.5t-50.5 146.5z" />
    <glyph glyph-name="quotedblright" unicode="&#x201d;" horiz-adv-x="980" 
d="M438 1243q0 -132 -94.5 -251t-237.5 -181l-12 27q57 36 105 112t49 154h-27q-61 8 -102 55t-41 115q0 71 49.5 122.5t124.5 51.5q84 0 135 -58t51 -147zM891 1243q0 -132 -94 -251t-236 -181l-14 27q58 36 105.5 112t47.5 154h-28q-60 8 -100 55t-40 115q0 71 50 122.5
t125 51.5q83 0 133.5 -58t50.5 -147z" />
    <glyph glyph-name="quotedblbase" unicode="&#x201e;" horiz-adv-x="980" 
d="M438 166q0 -131 -94.5 -250.5t-237.5 -179.5l-12 24q57 38 105 114.5t49 154.5q-15 -3 -27 0q-62 8 -102.5 54.5t-40.5 115.5q0 70 50 122t124 52q84 0 135 -58.5t51 -148.5zM891 166q0 -131 -94.5 -250.5t-235.5 -179.5l-14 24q58 37 105.5 114t47.5 155h-28
q-60 8 -100 54.5t-40 115.5q0 70 50 122t125 52q83 0 133.5 -58t50.5 -149z" />
    <glyph glyph-name="dagger" unicode="&#x2020;" horiz-adv-x="1030" 
d="M817 1047q57 0 97 -35t40 -94q0 -62 -40 -96t-97 -34q-36 0 -70 17.5t-90.5 45.5t-128.5 46q6 -252 195 -348q-8 -16 -21.5 -45.5t-47.5 -124.5t-59.5 -194.5t-47 -246.5t-21.5 -290h-24q0 143 -20.5 288t-49 250.5t-57.5 190.5t-49 129l-21 43q101 57 146.5 141.5
t48.5 206.5q-72 -18 -127.5 -46t-89.5 -45.5t-70 -17.5q-59 0 -98 34t-39 96q0 59 39.5 94t97.5 35q36 0 69 -17t88.5 -46.5t123.5 -49.5q-20 75 -49 140t-45.5 106t-16.5 86q0 57 34.5 97t94.5 40q61 0 95 -39.5t34 -97.5q0 -44 -18 -86t-46 -106t-45 -142q70 20 126 50
t89.5 47.5t69.5 17.5z" />
    <glyph glyph-name="daggerdbl" unicode="&#x2021;" horiz-adv-x="1030" 
d="M530 266q72 17 127.5 45t89.5 46t70 18q58 0 97.5 -34t39.5 -95q0 -59 -40 -94t-97 -35q-36 0 -69.5 16.5t-89.5 46t-126 49.5q17 -77 45 -140.5t46 -105t18 -85.5q0 -58 -34 -98t-95 -40q-60 0 -94.5 40.5t-34.5 97.5q0 45 16.5 85.5t45.5 105.5t49 140
q-68 -20 -123.5 -49.5t-88.5 -46t-69 -16.5q-58 0 -97.5 35t-39.5 94q0 62 39 95.5t98 33.5q35 0 68.5 -18t88.5 -46t126 -45q-4 109 -45 181.5t-132 134.5q90 57 131.5 130t45.5 183q-71 -17 -126 -44.5t-88.5 -45t-68.5 -17.5q-59 0 -98 34t-39 96q0 59 39.5 94t97.5 35
q36 0 69 -17t88.5 -46.5t123.5 -49.5q-20 75 -49 139.5t-45.5 106t-16.5 86.5q0 57 34.5 97t94.5 40q61 0 95 -39.5t34 -97.5q0 -45 -18 -87t-46 -105t-45 -140q70 19 125.5 48.5t89.5 47t70 17.5q57 0 97 -35t40 -94q0 -62 -40 -96t-97 -34q-36 0 -70 18t-89.5 46
t-127.5 45q4 -112 46 -185t133 -130q-91 -62 -133 -135.5t-46 -180.5z" />
    <glyph glyph-name="bullet" unicode="&#x2022;" horiz-adv-x="626" 
d="M311 846q84 0 143.5 -59.5t59.5 -143.5t-59.5 -143.5t-143.5 -59.5q-85 0 -143.5 59t-58.5 144t58.5 144t143.5 59z" />
    <glyph glyph-name="ellipsis" unicode="&#x2026;" horiz-adv-x="1695" 
d="M262 334q72 0 124 -52t52 -124t-52 -123t-124 -51t-123 51t-51 123t51 124t123 52zM848 334q72 0 124 -52t52 -124t-52 -123t-124 -51t-123 51t-51 123t51 124t123 52zM1434 334q72 0 124 -52t52 -124t-52 -123t-124 -51t-123 51t-51 123t51 124t123 52z" />
    <glyph glyph-name="perthousand" unicode="&#x2030;" horiz-adv-x="2408" 
d="M406 1360q153 0 232 -99.5t79 -252.5t-81.5 -252t-229.5 -99q-143 0 -225.5 93.5t-82.5 255.5q0 152 85.5 253t222.5 101zM1155 1343h123l-784 -1343h-121zM406 711q33 0 55 21t32.5 63.5t14.5 91.5t4 121q0 305 -106 305q-31 0 -52.5 -20.5t-32.5 -63t-15.5 -95.5
t-4.5 -128q0 -295 105 -295zM1247 690q79 0 140 -28t98 -77t55.5 -112t18.5 -137q0 -152 -82 -251t-230 -99q-142 0 -223.5 93t-81.5 255q0 153 84 254.5t221 101.5zM1997 690q104 0 176 -49t103.5 -127t31.5 -178q0 -152 -81.5 -251t-229.5 -99q-142 0 -223.5 93t-81.5 255
q0 153 84 254.5t221 101.5zM1247 39q33 0 55 21t33 63.5t15 91.5t4 121q0 307 -107 307q-42 0 -65.5 -39.5t-31 -103t-7.5 -166.5q0 -295 104 -295zM1997 39q33 0 55 21t32.5 63.5t14.5 91.5t4 121q0 307 -106 307q-42 0 -65.5 -39.5t-31.5 -103t-8 -166.5q0 -135 26 -215
t79 -80z" />
    <glyph glyph-name="guilsinglleft" unicode="&#x2039;" horiz-adv-x="630" 
d="M518 909l31 -24l-195 -367l195 -366l-31 -25q-195 237 -430 371v41q236 135 430 370z" />
    <glyph glyph-name="guilsinglright" unicode="&#x203a;" horiz-adv-x="630" 
d="M82 885l31 24q194 -235 430 -370v-41q-235 -134 -430 -371l-31 25l194 366z" />
    <glyph glyph-name="fraction" unicode="&#x2044;" horiz-adv-x="401" 
d="M573 1343h123l-870 -1343h-121z" />
    <glyph glyph-name="uni2070" unicode="&#x2070;" horiz-adv-x="962" 
d="M88 973q0 108 31.5 191.5t87 134.5t125 76.5t149.5 25.5q182 0 287.5 -111.5t105.5 -306.5q0 -107 -31.5 -190.5t-87 -134t-125 -76t-149.5 -25.5q-182 0 -287.5 111.5t-105.5 304.5zM627 977q0 176 -40.5 274.5t-105.5 98.5q-67 0 -106 -91.5t-39 -279.5q0 -173 40 -271
t105 -98q68 2 107 91.5t39 275.5z" />
    <glyph glyph-name="uni2074" unicode="&#x2074;" horiz-adv-x="866" 
d="M811 889l-23 -141h-131q3 -118 62 -156v-27h-348v27q58 33 61 156h-405v96l479 538h151v-493h154zM432 1235l-282 -346h282v346z" />
    <glyph glyph-name="Euro" unicode="&#x20ac;" horiz-adv-x="1355" 
d="M1237 449h27v-361q-75 -50 -189.5 -77t-236.5 -27q-257 0 -432 137.5t-224 380.5l-131 2v59l121 2q-8 49 -8 113q0 63 8 110l-121 3v59l131 2q50 236 223.5 376t425.5 140q218 0 422 -106v-363h-26q-130 406 -373 406q-136 0 -229.5 -115.5t-122.5 -331.5l418 6v-82
l-426 4q-5 -88 -5 -108q0 -22 5 -109l426 4v-81l-418 6q32 -220 131.5 -335.5t245.5 -115.5q137 0 219 101.5t139 300.5z" />
    <glyph glyph-name="uni20B9" unicode="&#x20b9;" horiz-adv-x="1193" 
d="M1145 1358v-82l-375 4q174 -95 184 -279l191 -2l-193 -43q-3 -61 -25.5 -111.5t-56 -86t-79.5 -62.5t-92.5 -42.5t-98.5 -24.5l125 -160q132 -173 229.5 -278.5t178.5 -157.5l-7 -27q-39 -27 -78.5 -39t-97.5 -12q-112 0 -201 64t-210 223q-22 29 -44.5 59.5t-48 70
t-42.5 65t-49.5 77t-47.5 74.5l-162 4v55l150 8q157 9 242 87t94 204l-486 17l281 45l207 -2q-10 270 -293 276l-195 4v57z" />
    <glyph glyph-name="uni2113" unicode="&#x2113;" horiz-adv-x="1095" 
d="M682 133q75 0 141 37t97 70l32 -31q-83 -110 -173 -169.5t-206 -59.5q-152 0 -250 107.5t-98 283.5v67q-107 9 -202 41l18 56q74 -25 184 -31v370q0 261 102 393t281 132q168 0 264.5 -109.5t96.5 -285.5q0 -128 -39 -229.5t-106 -166t-147.5 -103.5t-174.5 -54v-60
q0 -258 180 -258zM623 1337q-55 0 -88 -61t-33 -186v-576q135 39 205.5 165t70.5 304q0 164 -37.5 259t-117.5 95z" />
    <glyph glyph-name="trademark" unicode="&#x2122;" horiz-adv-x="1671" 
 />
    <glyph glyph-name="uni2126" unicode="&#x2126;" horiz-adv-x="1548" 
d="M725 0h-559v246h27q40 -39 72 -59.5t108.5 -42.5t204.5 -40q-226 148 -358 319.5t-132 356.5q0 174 88.5 316.5t246 224.5t351.5 82q157 0 287.5 -50t216.5 -135.5t133 -198.5t47 -239q0 -180 -129.5 -353.5t-351.5 -320.5q122 17 198 39.5t108 43t69 57.5h26v-246h-555
v57q310 216 310 725q0 158 -42.5 284t-125 199.5t-191.5 73.5q-91 0 -162 -48.5t-113 -130t-63.5 -181.5t-21.5 -211q0 -233 81 -418.5t230 -292.5v-57z" />
    <glyph glyph-name="estimated" unicode="&#x212e;" horiz-adv-x="1687" 
d="M881 1307q202 0 371.5 -88.5t267.5 -241t98 -334.5v-18h-1194q-10 0 -10 -9v-360q0 -25 16 -41q91 -95 207.5 -146t245.5 -51q137 0 259.5 57.5t215.5 162.5h106q-105 -122 -257.5 -190t-325.5 -68q-202 0 -371.5 88t-268 240.5t-98.5 334.5t98.5 334.5t268 241
t371.5 88.5zM424 662h915q9 0 9 10v364q0 29 -19 43q-91 91 -206 140t-240 49q-128 0 -244.5 -50t-206.5 -145q-18 -18 -18 -45v-356q0 -10 10 -10z" />
    <glyph glyph-name="partialdiff" unicode="&#x2202;" horiz-adv-x="1255" 
d="M88 502q0 118 37.5 220t107.5 178t175.5 119.5t234.5 43.5q121 0 191 -47q-24 83 -58 153.5t-82.5 132t-107.5 105.5t-137 70.5t-168 29.5l-7 27q69 14 146 14q132 0 245.5 -39.5t195 -108t144 -157t100 -191.5t56.5 -205.5t19 -203.5q0 -314 -152.5 -488.5
t-409.5 -174.5q-239 0 -384.5 145.5t-145.5 376.5zM643 45q113 0 174.5 114.5t61.5 323.5q0 237 -67.5 375.5t-188.5 138.5q-59 0 -106 -36t-75 -97t-42.5 -135.5t-14.5 -155.5q0 -99 14.5 -189t43.5 -168t81 -124.5t119 -46.5z" />
    <glyph glyph-name="uni2206" unicode="&#x2206;" horiz-adv-x="1314" 
d="M690 1403l584 -1376v-27h-293h-879h-59v27l610 1376h37zM164 63h790l-407 965z" />
    <glyph glyph-name="product" unicode="&#x220f;" horiz-adv-x="1622" 
d="M1485 1354q-88 -52 -88 -230v-1114q0 -173 88 -229v-27h-469v27q88 50 88 229v1307h-584v-1307q0 -175 86 -229v-27h-467v27q86 51 86 229v1114q0 179 -86 230v26h381h678h287v-26z" />
    <glyph glyph-name="summation" unicode="&#x2211;" horiz-adv-x="1323" 
d="M1245 162h29v-408h-1200h-6v29l575 756l-580 876v27h326h864v-430h-28q-64 138 -197.5 237t-320.5 115l-281 25l467 -705v-27l-625 -727l606 41q141 8 223 55.5t148 135.5z" />
    <glyph glyph-name="minus" unicode="&#x2212;" horiz-adv-x="1245" 
d="M113 748h1022v-103h-1022v103z" />
    <glyph glyph-name="uni2215" unicode="&#x2215;" horiz-adv-x="401" 
d="M573 1343h123l-870 -1343h-121z" />
    <glyph glyph-name="radical" unicode="&#x221a;" horiz-adv-x="1155" 
d="M1081 1548h152l-631 -1571h-43l-430 953l-160 -19l-10 58l420 71l309 -721z" />
    <glyph glyph-name="infinity" unicode="&#x221e;" horiz-adv-x="1568" 
d="M1176 1114q139 0 219 -112.5t80 -303.5q0 -88 -22 -169t-67 -150t-123 -110.5t-180 -41.5q-53 0 -100.5 17t-83.5 42.5t-72.5 67.5t-62 80t-57.5 92q-17 -57 -43 -105.5t-63.5 -89.5t-89 -65t-112.5 -24q-133 0 -219 114t-86 301q0 86 22.5 167.5t65.5 150.5t115.5 111
t163.5 42q56 0 106.5 -17.5t88.5 -43.5t76.5 -69t65.5 -81.5t60 -93.5q17 56 44.5 105.5t66.5 92.5t92.5 68t114.5 25zM434 485q134 0 244 88q-26 44 -41 68.5t-40.5 63t-44.5 60t-47 48.5t-53.5 40.5t-58 23.5t-67.5 10q-71 0 -117.5 -49t-46.5 -125q0 -101 80 -164.5
t192 -63.5zM1249 453q76 0 118 52t42 130q0 101 -74.5 167t-189.5 66q-147 0 -258 -90q29 -49 42.5 -70.5t42 -64.5t46.5 -63t47.5 -49.5t55 -43t59 -24t69.5 -10.5z" />
    <glyph glyph-name="integral" unicode="&#x222b;" horiz-adv-x="1026" 
d="M225 -510q-148 0 -235.5 57t-87.5 146q0 62 35 97.5t92 35.5q51 0 88 -32.5t37 -90.5q0 -37 -22 -68t-58 -43q38 -38 106 -38q32 0 55.5 12.5t39 38t25.5 56.5t15 77t7 89t2 103v1180q0 207 98 326.5t293 119.5q150 0 236.5 -56.5t86.5 -147.5q0 -60 -35.5 -96.5
t-91.5 -36.5q-51 0 -87 33t-36 91q0 39 22 69t58 40q-39 39 -108 39q-38 0 -64.5 -19t-41.5 -49t-23 -81.5t-10.5 -101t-2.5 -122.5v-1184q0 -205 -98.5 -324.5t-294.5 -119.5z" />
    <glyph glyph-name="approxequal" unicode="&#x2248;" horiz-adv-x="1245" 
d="M1130 926q0 -110 -55 -181h55q0 -127 -69.5 -197.5t-181.5 -70.5q-55 0 -127 25t-131.5 55t-129 55t-120.5 25q-77 0 -113.5 -45.5t-36.5 -120.5h-106q0 109 55 180h-55q0 128 73 200.5t183 72.5q62 0 137.5 -25t133.5 -55t125 -55t114 -25q143 0 143 162h106zM881 584
q119 0 139 110q-61 -37 -141 -37q-55 0 -127 25t-131.5 55t-129 55t-120.5 25q-122 0 -146 -115q62 41 146 41q62 0 137.5 -25t133.5 -54.5t125 -54.5t114 -25z" />
    <glyph glyph-name="notequal" unicode="&#x2260;" horiz-adv-x="1245" 
d="M1135 872h-392l-155 -346h547v-102h-592l-154 -346h-123l154 346h-307v102h352l156 346h-508v103h553l151 338h123l-152 -338h347v-103z" />
    <glyph glyph-name="lessequal" unicode="&#x2264;" horiz-adv-x="1251" 
d="M162 774l934 334v-115l-801 -268l801 -270v-113l-934 334v98zM154 233h942v-98h-942v98z" />
    <glyph glyph-name="greaterequal" unicode="&#x2265;" horiz-adv-x="1251" 
d="M1092 676l-934 -334v113l800 270l-800 268v115l934 -334v-98zM1098 135h-940v98h940v-98z" />
    <glyph glyph-name="lozenge" unicode="&#x25ca;" horiz-adv-x="1085" 
d="M586 1442l409 -742l-411 -759h-88l-404 761l404 740h90zM539 1321l-334 -621l336 -639l342 639z" />
    <glyph glyph-name="uniE18A" unicode="&#xe18a;" horiz-adv-x="1228" 
d="M461 1358q0 112 79.5 214t200.5 152l11 -20q-48 -31 -89.5 -96.5t-41.5 -132.5q8 2 16 2q55 -3 91 -44.5t36 -101.5t-42 -103.5t-106 -43.5q-70 0 -112.5 49t-42.5 125z" />
    <glyph glyph-name="i.dot" horiz-adv-x="657" 
d="M319 1530q69 0 121 -51.5t52 -120.5q0 -70 -52 -121t-121 -51q-71 0 -121.5 51t-50.5 121q0 69 51 120.5t121 51.5zM467 256q0 -171 94 -229v-27h-465v27q94 55 94 229v500q0 121 -90 166v26l367 113v-805z" />
    <glyph glyph-name="caron.alt" horiz-adv-x="1228" 
d="M764 1454q0 -110 -78.5 -197.5t-191.5 -134.5l-13 21q127 85 129 196q-8 -2 -18 -2q-53 3 -88 43t-35 97q0 59 41 102t102 43q68 0 110 -47.5t42 -120.5z" />
    </font>
</defs>
</svg>
